<?xml version="1.0" standalone="no"?>
<!DOCTYPE svg PUBLIC "-//W3C//DTD SVG 1.1//EN" "http://www.w3.org/Graphics/SVG/1.1/DTD/svg11.dtd" >
<svg xmlns="http://www.w3.org/2000/svg" xmlns:xlink="http://www.w3.org/1999/xlink" version="1.1">
<metadata>
Created by FontForge 20170731 at Sun Sep  5 14:07:25 2021
 By Aleksey,,,
(c) 2011 Sergiy S. Tkachenko / 4th february
(c) 2011 ArchyStudio.com
http://creativecommons.org/licenses/by-nd/3.0
http://creativecommons.org/licenses/by-nd/3.0/deed.ru
</metadata>
<defs>
<font id="Designosaur" horiz-adv-x="1155" >
  <font-face 
    font-family="Designosaur"
    font-weight="400"
    font-stretch="normal"
    units-per-em="2048"
    panose-1="0 0 0 0 0 0 0 0 0 0"
    ascent="1536"
    descent="-512"
    x-height="1065"
    cap-height="1475"
    bbox="-231.329 -819.522 2296 2449"
    underline-thickness="102"
    underline-position="-307"
    unicode-range="U+0020-25FF"
  />
<missing-glyph horiz-adv-x="614" 
 />
    <glyph glyph-name=".notdef" horiz-adv-x="614" 
 />
    <glyph glyph-name=".null" horiz-adv-x="0" 
 />
    <glyph glyph-name="nonmarkingreturn" horiz-adv-x="682" 
 />
    <glyph glyph-name="space" unicode=" " horiz-adv-x="614" 
 />
    <glyph glyph-name="exclam" unicode="!" horiz-adv-x="462" 
d="M279 451h-95q-21 0 -30 9.5t-11 31.5l-41 942q-3 41 41 41h176q44 0 41 -41l-41 -942q-2 -22 -10.5 -31.5t-29.5 -9.5zM319 246h-176q-22 0 -31.5 -9.5t-9.5 -31.5v-164q0 -22 9.5 -31.5t31.5 -9.5h176q22 0 31.5 9.5t9.5 31.5v164q0 22 -9.5 31.5t-31.5 9.5z" />
    <glyph glyph-name="quotedbl" unicode="&#x22;" horiz-adv-x="712" 
d="M240 1065h-95q-21 0 -30 9.5t-11 31.5l-20 328q-3 41 41 41h135q44 0 41 -41l-20 -328q-2 -22 -11 -31.5t-30 -9.5zM567 1065h-94q-21 0 -30 9.5t-11 31.5l-20 328q-3 41 41 41h135q44 0 41 -41l-21 -328q-2 -22 -11 -31.5t-30 -9.5z" />
    <glyph glyph-name="numbersign" unicode="#" horiz-adv-x="1165" 
d="M645 12l-98 27q-41 8 -29 49l103 381h-222l-114 -428q-8 -41 -49 -29l-99 27q-40 8 -28 49l102 381h-88q-22 0 -31.5 9.5t-9.5 31.5v102q0 22 9.5 31.5t31.5 9.5h137l49 185h-106q-22 0 -31.5 9.5t-9.5 31.5v102q0 22 9.5 31.5t31.5 9.5h155l111 412q8 40 49 28l98 -26
q41 -9 29 -50l-98 -364h221l111 412q8 40 49 28l98 -26q41 -9 29 -50l-99 -364h86q22 0 31.5 -9.5t9.5 -31.5v-102q0 -22 -9.5 -31.5t-31.5 -9.5h-135l-49 -185h105q22 0 31.5 -9.5t9.5 -31.5v-102q0 -22 -9.5 -31.5t-31.5 -9.5h-154l-115 -428q-8 -41 -49 -29zM498 838
l-49 -185h221l49 185h-221z" />
    <glyph glyph-name="dollar" unicode="$" horiz-adv-x="1136" 
d="M627 578l-199 73q-336 125 -336 377q0 151 106.5 251.5t276.5 127.5v149q0 22 9.5 31.5t31.5 9.5h102q22 0 31.5 -9.5t9.5 -31.5v-143q110 -10 216 -41t137 -55q10 -7 10.5 -17.5t-8.5 -35.5l-33 -86q-7 -18 -53 -4q-186 49 -330 49q-75 0 -130 -16t-83.5 -42
t-41.5 -53.5t-13 -56.5q0 -46 38.5 -85t137.5 -73l196 -68q176 -63 264.5 -171t88.5 -234q0 -142 -107 -235.5t-289 -120.5v-150q0 -22 -9.5 -31.5t-31.5 -9.5h-102q-22 0 -31.5 9.5t-9.5 31.5v141q-115 7 -230.5 39t-150.5 60q-10 9 -10.5 19.5t8.5 33.5l33 86q7 18 53 4
q59 -16 162 -32.5t188 -16.5q128 0 208.5 42t80.5 109q0 55 -54.5 100t-135.5 75z" />
    <glyph glyph-name="percent" unicode="%" horiz-adv-x="1449" 
d="M287 20l-84 60q-32 22 -10 57l917 1307q21 33 57 10l84 -59q33 -23 11 -58l-918 -1306q-22 -34 -57 -11zM1067 -23q-123 0 -201 98t-78 283t77.5 283t201.5 98t202.5 -98t78.5 -283t-78.5 -283t-202.5 -98zM1067 160q45 0 73.5 47.5t28.5 150.5q0 102 -28.5 149.5
t-73.5 47.5t-72.5 -47.5t-27.5 -149.5q0 -104 27.5 -151t72.5 -47zM381 729q-123 0 -201 98t-78 283t77.5 283t201.5 98t202.5 -98t78.5 -283t-78.5 -283t-202.5 -98zM381 911q45 0 73.5 48t28.5 151q0 102 -28.5 149.5t-73.5 47.5t-72.5 -47.5t-27.5 -149.5
q0 -104 27.5 -151.5t72.5 -47.5z" />
    <glyph glyph-name="ampersand" unicode="&#x26;" horiz-adv-x="1460" 
d="M82 344q0 92 31.5 170t92.5 141.5t126.5 110.5t156.5 98l-51 60q-94 132 -94 278q0 132 102 211.5t265 79.5q178 0 287.5 -77t109.5 -202q0 -217 -287 -403l183 -281l198 183q30 30 55 -6l97 -125q23 -34 -6 -60l-211 -182l215 -307q26 -33 -17 -33h-229q-42 0 -64 35
l-96 139q-121 -102 -219.5 -146t-210.5 -44q-199 0 -316.5 102.5t-117.5 257.5zM516 188q109 0 303 172l-205 322q-141 -83 -208.5 -159t-67.5 -171q0 -67 50.5 -115.5t127.5 -48.5zM600 1206q0 -46 23.5 -97t72.5 -122q76 57 116 110.5t40 114.5q0 44 -38 71.5t-103 27.5
q-46 0 -78.5 -26.5t-32.5 -78.5z" />
    <glyph glyph-name="quotesingle" unicode="'" horiz-adv-x="385" 
d="M240 1065h-95q-21 0 -30 9.5t-11 31.5l-20 328q-3 41 41 41h135q44 0 41 -41l-20 -328q-2 -22 -11 -31.5t-30 -9.5z" />
    <glyph glyph-name="parenleft" unicode="(" horiz-adv-x="761" 
d="M352 737q0 -210 19.5 -352.5t60.5 -223.5t95.5 -115t131.5 -34q22 0 31.5 -9.5t9.5 -31.5v-114q0 -22 -9.5 -31.5t-31.5 -9.5h-55q-89 0 -167 35.5t-143.5 110t-112.5 182.5t-73 259.5t-26 335.5t26 336t73 260t112.5 182.5t143.5 110t167 35.5h55q22 0 31.5 -9.5
t9.5 -31.5v-115q0 -22 -9.5 -31.5t-31.5 -9.5q-77 0 -131.5 -34t-95.5 -115t-60.5 -224.5t-19.5 -355.5z" />
    <glyph glyph-name="parenright" unicode=")" horiz-adv-x="761" 
d="M410 737q0 170 -13.5 296t-38 208.5t-63.5 133t-85 71t-108 20.5q-22 0 -31.5 9.5t-9.5 31.5v115q0 22 9.5 31.5t31.5 9.5h56q89 0 167 -35.5t143.5 -110t112.5 -182.5t73 -260t26 -336t-26 -335.5t-73 -259.5t-112.5 -182.5t-143.5 -110t-167 -35.5h-56q-22 0 -31.5 9.5
t-9.5 31.5v114q0 22 9.5 31.5t31.5 9.5q61 0 107.5 20.5t85.5 71t63.5 132.5t38 207t13.5 294z" />
    <glyph glyph-name="asterisk" unicode="*" horiz-adv-x="876" 
d="M379 1284l-6 232q0 22 8.5 31t30.5 9h53q22 0 30.5 -9t8.5 -31l-6 -232l207 78q39 15 51 -25l14 -49q12 -39 -29 -51l-211 -63l146 -181q25 -32 -10 -55l-43 -27q-35 -20 -58 13l-127 184l-127 -184q-22 -32 -57 -13l-43 27q-35 23 -10 55l145 181l-211 63q-41 12 -29 51
l15 49q12 40 51 25z" />
    <glyph glyph-name="plus" unicode="+" horiz-adv-x="921" 
d="M553 1083v-245h246q22 0 31.5 -9.5t9.5 -31.5v-103q0 -22 -9.5 -31.5t-31.5 -9.5h-246v-245q0 -22 -9.5 -31.5t-31.5 -9.5h-102q-22 0 -31.5 9.5t-9.5 31.5v245h-246q-22 0 -31.5 9.5t-9.5 31.5v103q0 22 9.5 31.5t31.5 9.5h246v245q0 22 9.5 31.5t31.5 9.5h102
q22 0 31.5 -9.5t9.5 -31.5z" />
    <glyph glyph-name="comma" unicode="," horiz-adv-x="491" 
d="M217 0h-74q-22 0 -31.5 9.5t-9.5 31.5v205q0 22 9.5 31.5t31.5 9.5h205q22 0 31.5 -9.5t9.5 -31.5v-236q0 -93 -33 -181t-67 -126q-20 -24 -53 -2l-66 43q-18 12 -4 53q2 7 13 35.5t18 48.5t13.5 54t6.5 65z" />
    <glyph glyph-name="hyphen" unicode="-" horiz-adv-x="757" 
d="M614 653h-471q-22 0 -31.5 9.5t-9.5 31.5v103q0 22 9.5 31.5t31.5 9.5h471q22 0 31.5 -9.5t9.5 -31.5v-103q0 -22 -9.5 -31.5t-31.5 -9.5z" />
    <glyph glyph-name="period" unicode="." horiz-adv-x="491" 
d="M143 287h205q22 0 31.5 -9.5t9.5 -31.5v-205q0 -22 -9.5 -31.5t-31.5 -9.5h-205q-22 0 -31.5 9.5t-9.5 31.5v205q0 22 9.5 31.5t31.5 9.5z" />
    <glyph glyph-name="slash" unicode="/" horiz-adv-x="897" 
d="M139 -45l-92 43q-37 16 -20 55l675 1446q17 38 56 21l92 -43q37 -17 20 -56l-675 -1446q-17 -37 -56 -20z" />
    <glyph glyph-name="zero" unicode="0" horiz-adv-x="1282" 
d="M641 -25q-119 0 -219.5 48t-177 140.5t-119.5 239.5t-43 334t43 334t119 239.5t176.5 140.5t220.5 48t220.5 -48t176.5 -140.5t119 -239.5t43 -334t-43 -334t-119.5 -239.5t-177 -140.5t-219.5 -48zM641 170q62 0 113 31t91 96t62.5 177t22.5 263t-22.5 263.5
t-62.5 177.5t-91 96t-113 31t-113 -31t-91 -96t-62.5 -177.5t-22.5 -263.5t22.5 -263t62.5 -177t91 -96t113 -31z" />
    <glyph glyph-name="one" unicode="1" horiz-adv-x="671" 
d="M20 1081v115q0 43 37 59l475 232q20 9 28.5 4t8.5 -27v-1423q0 -22 -9.5 -31.5t-31.5 -9.5h-174q-22 0 -31.5 9.5t-9.5 31.5v1133l-256 -117q-20 -9 -28.5 -3.5t-8.5 27.5z" />
    <glyph glyph-name="two" unicode="2" horiz-adv-x="1040" 
d="M96 41v57q0 46 21 78l434 664l11 14q11 15 20 28.5t23 36t25 45t21.5 49t16.5 55t6 54.5q0 77 -48.5 130t-142.5 53q-93 0 -305 -50q-26 -6 -38 -5.5t-15 10.5l-33 86q-9 25 -8.5 34.5t10.5 18.5q37 30 168 65t250 35q182 0 302 -95.5t126 -279.5q6 -176 -109 -319
l-493 -621h580q22 0 31 -9.5t9 -31.5v-102q0 -22 -9 -31.5t-31 -9.5h-781q-22 0 -31.5 9.5t-9.5 31.5z" />
    <glyph glyph-name="three" unicode="3" horiz-adv-x="1089" 
d="M397 788v43q0 40 23 76l215 383h-477q-22 0 -31.5 9.5t-9.5 31.5v103q0 22 9.5 31.5t31.5 9.5h739q22 0 31.5 -9.5t9.5 -31.5v-58q0 -48 -20 -78l-283 -389q169 -27 271 -145.5t102 -298.5q0 -104 -39 -195.5t-104.5 -156t-154.5 -101.5t-186 -37q-120 0 -254.5 34.5
t-175.5 66.5q-10 9 -10.5 19.5t8.5 33.5l33 86q7 18 53 4q57 -15 161.5 -32t182.5 -17q88 0 153 75t66 206q1 136 -69 217.5t-183 79.5h-51q-22 0 -31.5 9t-9.5 31z" />
    <glyph glyph-name="four" unicode="4" horiz-adv-x="1183" 
d="M715 535v536h-4l-332 -536h336zM797 1475h135q22 0 31.5 -9.5t9.5 -31.5v-899h129q22 0 31.5 -9.5t9.5 -31.5v-101q0 -22 -9.5 -31.5t-31.5 -9.5h-129v-311q0 -22 -9.5 -31.5t-31.5 -9.5h-176q-22 0 -31.5 9.5t-9.5 31.5v311h-592q-22 0 -31.5 9.5t-9.5 31.5v21
q0 41 22 73l629 955q23 33 64 33z" />
    <glyph glyph-name="five" unicode="5" horiz-adv-x="1077" 
d="M209 739l-12 11q-30 24 -27 69l33 615q2 22 11.5 31.5t31.5 9.5h604q22 0 31.5 -9.5t9.5 -31.5v-103q0 -22 -9.5 -31.5t-31.5 -9.5h-473l-19 -368q98 20 174 20q81 0 161.5 -30.5t148.5 -87.5t110.5 -150t42.5 -207q0 -210 -134 -351t-337 -141q-120 0 -254.5 34.5
t-175.5 66.5q-10 9 -10.5 19.5t8.5 33.5l33 86q7 18 53 4q57 -15 161.5 -32t182.5 -17q85 0 145.5 74t61.5 219q2 119 -54.5 202t-144.5 83q-98 0 -251 -33q-38 -8 -70 24z" />
    <glyph glyph-name="six" unicode="6" horiz-adv-x="1126" 
d="M608 1305q-69 0 -122.5 -28t-96 -90.5t-65 -174t-23.5 -267.5q36 136 112 190t189 54q119 0 206.5 -38.5t138 -108.5t74 -157t23.5 -193q0 -88 -16 -163.5t-52.5 -141.5t-91 -112.5t-135.5 -73t-182 -26.5q-230 0 -357.5 191.5t-127.5 562.5q0 192 38.5 340.5
t108.5 241.5t163 140.5t206 47.5q77 0 166.5 -22t147 -50.5t57.5 -48.5q0 -13 -8 -32l-33 -86q-6 -11 -21 -11l-65 19q-144 37 -234 37zM330 430q1 -64 21 -115.5t52 -82t69.5 -46.5t76.5 -16q250 0 250 328q0 66 -10 116.5t-35 93t-72 65t-115 22.5q-57 0 -99.5 -19.5
t-68.5 -52.5t-42 -81t-22 -99t-5 -113z" />
    <glyph glyph-name="seven" unicode="7" horiz-adv-x="987" 
d="M438 0h-190q-41 0 -29 39l430 1251h-547q-22 0 -31.5 9.5t-9.5 31.5v103q0 22 9.5 31.5t31.5 9.5h783q22 0 31.5 -9.5t9.5 -31.5v-74q0 -27 -21 -78l-413 -1243q-12 -39 -54 -39z" />
    <glyph glyph-name="eight" unicode="8" horiz-adv-x="1175" 
d="M838 428q0 125 -72.5 201t-177.5 76q-104 0 -177 -76t-73 -199q0 -119 72.5 -190.5t177.5 -71.5t177.5 70.5t72.5 189.5zM776 1120q0 83 -55.5 135t-134.5 52q-81 0 -134 -54.5t-53 -132.5q0 -86 55 -148.5t134 -62.5q76 0 132 61t56 150zM82 424q0 134 76 233.5
t221 153.5q-236 95 -236 307q0 176 110.5 278.5t334.5 102.5t334 -101.5t110 -277.5q0 -208 -235 -309q144 -55 220.5 -153.5t76.5 -235.5q0 -215 -133 -331t-373 -116q-246 0 -376 116t-130 333z" />
    <glyph glyph-name="nine" unicode="9" horiz-adv-x="1126" 
d="M518 170q69 0 122.5 28t96 90.5t65 173.5t23.5 267q-36 -137 -111.5 -190.5t-189.5 -53.5q-119 0 -206.5 39t-138 109t-74 157t-23.5 193q0 111 26.5 201.5t81.5 162.5t149 112t220 40q230 0 357.5 -191.5t127.5 -562.5q0 -192 -38.5 -340.5t-108.5 -241.5t-163 -140.5
t-206 -47.5q-77 0 -166.5 22t-146.5 50.5t-57 48.5q0 14 8 33l33 86q5 10 20 10l67 -19q143 -36 232 -36zM776 1044q-1 124 -61.5 192.5t-136.5 68.5q-250 0 -250 -328q0 -66 10 -116t34.5 -93t71.5 -65.5t115 -22.5q64 0 108.5 28.5t67.5 81.5t32.5 114t8.5 140z" />
    <glyph glyph-name="colon" unicode=":" horiz-adv-x="491" 
d="M143 287h205q22 0 31.5 -9.5t9.5 -31.5v-205q0 -22 -9.5 -31.5t-31.5 -9.5h-205q-22 0 -31.5 9.5t-9.5 31.5v205q0 22 9.5 31.5t31.5 9.5zM143 950h205q22 0 31.5 -9.5t9.5 -31.5v-204q0 -22 -9.5 -31.5t-31.5 -9.5h-205q-22 0 -31.5 9.5t-9.5 31.5v204q0 22 9.5 31.5
t31.5 9.5z" />
    <glyph glyph-name="semicolon" unicode=";" horiz-adv-x="491" 
d="M143 950h205q22 0 31.5 -9.5t9.5 -31.5v-204q0 -22 -9.5 -31.5t-31.5 -9.5h-205q-22 0 -31.5 9.5t-9.5 31.5v204q0 22 9.5 31.5t31.5 9.5zM217 0h-74q-22 0 -31.5 9.5t-9.5 31.5v205q0 22 9.5 31.5t31.5 9.5h205q22 0 31.5 -9.5t9.5 -31.5v-236q0 -93 -33 -181t-67 -126
q-20 -24 -53 -2l-66 43q-18 12 -4 53q2 7 13 35.5t18 48.5t13.5 54t6.5 65z" />
    <glyph glyph-name="less" unicode="&#x3c;" horiz-adv-x="1241" 
d="M1102 1069l-725 -326l725 -325q37 -16 37 -58v-110q0 -22 -8.5 -28t-28.5 3l-963 432q-37 16 -37 58v57q0 41 37 57l963 433q20 9 28.5 3t8.5 -28v-111q0 -41 -37 -57z" />
    <glyph glyph-name="equal" unicode="=" horiz-adv-x="995" 
d="M82 897v90q0 22 9.5 31.5t31.5 9.5h749q22 0 31.5 -9.5t9.5 -31.5v-90q0 -22 -9.5 -31.5t-31.5 -9.5h-749q-22 0 -31.5 9.5t-9.5 31.5zM82 500v90q0 22 9.5 31.5t31.5 9.5h749q22 0 31.5 -9.5t9.5 -31.5v-90q0 -22 -9.5 -31.5t-31.5 -9.5h-749q-22 0 -31.5 9.5t-9.5 31.5
z" />
    <glyph glyph-name="greater" unicode="&#x3e;" horiz-adv-x="1241" 
d="M864 743l-725 326q-37 16 -37 57v111q0 22 8.5 28t28.5 -3l963 -433q37 -16 37 -57v-57q0 -42 -37 -58l-963 -432q-20 -9 -28.5 -3t-8.5 28v110q0 42 37 58z" />
    <glyph glyph-name="question" unicode="?" horiz-adv-x="1040" 
d="M598 451h-176q-22 0 -31.5 9.5t-9.5 31.5v28q0 84 37 147t133 173q17 19 40.5 53t53 102.5t29.5 126.5q0 78 -48.5 130.5t-146.5 52.5q-76 0 -301 -50q-28 -6 -39 -5.5t-14 10.5l-33 86q-9 25 -8.5 34.5t10.5 18.5q37 30 168 65t250 35q84 0 156 -20.5t132.5 -63.5
t97.5 -117.5t42 -173.5q9 -183 -109 -319q-2 -3 -36.5 -35.5t-67 -66.5t-60.5 -86t-28 -97v-28q0 -22 -9.5 -31.5t-31.5 -9.5zM598 246h-176q-22 0 -31.5 -9.5t-9.5 -31.5v-164q0 -22 9.5 -31.5t31.5 -9.5h176q22 0 31.5 9.5t9.5 31.5v164q0 22 -9.5 31.5t-31.5 9.5z" />
    <glyph glyph-name="at" unicode="@" horiz-adv-x="1671" 
d="M1006 537q0 129 -40 184t-124 55q-49 0 -79.5 -19t-48.5 -73t-18 -149q0 -140 36 -193t110 -53q83 0 123.5 58.5t40.5 189.5zM1032 207l-26 63h-5q-41 -85 -86.5 -119t-126.5 -34q-68 0 -126 22t-106.5 69t-76.5 130.5t-28 196.5q0 112 28 195t77.5 129t107.5 67.5
t127 21.5q76 0 122 -32.5t88 -120.5h5l20 86q5 23 12.5 32t28.5 9h102q22 0 31.5 -9.5t9.5 -31.5v-574q0 -24 37 -24q36 0 60 19t36 57.5t16.5 82t4.5 107.5q0 225 -50.5 355.5t-149 183.5t-263.5 53q-289 0 -441.5 -148.5t-152.5 -435.5q0 -154 44.5 -269t127 -185
t192.5 -104t249 -34q160 0 436 49q34 6 42 5.5t11 -9.5l33 -76q12 -28 11 -41t-13 -22q-43 -33 -210.5 -66.5t-328.5 -33.5q-177 0 -324 47.5t-258.5 140.5t-174 243.5t-62.5 344.5q0 245 99 414t279.5 251t432.5 82q170 0 296 -39t217 -124t137 -225.5t46 -336.5
q0 -112 -16 -190.5t-55.5 -139.5t-111.5 -90.5t-179 -29.5q-40 0 -71.5 4t-51 11t-33.5 15t-21 18t-10.5 16.5t-5.5 14.5t-2 9z" />
    <glyph glyph-name="A" unicode="A" horiz-adv-x="1376" 
d="M1325 0h-195q-41 0 -55 39l-127 323h-581l-127 -323q-14 -39 -56 -39h-133q-42 0 -24 37l559 1401q15 37 57 37h90q43 0 58 -37l559 -1401q18 -37 -25 -37zM881 535l-183 530l-41 154l-39 -154l-184 -530h447z" />
    <glyph glyph-name="B" unicode="B" 
d="M604 0h-461q-22 0 -31.5 9.5t-9.5 31.5v1393q0 22 9.5 31.5t31.5 9.5h303q242 0 380.5 -101.5t138.5 -288.5q0 -215 -195 -307v-4q146 -23 224.5 -118t78.5 -236q0 -179 -135 -299.5t-334 -120.5zM360 838h123q95 0 159.5 65.5t64.5 177.5q0 104 -65.5 163t-197.5 59h-84
v-465zM360 172h177q80 0 137 20.5t86.5 57t42 77.5t12.5 91q0 48 -14 90t-44.5 79t-86.5 58t-133 21h-177v-494z" />
    <glyph glyph-name="C" unicode="C" horiz-adv-x="1308" 
d="M1184 215l33 -76q9 -28 8.5 -40t-11.5 -23q-46 -33 -167 -67t-242 -34q-155 0 -285.5 48t-228.5 140.5t-153.5 239.5t-55.5 334t55 334t153 239.5t228.5 140.5t286.5 48q122 0 242.5 -33.5t166.5 -66.5q11 -9 11.5 -19.5t-8.5 -33.5l-33 -86q-12 -17 -54 -5
q-197 50 -325 50q-97 0 -176 -31t-142.5 -96t-99 -177.5t-35.5 -263.5t35.5 -263.5t99.5 -177t143 -95.5t175 -31q132 0 325 49q41 14 54 -4z" />
    <glyph glyph-name="D" unicode="D" horiz-adv-x="1320" 
d="M565 0h-422q-22 0 -31.5 9.5t-9.5 31.5v1393q0 22 9.5 31.5t31.5 9.5h471q124 0 238.5 -55t199.5 -150.5t136 -233t51 -293.5q0 -209 -90.5 -379t-244.5 -266t-339 -98zM360 184h203q116 0 209.5 74t145.5 204.5t51 291.5q-1 116 -34.5 217t-90.5 170.5t-134 109
t-163 39.5h-187v-1106z" />
    <glyph glyph-name="E" unicode="E" horiz-adv-x="989" 
d="M866 0h-723q-22 0 -31.5 9.5t-9.5 31.5v1393q0 22 9.5 31.5t31.5 9.5h723q22 0 31.5 -9.5t9.5 -31.5v-103q0 -22 -9.5 -31.5t-31.5 -9.5h-506v-452h404q22 0 31.5 -9.5t9.5 -31.5v-103q0 -22 -9.5 -31.5t-31.5 -9.5h-404v-469h506q22 0 31.5 -9.5t9.5 -31.5v-102
q0 -22 -9.5 -31.5t-31.5 -9.5z" />
    <glyph glyph-name="F" unicode="F" horiz-adv-x="989" 
d="M319 0h-176q-22 0 -31.5 9.5t-9.5 31.5v1393q0 22 9.5 31.5t31.5 9.5h723q22 0 31.5 -9.5t9.5 -31.5v-103q0 -22 -9.5 -31.5t-31.5 -9.5h-506v-452h404q22 0 31.5 -9.5t9.5 -31.5v-103q0 -22 -9.5 -31.5t-31.5 -9.5h-404v-612q0 -22 -9.5 -31.5t-31.5 -9.5z" />
    <glyph glyph-name="G" unicode="G" horiz-adv-x="1329" 
d="M967 172v481h-181q-22 0 -31.5 9.5t-9.5 31.5v103q0 22 9.5 31.5t31.5 9.5h398q22 0 31.5 -9.5t9.5 -31.5v-693q2 -17 -11 -28q-46 -33 -167 -67t-242 -34q-155 0 -285.5 48t-228.5 140.5t-153.5 239.5t-55.5 334t55 334t153 239.5t228.5 140.5t286.5 48
q122 0 242.5 -33.5t166.5 -66.5q11 -9 11.5 -19.5t-8.5 -33.5l-33 -76q-12 -17 -54 -4q-193 49 -325 49q-97 0 -176 -31.5t-142.5 -97.5t-99 -180.5t-35.5 -268.5q0 -124 23.5 -222.5t64.5 -164t99.5 -109t124 -62.5t141.5 -19q85 0 162 12z" />
    <glyph glyph-name="H" unicode="H" horiz-adv-x="1247" 
d="M1104 0h-176q-22 0 -31.5 9.5t-9.5 31.5v623h-527v-623q0 -22 -9.5 -31.5t-31.5 -9.5h-176q-22 0 -31.5 9.5t-9.5 31.5v1393q0 22 9.5 31.5t31.5 9.5h176q22 0 31.5 -9.5t9.5 -31.5v-586h527v586q0 22 9.5 31.5t31.5 9.5h176q22 0 31.5 -9.5t9.5 -31.5v-1393
q0 -22 -9.5 -31.5t-31.5 -9.5z" />
    <glyph glyph-name="I" unicode="I" horiz-adv-x="462" 
d="M319 0h-176q-22 0 -31.5 9.5t-9.5 31.5v1393q0 22 9.5 31.5t31.5 9.5h176q22 0 31.5 -9.5t9.5 -31.5v-1393q0 -22 -9.5 -31.5t-31.5 -9.5z" />
    <glyph glyph-name="J" unicode="J" horiz-adv-x="729" 
d="M20 45v98q0 22 9.5 31.5t31.5 9.5h27q157 0 229 86.5t72 302.5v861q0 22 9.5 31.5t31.5 9.5h176q22 0 31.5 -9.5t9.5 -31.5v-904q-3 -255 -139.5 -392.5t-372.5 -137.5l-78 2q-20 1 -28.5 11t-8.5 32z" />
    <glyph glyph-name="K" unicode="K" horiz-adv-x="1304" 
d="M1161 0h-241q-43 0 -66 33l-494 637v-629q0 -22 -9.5 -31.5t-31.5 -9.5h-176q-22 0 -31.5 9.5t-9.5 31.5v1393q0 22 9.5 31.5t31.5 9.5h176q22 0 31.5 -9.5t9.5 -31.5v-631l508 639q23 33 66 33h211q21 0 24.5 -8t-8.5 -25l-571 -686l588 -723q12 -17 8.5 -25t-25.5 -8z
" />
    <glyph glyph-name="L" unicode="L" horiz-adv-x="948" 
d="M907 143v-102q0 -22 -9.5 -31.5t-31.5 -9.5h-723q-22 0 -31.5 9.5t-9.5 31.5v1393q0 22 9.5 31.5t31.5 9.5h176q22 0 31.5 -9.5t9.5 -31.5v-1250h506q22 0 31.5 -9.5t9.5 -31.5z" />
    <glyph glyph-name="M" unicode="M" horiz-adv-x="1710" 
d="M1567 0h-176q-22 0 -31.5 9.5t-9.5 31.5v573l20 412h-4l-414 -989q-16 -37 -59 -37h-133q-42 0 -62 35l-395 991h-4l20 -412v-573q0 -22 -9 -31.5t-31 -9.5h-136q-22 0 -31.5 9.5t-9.5 31.5v1393q0 22 9.5 31.5t31.5 9.5h187q41 0 61 -35l461 -1118l487 1116q19 37 62 37
h166q22 0 31.5 -9.5t9.5 -31.5v-1393q0 -22 -9.5 -31.5t-31.5 -9.5z" />
    <glyph glyph-name="N" unicode="N" horiz-adv-x="1302" 
d="M1159 0h-143q-47 0 -68 33l-624 999h-5l21 -418v-573q0 -22 -9.5 -31.5t-31.5 -9.5h-156q-22 0 -31.5 9.5t-9.5 31.5v1393q0 22 9.5 31.5t31.5 9.5h144q46 0 67 -33l625 -1000h4l-20 418v574q0 22 9.5 31.5t31.5 9.5h155q22 0 31.5 -9.5t9.5 -31.5v-1393
q0 -22 -9.5 -31.5t-31.5 -9.5z" />
    <glyph glyph-name="O" unicode="O" horiz-adv-x="1609" 
d="M805 -25q-155 0 -285.5 48t-228.5 140.5t-153.5 239.5t-55.5 334t55 334t153 239.5t228.5 140.5t286.5 48t286.5 -48t228.5 -140.5t153 -239.5t55 -334t-55.5 -334t-153.5 -239.5t-228.5 -140.5t-285.5 -48zM805 170q76 0 141.5 18.5t123.5 61.5t99 107.5t64.5 161
t23.5 218.5t-23.5 218.5t-64 161.5t-98.5 107.5t-123.5 61.5t-142.5 19q-97 0 -176 -31t-142.5 -96t-99 -177.5t-35.5 -263.5t35.5 -263.5t99.5 -177t143 -95.5t175 -31z" />
    <glyph glyph-name="P" unicode="P" horiz-adv-x="1140" 
d="M319 0h-176q-22 0 -31.5 9.5t-9.5 31.5v1393q0 22 9.5 31.5t31.5 9.5h389q151 0 272.5 -68.5t188 -186t66.5 -259.5q0 -104 -39.5 -198t-108.5 -163.5t-167.5 -110t-211.5 -40.5h-172v-408q0 -22 -9.5 -31.5t-31.5 -9.5zM360 631h132q152 0 230.5 82.5t78.5 247.5
q0 328 -309 331h-132v-661z" />
    <glyph glyph-name="Q" unicode="Q" horiz-adv-x="1609" 
d="M1464 -217h-225q-41 0 -61 35l-123 192q-119 -35 -250 -35q-155 0 -285.5 48t-228.5 140.5t-153.5 239.5t-55.5 334t55 334t153 239.5t228.5 140.5t286.5 48t286.5 -48t228.5 -140.5t153 -239.5t55 -334q0 -411 -256 -614l209 -307q13 -17 10 -25t-27 -8zM940 186
l-203 306q-13 17 -10 24.5t27 7.5h225q41 0 61 -35l103 -167q114 142 114 415q0 122 -23.5 218.5t-64 161.5t-98.5 107.5t-123.5 61.5t-142.5 19q-97 0 -176 -31t-142.5 -96t-99 -177.5t-35.5 -263.5t35.5 -263.5t99.5 -177t143 -95.5t175 -31q78 0 135 16z" />
    <glyph glyph-name="R" unicode="R" horiz-adv-x="1161" 
d="M1067 0h-225q-42 0 -62 35l-260 414h-160v-408q0 -22 -9.5 -31.5t-31.5 -9.5h-176q-22 0 -31.5 9.5t-9.5 31.5v1393q0 22 9.5 31.5t31.5 9.5h389q151 0 272.5 -68.5t188 -186t66.5 -259.5q0 -150 -78.5 -274t-212.5 -187l315 -467q13 -17 10.5 -25t-26.5 -8zM360 631h132
q152 0 230.5 82.5t78.5 247.5q0 328 -309 331h-132v-661z" />
    <glyph glyph-name="S" unicode="S" horiz-adv-x="1136" 
d="M627 575l-199 78q-336 132 -336 416q0 130 68 229.5t180.5 150t249.5 50.5q122 0 254 -35.5t168 -64.5q10 -7 10.5 -17.5t-8.5 -35.5l-33 -86q-7 -19 -53 -5q-189 50 -326 50q-78 0 -134.5 -20t-84.5 -53t-40.5 -67t-12.5 -71q0 -61 39 -108.5t137 -84.5l196 -74
q172 -64 262.5 -183t90.5 -261q0 -186 -147 -297t-384 -111q-120 0 -254.5 34.5t-175.5 66.5q-10 9 -10.5 19.5t8.5 33.5l33 86q7 18 53 4q57 -15 161.5 -32t182.5 -17q133 0 214 52.5t81 137.5q0 69 -53.5 125.5t-136.5 89.5z" />
    <glyph glyph-name="T" unicode="T" horiz-adv-x="983" 
d="M580 0h-177q-22 0 -31.5 9.5t-9.5 31.5v1249h-301q-22 0 -31.5 9.5t-9.5 31.5v103q0 22 9.5 31.5t31.5 9.5h861q22 0 31.5 -9.5t9.5 -31.5v-103q0 -22 -9.5 -31.5t-31.5 -9.5h-301v-1249q0 -22 -9.5 -31.5t-31.5 -9.5z" />
    <glyph glyph-name="U" unicode="U" horiz-adv-x="1302" 
d="M1004 582v852q0 22 9 31.5t31 9.5h115q22 0 31.5 -9.5t9.5 -31.5v-910q0 -239 -155.5 -394t-397.5 -155q-234 0 -389.5 157t-155.5 392v910q0 22 9.5 31.5t31.5 9.5h176q22 0 31.5 -9.5t9.5 -31.5v-852q0 -181 77.5 -301.5t213.5 -120.5q165 0 259 119t94 303z" />
    <glyph glyph-name="V" unicode="V" horiz-adv-x="1273" 
d="M672 0h-90q-43 0 -58 37l-497 1401q-18 37 24 37h195q41 0 55 -39l215 -660l100 -366l41 -154l39 154l82 284l256 742q14 39 56 39h133q42 0 24 -37l-518 -1401q-15 -37 -57 -37z" />
    <glyph glyph-name="W" unicode="W" horiz-adv-x="1785" 
d="M1286 0h-131q-49 0 -57 37l-209 995l-221 -995q-8 -37 -58 -37h-131q-46 0 -57 37l-395 1401q-18 37 24 37h195q47 0 55 -39l197 -822l57 -358l57 358l197 822q9 39 51 39h127q42 0 51 -39l183 -822l51 -358l63 358l211 822q14 39 56 39h133q42 0 24 -37l-416 -1401
q-12 -37 -57 -37z" />
    <glyph glyph-name="X" unicode="X" horiz-adv-x="1202" 
d="M1145 0h-193q-49 0 -75 39l-291 510l-305 -510q-22 -39 -78 -39h-146q-32 0 -35 10t13 35l420 709l-398 676q-14 25 -9.5 35t32.5 10h192q56 0 76 -39l260 -469l281 469q22 39 80 39h143q33 0 37 -10t-14 -35l-398 -656l432 -729q16 -23 11 -34t-35 -11z" />
    <glyph glyph-name="Y" unicode="Y" horiz-adv-x="1286" 
d="M721 0h-176q-22 0 -31.5 9.5t-9.5 31.5v498l-475 901q-11 19 -6.5 27t26.5 8h219q42 0 62 -35l327 -664l353 662q16 37 59 37h168q22 0 27 -8.5t-4 -28.5l-498 -899v-498q0 -22 -9.5 -31.5t-31.5 -9.5z" />
    <glyph glyph-name="Z" unicode="Z" horiz-adv-x="995" 
d="M934 0h-873q-22 0 -31.5 9.5t-9.5 31.5v74q0 37 21 78l621 1097h-588q-22 0 -31.5 9.5t-9.5 31.5v103q0 22 9.5 31.5t31.5 9.5h844q22 0 31 -9.5t9 -31.5v-74q0 -39 -20 -78l-619 -1098h615q22 0 31.5 -9.5t9.5 -31.5v-102q0 -22 -9.5 -31.5t-31.5 -9.5z" />
    <glyph glyph-name="bracketleft" unicode="[" horiz-adv-x="559" 
d="M457 -307h-314q-22 0 -31.5 9.5t-9.5 31.5v2007q0 22 9.5 31.5t31.5 9.5h314q22 0 31.5 -9.5t9.5 -31.5v-103q0 -22 -9.5 -31.5t-31.5 -9.5h-97v-1720h97q22 0 31.5 -9.5t9.5 -31.5v-102q0 -22 -9.5 -31.5t-31.5 -9.5z" />
    <glyph glyph-name="backslash" unicode="\" horiz-adv-x="897" 
d="M850 -2l-92 -43q-39 -17 -56 20l-675 1446q-17 39 20 56l92 43q39 17 56 -21l675 -1446q17 -39 -20 -55z" />
    <glyph glyph-name="bracketright" unicode="]" horiz-adv-x="559" 
d="M416 -307h-314q-22 0 -31.5 9.5t-9.5 31.5v102q0 22 9.5 31.5t31.5 9.5h97v1720h-97q-22 0 -31.5 9.5t-9.5 31.5v103q0 22 9.5 31.5t31.5 9.5h314q22 0 31.5 -9.5t9.5 -31.5v-2007q0 -22 -9.5 -31.5t-31.5 -9.5z" />
    <glyph glyph-name="asciicircum" unicode="^" horiz-adv-x="1032" 
d="M451 1516h131q34 0 57 -37l367 -582q18 -37 -25 -37h-147q-21 0 -31.5 8.5t-22.5 30.5l-264 473l-264 -473q-12 -22 -22 -30.5t-31 -8.5h-148q-42 0 -24 37l366 582q23 37 58 37z" />
    <glyph glyph-name="underscore" unicode="_" horiz-adv-x="1372" 
d="M1331 -512h-1290q-22 0 -31.5 9.5t-9.5 31.5v102q0 22 9.5 31.5t31.5 9.5h1290q22 0 31.5 -9.5t9.5 -31.5v-102q0 -22 -9.5 -31.5t-31.5 -9.5z" />
    <glyph glyph-name="grave" unicode="`" horiz-adv-x="612" 
d="M379 1481l123 -201q10 -19 5.5 -27t-26.5 -8h-63q-39 0 -72 29l-227 213q-33 29 10 29h186q42 0 64 -35z" />
    <glyph glyph-name="a" unicode="a" horiz-adv-x="1052" 
d="M930 0h-103q-21 0 -28.5 9t-12.5 32l-20 84h-4q-40 -73 -116 -111.5t-179 -38.5q-79 0 -147.5 23t-122 67.5t-84.5 116.5t-31 164q0 77 22.5 136t60.5 96t94 60.5t116.5 32.5t134.5 9h211q-3 30 -10.5 58.5t-24 63t-39.5 59.5t-61.5 42t-87.5 17q-67 0 -232 -52
q-41 -12 -53 4l-43 66q-19 29 2 53q34 37 136.5 69t217.5 32q103 0 182 -29.5t128 -78.5t80 -120.5t43 -148.5t12 -170v-504q0 -22 -9.5 -31.5t-31.5 -9.5zM725 449v59h-215q-82 0 -131 -41.5t-49 -114.5q0 -26 6 -53t20.5 -54.5t36 -49t55.5 -35t76 -13.5q96 0 148.5 74.5
t52.5 227.5z" />
    <glyph glyph-name="b" unicode="b" horiz-adv-x="1189" 
d="M246 0h-103q-22 0 -31.5 9.5t-9.5 31.5v1434q0 22 9.5 31.5t31.5 9.5h164q22 0 31.5 -9.5t9.5 -31.5v-535h4q98 150 316 150q74 0 137.5 -17t120 -58.5t96.5 -104.5t63 -160.5t23 -221.5q0 -123 -23 -219.5t-62.5 -158.5t-95.5 -102.5t-118 -57.5t-135 -17
q-241 0 -363 154h-4l-20 -86q-5 -23 -12.5 -32t-28.5 -9zM631 145q59 0 99.5 16.5t71.5 58.5t45.5 118t14.5 190q0 94 -10.5 163t-29 112.5t-48 69t-63 35.5t-78.5 10q-140 0 -212.5 -93.5t-72.5 -296.5q0 -199 71.5 -291t211.5 -92z" />
    <glyph glyph-name="c" unicode="c" horiz-adv-x="980" 
d="M844 195l43 -66q19 -29 -2 -53q-33 -38 -121 -69.5t-207 -31.5q-475 0 -475 560q0 557 496 557q93 0 181 -33.5t126 -67.5q24 -20 2 -53l-43 -66q-13 -18 -53 -4q-7 3 -35 14t-49 18t-54.5 13.5t-64.5 6.5q-73 0 -125.5 -31.5t-81 -88t-41 -122.5t-12.5 -146
q0 -82 13 -148t41 -121t80 -85.5t124 -30.5q23 0 44.5 2.5t46 9.5t36.5 11t41.5 15.5t36.5 13.5q40 14 53 -4z" />
    <glyph glyph-name="d" unicode="d" horiz-adv-x="1189" 
d="M1047 0h-103q-21 0 -28.5 9t-12.5 32l-20 86h-4q-122 -154 -363 -154q-73 0 -135 17t-118 57.5t-95.5 102.5t-62.5 158.5t-23 219.5q0 124 23 221.5t63 160.5t96.5 104.5t120 58.5t137.5 17q218 0 316 -150h4v535q0 22 9.5 31.5t31.5 9.5h164q22 0 31 -9.5t9 -31.5v-1434
q0 -22 -9 -31.5t-31 -9.5zM559 145q140 0 211.5 92t71.5 291q0 203 -72.5 296.5t-212.5 93.5q-45 0 -78.5 -10t-63 -35.5t-48 -69t-29 -112.5t-10.5 -163q0 -114 14.5 -190t45.5 -118t71.5 -58.5t99.5 -16.5z" />
    <glyph glyph-name="e" unicode="e" horiz-adv-x="1056" 
d="M885 195l43 -66q19 -29 -2 -53q-32 -37 -136.5 -69t-226.5 -32q-110 0 -195 30t-138.5 79.5t-87 121.5t-47 148.5t-13.5 167.5q0 122 25 222.5t77.5 180t142 123.5t210.5 44q94 0 173 -27.5t138.5 -81t93 -138.5t33.5 -194q0 -118 -47.5 -161.5t-175.5 -43.5h-420
q6 -68 22 -120t45 -93.5t77 -63.5t114 -22q37 0 82 8.5t74 17t85 26.5q42 12 54 -4zM332 618h315q49 0 64.5 12.5t15.5 57.5q0 94 -50.5 163t-129.5 69q-193 0 -215 -302z" />
    <glyph glyph-name="f" unicode="f" horiz-adv-x="604" 
d="M414 903v-862q0 -22 -9.5 -31.5t-31.5 -9.5h-164q-22 0 -31.5 9.5t-9.5 31.5v862h-107q-22 0 -31.5 9.5t-9.5 31.5v80q0 22 9.5 31.5t31.5 9.5h107v131q0 320 283 320h75q22 0 31.5 -9.5t9.5 -31.5v-91q0 -22 -9.5 -31.5t-31.5 -9.5h-14q-40 0 -69 -35.5t-29 -105.5v-137
h129q22 0 31.5 -9.5t9.5 -31.5v-80q0 -22 -9.5 -31.5t-31.5 -9.5h-129z" />
    <glyph glyph-name="g" unicode="g" horiz-adv-x="1189" 
d="M842 39v86h-4q-98 -150 -316 -150q-74 0 -137.5 17t-120 58.5t-96.5 104.5t-63 160.5t-23 221.5q0 123 23 219.5t62.5 158.5t95.5 102.5t118 57.5t135 17q241 0 363 -154h4l20 86q5 23 12.5 32t28.5 9h103q22 0 31 -9.5t9 -31.5v-963q0 -241 -135 -385.5t-354 -144.5
q-121 0 -255 34t-175 66q-10 9 -10.5 20t8.5 34l33 86q7 18 53 4q57 -15 161.5 -32t182.5 -17q110 0 178 86.5t68 226.5zM557 147q140 0 212.5 93.5t72.5 296.5q0 199 -71.5 291t-211.5 92q-59 0 -99.5 -16.5t-71.5 -58.5t-45.5 -118t-14.5 -190q0 -94 10.5 -163t29 -112.5
t48 -69t63 -35.5t78.5 -10z" />
    <glyph glyph-name="h" unicode="h" horiz-adv-x="1128" 
d="M985 0h-164q-22 0 -31.5 9.5t-9.5 31.5v487q0 117 -12.5 195t-38 120t-58 58.5t-79.5 16.5q-121 0 -182.5 -78t-61.5 -250v-549q0 -22 -9.5 -31.5t-31.5 -9.5h-164q-22 0 -31.5 9.5t-9.5 31.5v1434q0 22 9.5 31.5t31.5 9.5h164q22 0 31.5 -9.5t9.5 -31.5v-535h4
q83 150 275 150q68 0 125 -17t108.5 -58.5t87.5 -104.5t57 -160.5t21 -221.5v-487q0 -22 -9.5 -31.5t-31.5 -9.5z" />
    <glyph glyph-name="i" unicode="i" horiz-adv-x="450" 
d="M307 1270h-164q-22 0 -31.5 9.5t-9.5 31.5v164q0 22 9.5 31.5t31.5 9.5h164q22 0 31.5 -9.5t9.5 -31.5v-164q0 -22 -9.5 -31.5t-31.5 -9.5zM307 0h-164q-22 0 -31.5 9.5t-9.5 31.5v983q0 22 9.5 31.5t31.5 9.5h164q22 0 31.5 -9.5t9.5 -31.5v-983q0 -22 -9.5 -31.5
t-31.5 -9.5z" />
    <glyph glyph-name="j" unicode="j" horiz-adv-x="450" 
d="M307 1270h-164q-22 0 -31.5 9.5t-9.5 31.5v164q0 22 9.5 31.5t31.5 9.5h164q22 0 31.5 -9.5t9.5 -31.5v-164q0 -22 -9.5 -31.5t-31.5 -9.5zM66 -451h-35q-22 0 -31.5 9.5t-9.5 31.5v91q0 22 9.5 31t31.5 9h14q23 0 40 41t17 121v1141q0 22 9.5 31.5t31.5 9.5h164
q22 0 31.5 -9.5t9.5 -31.5v-1155q0 -320 -282 -320z" />
    <glyph glyph-name="k" unicode="k" horiz-adv-x="997" 
d="M948 0h-200q-43 0 -66 33l-336 432v-424q0 -22 -9.5 -31.5t-31.5 -9.5h-162q-22 0 -31.5 9.5t-9.5 31.5v1434q0 22 9.5 31.5t31.5 9.5h162q22 0 31.5 -9.5t9.5 -31.5v-877l344 434q23 33 66 33h170q22 0 26 -9t-10 -24l-407 -481l430 -518q14 -15 9.5 -24t-26.5 -9z" />
    <glyph glyph-name="l" unicode="l" horiz-adv-x="462" 
d="M420 0h-35q-283 0 -283 319v1156q0 22 9.5 31.5t31.5 9.5h164q22 0 31.5 -9.5t9.5 -31.5v-1141q0 -80 17.5 -121t40.5 -41h14q22 0 31.5 -9.5t9.5 -31.5v-90q0 -22 -9.5 -31.5t-31.5 -9.5z" />
    <glyph glyph-name="m" unicode="m" horiz-adv-x="1581" 
d="M1440 0h-168q-39 0 -39 41v577q0 84 -13 148.5t-47 108t-86 43.5q-171 0 -174 -306v-571q0 -41 -39 -41h-167q-39 0 -39 41v577q0 84 -13 148.5t-47 108t-86 43.5q-174 0 -174 -320v-557q0 -22 -9.5 -31.5t-31.5 -9.5h-164q-22 0 -31.5 9.5t-9.5 31.5v983q0 22 9.5 31.5
t31.5 9.5h103q21 0 28.5 -9t12.5 -32l20 -84h4q29 69 95.5 109.5t136.5 40.5q96 0 175 -43.5t128 -124.5q40 77 113 122.5t149 45.5q158 0 264.5 -108t106.5 -294v-647q0 -41 -39 -41z" />
    <glyph glyph-name="n" unicode="n" horiz-adv-x="1097" 
d="M956 0h-168q-38 0 -38 41v577q0 62 -9.5 114t-30.5 95t-58.5 67t-88.5 24q-215 0 -215 -320v-557q0 -22 -9.5 -31.5t-31.5 -9.5h-164q-22 0 -31.5 9.5t-9.5 31.5v983q0 22 9.5 31.5t31.5 9.5h103q21 0 28.5 -9t12.5 -32l20 -84h4q35 69 113 109.5t160 40.5
q177 0 294 -108t117 -294v-647q0 -41 -39 -41z" />
    <glyph glyph-name="o" unicode="o" 
d="M578 -25q-115 0 -202.5 29t-142.5 78t-89.5 121.5t-48 151t-13.5 175.5t13.5 176.5t48 152.5t89.5 123.5t142.5 80t202.5 29.5t202.5 -29.5t142 -79.5t89 -123.5t48 -152.5t13.5 -175q0 -97 -13.5 -176t-48 -151.5t-89.5 -122t-142 -78.5t-202 -29zM578 160
q60 0 104.5 19.5t72 52t44 81.5t22.5 101t6 118q0 65 -6 117.5t-22.5 102t-44 82.5t-72 53t-104.5 20q-74 0 -125 -29t-77.5 -83.5t-37 -117t-10.5 -145.5q0 -66 6 -118t23 -101t44.5 -81.5t72 -52t104.5 -19.5z" />
    <glyph glyph-name="p" unicode="p" horiz-adv-x="1189" 
d="M307 -451h-164q-22 0 -31.5 9.5t-9.5 31.5v1434q0 22 9.5 31.5t31.5 9.5h103q21 0 28.5 -9t12.5 -32l20 -86h4q122 154 363 154q73 0 135 -17t118 -57.5t95.5 -102.5t62.5 -158.5t23 -219.5q0 -124 -23 -221.5t-63 -160.5t-96.5 -104.5t-120 -58.5t-137.5 -17
q-218 0 -316 150h-4v-535q0 -22 -9.5 -31.5t-31.5 -9.5zM633 147q45 0 78.5 10t63 35.5t48 69t29 112.5t10.5 163q0 114 -14.5 190t-45.5 118t-71.5 58.5t-99.5 16.5q-140 0 -211.5 -92t-71.5 -291q0 -203 72.5 -296.5t212.5 -93.5z" />
    <glyph glyph-name="q" unicode="q" horiz-adv-x="1189" 
d="M1047 -451h-164q-22 0 -31.5 9.5t-9.5 31.5v535h-4q-98 -150 -316 -150q-74 0 -137.5 17t-120 58.5t-96.5 104.5t-63 160.5t-23 221.5q0 123 23 219.5t62.5 158.5t95.5 102.5t118 57.5t135 17q241 0 363 -154h4l20 86q5 23 12.5 32t28.5 9h103q22 0 31 -9.5t9 -31.5
v-1434q0 -22 -9 -31.5t-31 -9.5zM557 147q140 0 212.5 93.5t72.5 296.5q0 199 -71.5 291t-211.5 92q-59 0 -99.5 -16.5t-71.5 -58.5t-45.5 -118t-14.5 -190q0 -94 10.5 -163t29 -112.5t48 -69t63 -35.5t78.5 -10z" />
    <glyph glyph-name="r" unicode="r" horiz-adv-x="647" 
d="M307 0h-164q-22 0 -31.5 9.5t-9.5 31.5v983q0 22 9.5 31.5t31.5 9.5h103q9 0 14 -1t9.5 -6t6 -7.5t5.5 -12.5t6 -14l20 -78h4q25 39 55.5 65.5t53.5 39.5t60.5 20t53.5 8t56 2q23 0 30 -4.5t7 -25.5v-154q0 -19 -8.5 -27t-18 -8.5t-29 2t-28.5 2.5q-95 0 -145 -50.5
t-50 -147.5v-627q0 -22 -9.5 -31.5t-31.5 -9.5z" />
    <glyph glyph-name="s" unicode="s" horiz-adv-x="970" 
d="M496 412l-177 53q-111 34 -164 112t-53 185q0 146 100.5 238t282.5 92q121 0 220 -31.5t137 -69.5q21 -21 0 -53l-43 -66q-9 -19 -54 -4q-143 52 -237 52q-87 0 -129.5 -35.5t-42.5 -98.5q0 -78 80 -100l239 -70q129 -37 181.5 -110.5t52.5 -198.5q0 -106 -60.5 -183
t-155 -113t-210.5 -36q-126 0 -232.5 30t-136.5 71q-19 27 -2 53l43 66q13 17 53 4q154 -52 263 -52q204 0 204 138q0 46 -34 72.5t-125 54.5z" />
    <glyph glyph-name="t" unicode="t" horiz-adv-x="645" 
d="M526 0h-75q-283 0 -283 319v584h-107q-22 0 -31.5 9.5t-9.5 31.5v80q0 22 9.5 31.5t31.5 9.5h107v158q0 5 0.5 9t2 7t2 5t3.5 4.5t4.5 3.5t6 3t6.5 3t8 3t8 3l164 61q19 7 30 -5.5t11 -35.5v-219h129q22 0 31.5 -9.5t9.5 -31.5v-80q0 -22 -9.5 -31.5t-31.5 -9.5h-129
v-590q0 -70 29 -105.5t69 -35.5h14q22 0 31.5 -9.5t9.5 -31.5v-90q0 -22 -9.5 -31.5t-31.5 -9.5z" />
    <glyph glyph-name="u" unicode="u" horiz-adv-x="1097" 
d="M954 0h-102q-21 0 -28.5 9t-12.5 32l-20 84h-5q-35 -69 -112.5 -109.5t-159.5 -40.5q-177 0 -294.5 108t-117.5 294v647q0 41 39 41h168q39 0 39 -41v-578q0 -85 16.5 -149t60 -107t110.5 -43q215 0 215 320v557q0 22 9.5 31.5t31.5 9.5h163q22 0 31.5 -9.5t9.5 -31.5
v-983q0 -22 -9.5 -31.5t-31.5 -9.5z" />
    <glyph glyph-name="v" unicode="v" horiz-adv-x="1032" 
d="M582 0h-131q-40 0 -58 37l-366 991q-18 37 24 37h189q41 0 53 -39l223 -780l223 780q9 39 54 39h188q43 0 25 -37l-367 -991q-18 -37 -57 -37z" />
    <glyph glyph-name="w" unicode="w" horiz-adv-x="1605" 
d="M1196 0h-131q-39 0 -57 37l-205 663l-205 -663q-18 -37 -57 -37h-131q-40 0 -58 37l-325 991q-18 37 24 37h189q41 0 53 -39l182 -780l203 780q9 39 51 39h148q42 0 51 -39l202 -780l183 780q9 39 53 39h188q43 0 25 -37l-326 -991q-18 -37 -57 -37z" />
    <glyph glyph-name="x" unicode="x" horiz-adv-x="1032" 
d="M985 0h-225q-42 0 -62 35l-182 362l-192 -362q-20 -35 -64 -35h-213q-39 0 -16 33l344 512l-328 487q-12 17 -8.5 25t24.5 8h226q41 0 61 -35l166 -348l176 348q20 35 64 35h213q24 0 26.5 -8t-10.5 -25l-328 -487l344 -512q12 -17 8.5 -25t-24.5 -8z" />
    <glyph glyph-name="y" unicode="y" horiz-adv-x="1073" 
d="M428 -451h-182q-43 0 -25 37l193 430l-387 1012q-18 37 24 37h189q41 0 53 -39l248 -782l250 782q14 39 55 39h176q43 0 25 -37l-562 -1442q-18 -37 -57 -37z" />
    <glyph glyph-name="z" unicode="z" horiz-adv-x="872" 
d="M770 0h-668q-22 0 -31.5 9.5t-9.5 31.5v74q0 37 21 78l430 710h-397q-22 0 -31.5 9.5t-9.5 31.5v80q0 22 9.5 31.5t31.5 9.5h639q22 0 31.5 -9.5t9.5 -31.5v-74q0 -38 -21 -78l-428 -710h424q22 0 31.5 -9.5t9.5 -31.5v-80q0 -22 -9.5 -31.5t-31.5 -9.5z" />
    <glyph glyph-name="braceleft" unicode="{" horiz-adv-x="833" 
d="M143 653q-23 0 -32 9.5t-9 31.5v103q0 22 9.5 31.5t31.5 9.5q77 0 122.5 77.5t45.5 188.5v295q0 118 85.5 191t197.5 73h96q22 0 31.5 -9.5t9.5 -31.5v-115q0 -22 -9.5 -31.5t-31.5 -9.5h-28q-95 0 -95 -198v-230q0 -227 -168 -290v-5q78 -27 123 -100t45 -190v-242
q0 -199 95 -199h28q22 0 31.5 -9.5t9.5 -31.5v-114q0 -22 -9.5 -31.5t-31.5 -9.5h-96q-71 0 -134 29.5t-106 91.5t-43 143v307q0 113 -44 189.5t-124 76.5z" />
    <glyph glyph-name="bar" unicode="|" horiz-adv-x="389" 
d="M246 -307h-103q-22 0 -31.5 9.5t-9.5 31.5v1802q0 22 9.5 31.5t31.5 9.5h103q22 0 31.5 -9.5t9.5 -31.5v-1802q0 -22 -9.5 -31.5t-31.5 -9.5z" />
    <glyph glyph-name="braceright" unicode="}" horiz-adv-x="833" 
d="M690 653q-80 0 -124 -76.5t-44 -189.5v-307q0 -81 -42.5 -143t-105.5 -91.5t-134 -29.5h-97q-22 0 -31.5 9.5t-9.5 31.5v114q0 22 9.5 31.5t31.5 9.5h29q94 0 94 199v242q0 117 45 190t123 100v5q-168 63 -168 290v230q0 96 -21.5 147t-72.5 51h-29q-22 0 -31.5 9.5
t-9.5 31.5v115q0 22 9.5 31.5t31.5 9.5h97q112 0 197 -73t85 -191v-295q0 -111 45.5 -188.5t122.5 -77.5q22 0 31.5 -9.5t9.5 -31.5v-103q0 -22 -9 -31.5t-32 -9.5z" />
    <glyph glyph-name="asciitilde" unicode="~" horiz-adv-x="780" 
d="M197 633h-62q-13 0 -23 10.5t-10 22.5q3 90 47 146t134 56q42 0 135 -39q73 -32 82 -32q15 0 24 10.5t13.5 23t16.5 23t32 10.5h61q12 0 21.5 -10.5t9.5 -22.5q-2 -90 -45 -146t-133 -56q-30 0 -70 16q-23 9 -62.5 25t-58.5 23t-26 7q-14 0 -25 -10.5t-17 -23t-17.5 -23
t-26.5 -10.5z" />
    <glyph glyph-name="exclamdown" unicode="&#xa1;" horiz-adv-x="462" 
d="M279 512h-95q-21 0 -30 -9.5t-11 -31.5l-41 -942q-3 -41 41 -41h176q44 0 41 41l-41 942q-2 22 -10.5 31.5t-29.5 9.5zM319 717h-176q-22 0 -31.5 9.5t-9.5 31.5v164q0 22 9.5 31.5t31.5 9.5h176q22 0 31.5 -9.5t9.5 -31.5v-164q0 -22 -9.5 -31.5t-31.5 -9.5z" />
    <glyph glyph-name="cent" unicode="&#xa2;" horiz-adv-x="980" 
d="M844 195l43 -66q19 -29 -2 -53q-24 -28 -79.5 -53.5t-131.5 -36.5v-252q0 -22 -9.5 -31.5t-31.5 -9.5h-103q-22 0 -31.5 9.5t-9.5 31.5v246q-407 37 -407 555q0 503 407 550v246q0 22 9.5 31.5t31.5 9.5h103q22 0 31.5 -9.5t9.5 -31.5v-250q67 -12 125 -39t86 -51
q24 -20 2 -53l-43 -66q-13 -18 -53 -4q-7 3 -35 14t-49 18t-54.5 13.5t-64.5 6.5q-73 0 -125.5 -31.5t-81 -88t-41 -122.5t-12.5 -146q0 -82 13 -148t41 -121t80 -85.5t124 -30.5q23 0 44.5 2.5t46 9.5t36.5 11t41.5 15.5t36.5 13.5q40 14 53 -4z" />
    <glyph glyph-name="yen" unicode="&#xa5;" horiz-adv-x="1286" 
d="M227 569v90q0 22 9.5 31.5t31.5 9.5h150l-389 740q-11 19 -6.5 27t26.5 8h219q42 0 62 -35l327 -664l353 662q16 37 59 37h168q22 0 27 -8.5t-4 -28.5l-410 -738h168q22 0 31.5 -9.5t9.5 -31.5v-90q0 -22 -9.5 -31.5t-31.5 -9.5h-256v-143h256q22 0 31.5 -9.5t9.5 -31.5
v-90q0 -22 -9.5 -31.5t-31.5 -9.5h-256v-172q0 -22 -9.5 -31.5t-31.5 -9.5h-176q-22 0 -31.5 9.5t-9.5 31.5v172h-236q-22 0 -31.5 9.5t-9.5 31.5v90q0 22 9.5 31.5t31.5 9.5h236v143h-236q-22 0 -31.5 9.5t-9.5 31.5z" />
    <glyph glyph-name="dieresis" unicode="&#xa8;" horiz-adv-x="819" 
d="M287 1249h-144q-22 0 -31.5 9.5t-9.5 31.5v144q0 22 9.5 31.5t31.5 9.5h144q22 0 31.5 -9.5t9.5 -31.5v-144q0 -22 -9.5 -31.5t-31.5 -9.5zM676 1249h-144q-22 0 -31 9.5t-9 31.5v144q0 22 9 31.5t31 9.5h144q22 0 31.5 -9.5t9.5 -31.5v-144q0 -22 -9.5 -31.5t-31.5 -9.5
z" />
    <glyph glyph-name="copyright" unicode="&#xa9;" horiz-adv-x="1433" 
d="M102 573q0 125 48.5 239t131 196.5t196.5 131t239 48.5t239 -48.5t196 -131t130.5 -196.5t48.5 -239q0 -167 -82 -308.5t-223.5 -223.5t-308.5 -82q-125 0 -239 48.5t-196.5 130.5t-131 196t-48.5 239zM184 573q0 -145 71 -267.5t194 -193.5t268 -71t267.5 71
t193.5 193.5t71 267.5t-71 268t-193.5 194t-267.5 71q-109 0 -207.5 -42t-170 -113.5t-113.5 -170t-42 -207.5zM948 324l17 -37q8 -23 -2 -33q-22 -16 -83 -32.5t-122 -16.5q-160 0 -260.5 98t-100.5 283t100 283t261 98q61 0 121.5 -17.5t83.5 -34.5q9 -7 2 -26l-17 -43
q-6 -6 -26 -2q-99 24 -164 24q-101 0 -163.5 -68t-62.5 -214q0 -147 62.5 -216t163.5 -69q61 0 164 25q18 9 26 -2z" />
    <glyph glyph-name="guillemotleft" unicode="&#xab;" horiz-adv-x="1097" 
d="M672 1069l-418 -326l418 -325q14 -11 20.5 -17t11.5 -16.5t5 -24.5v-110q0 -41 -37 -25l-553 432q-14 11 -20.5 17t-11.5 16.5t-5 24.5v57q0 14 5.5 24.5t11 15.5t20.5 17l553 433q37 16 37 -25v-111q0 -14 -5.5 -24.5t-11 -15.5t-20.5 -17zM979 987l-315 -244l315 -243
q14 -11 20.5 -17t11.5 -16.5t5 -24.5v-110q0 -41 -37 -25l-451 350q-14 11 -20 17t-11 16.5t-5 24.5v57q0 20 7.5 30.5t28.5 26.5l451 351q37 18 37 -25v-111q0 -14 -5.5 -24.5t-11 -15.5t-20.5 -17z" />
    <glyph glyph-name="registered" unicode="&#xae;" horiz-adv-x="1433" 
d="M102 942q0 125 48.5 239t131 196t196.5 130.5t239 48.5q167 0 308.5 -82t223.5 -223.5t82 -308.5t-82 -308.5t-223.5 -223.5t-308.5 -82q-125 0 -239 48.5t-196.5 130.5t-131 196t-48.5 239zM184 942q0 -145 71 -267.5t194 -193.5t268 -71t267.5 71t193.5 193.5t71 267.5
t-71 268t-193.5 194t-267.5 71q-109 0 -207.5 -42t-170 -113.5t-113.5 -170t-42 -207.5zM987 588h-113q-19 0 -30 16l-129 207h-80v-203q0 -20 -21 -20h-88q-20 0 -20 20v697q0 20 20 20h195q114 0 188 -74.5t74 -183.5q0 -75 -39 -136.5t-106 -92.5l157 -234q6 -9 5 -12.5
t-13 -3.5zM635 903h65q154 0 154 164q0 166 -154 166h-65v-330z" />
    <glyph glyph-name="macron" unicode="&#xaf;" horiz-adv-x="921" 
d="M778 1290h-635q-22 0 -31.5 9.5t-9.5 31.5v62q0 22 9.5 31.5t31.5 9.5h635q22 0 31.5 -9.5t9.5 -31.5v-62q0 -22 -9.5 -31.5t-31.5 -9.5z" />
    <glyph glyph-name="acute" unicode="&#xb4;" horiz-adv-x="612" 
d="M111 1280l122 201q22 35 64 35h186q44 0 11 -29l-228 -213q-33 -29 -71 -29h-64q-22 0 -26.5 8t6.5 27z" />
    <glyph glyph-name="cedilla" unicode="&#xb8;" horiz-adv-x="565" 
d="M190 -182l46 182h112l-29 -111q68 -9 106 -50.5t38 -102.5q0 -81 -65.5 -136t-172.5 -55q-79 1 -84 9q-40 3 -37 45l2 36q3 42 44 39v-2v0v0v0v0h1h1h1h1h1h1h1h1h1h1h1h1h1h1h1h1h1h1h1h1h1h1h1h1h1h1h1h1h1h1h1h1h1h10q65 0 98 21.5t33 56.5q0 68 -134 68z" />
    <glyph glyph-name="guillemotright" unicode="&#xbb;" horiz-adv-x="1097" 
d="M844 743l-418 326q-15 12 -20.5 17t-11 15.5t-5.5 24.5v111q0 41 37 25l553 -433q15 -12 20.5 -17t11 -15.5t5.5 -24.5v-57q0 -20 -8 -31t-29 -27l-553 -432q-37 -16 -37 25v110q0 20 8 31t29 27zM434 743l-315 244q-15 12 -20.5 17t-11 15.5t-5.5 24.5v111q0 43 37 25
l450 -351q15 -12 20.5 -17t11 -15.5t5.5 -24.5v-57q0 -20 -8 -31t-29 -27l-450 -350q-37 -16 -37 25v110q0 20 8 31t29 27z" />
    <glyph glyph-name="questiondown" unicode="&#xbf;" horiz-adv-x="1040" 
d="M428 537h176q22 0 31.5 -9.5t9.5 -31.5v-29q0 -84 -37 -147t-133 -173q-17 -19 -40.5 -53t-53 -102.5t-29.5 -126.5q0 -77 48.5 -129.5t146.5 -52.5q81 0 301 49q28 7 39 6.5t14 -10.5l33 -86q9 -25 8.5 -35t-10.5 -19q-37 -30 -168 -65t-250 -35q-84 0 -156 20.5
t-132.5 63.5t-97.5 117.5t-42 173.5q-9 177 109 319q2 3 36.5 35.5t67 66.5t60.5 86t28 97v29q0 22 9.5 31.5t31.5 9.5zM604 741h-176q-22 0 -31.5 9.5t-9.5 31.5v164q0 22 9.5 31.5t31.5 9.5h176q22 0 31.5 -9.5t9.5 -31.5v-164q0 -22 -9.5 -31.5t-31.5 -9.5z" />
    <glyph glyph-name="Agrave" unicode="&#xc0;" horiz-adv-x="1376" 
d="M1325 0h-195q-41 0 -55 39l-127 323h-581l-127 -323q-14 -39 -56 -39h-133q-42 0 -24 37l559 1401q15 37 57 37h90q43 0 58 -37l559 -1401q18 -37 -25 -37zM881 535l-183 530l-41 154l-39 -154l-184 -530h447zM633 1890l123 -200q10 -19 5.5 -27t-26.5 -8h-63
q-40 0 -72 28l-227 213q-33 29 10 29h186q42 0 64 -35z" />
    <glyph glyph-name="Aacute" unicode="&#xc1;" horiz-adv-x="1376" 
d="M1325 0h-195q-41 0 -55 39l-127 323h-581l-127 -323q-14 -39 -56 -39h-133q-42 0 -24 37l559 1401q15 37 57 37h90q43 0 58 -37l559 -1401q18 -37 -25 -37zM881 535l-183 530l-41 154l-39 -154l-184 -530h447zM649 1690l123 200q22 35 64 35h186q43 0 10 -29l-227 -213
q-32 -28 -72 -28h-63q-22 0 -27 8t6 27z" />
    <glyph glyph-name="Acircumflex" unicode="&#xc2;" horiz-adv-x="1376" 
d="M1325 0h-195q-41 0 -55 39l-127 323h-581l-127 -323q-14 -39 -56 -39h-133q-42 0 -24 37l559 1401q15 37 57 37h90q43 0 58 -37l559 -1401q18 -37 -25 -37zM881 535l-183 530l-41 154l-39 -154l-184 -530h447zM688 1810l-127 -127q-28 -28 -69 -28h-70q-21 0 -24.5 8
t8.5 25l147 204q23 33 65 33h140q42 0 65 -33l148 -204q12 -17 8.5 -25t-25.5 -8h-69q-42 0 -70 28z" />
    <glyph glyph-name="Atilde" unicode="&#xc3;" horiz-adv-x="1376" 
d="M1325 0h-195q-41 0 -55 39l-127 323h-581l-127 -323q-14 -39 -56 -39h-133q-42 0 -24 37l559 1401q15 37 57 37h90q43 0 58 -37l559 -1401q18 -37 -25 -37zM881 535l-183 530l-41 154l-39 -154l-184 -530h447zM494 1657h-62q-13 0 -23 10.5t-10 22.5q3 90 47 146t134 56
q42 0 135 -39q73 -32 82 -32q15 0 24 10.5t13.5 23t16.5 23t32 10.5h61q12 0 21.5 -10.5t9.5 -22.5q-2 -90 -45 -146t-133 -56q-30 0 -70 16q-23 9 -62.5 25t-58.5 23t-26 7q-14 0 -25 -10.5t-17 -23t-17.5 -23t-26.5 -10.5z" />
    <glyph glyph-name="Adieresis" unicode="&#xc4;" horiz-adv-x="1376" 
d="M1325 0h-195q-41 0 -55 39l-127 323h-581l-127 -323q-14 -39 -56 -39h-133q-42 0 -24 37l559 1401q15 37 57 37h90q43 0 58 -37l559 -1401q18 -37 -25 -37zM881 535l-183 530l-41 154l-39 -154l-184 -530h447zM565 1659h-143q-22 0 -31.5 9.5t-9.5 31.5v143
q0 22 9.5 31.5t31.5 9.5h143q22 0 31.5 -9.5t9.5 -31.5v-143q0 -22 -9.5 -31.5t-31.5 -9.5zM954 1659h-143q-22 0 -31.5 9.5t-9.5 31.5v143q0 22 9.5 31.5t31.5 9.5h143q22 0 31.5 -9.5t9.5 -31.5v-143q0 -22 -9.5 -31.5t-31.5 -9.5z" />
    <glyph glyph-name="Aring" unicode="&#xc5;" horiz-adv-x="1376" 
d="M1325 0h-195q-41 0 -55 39l-127 323h-581l-127 -323q-14 -39 -56 -39h-133q-42 0 -24 37l559 1401q15 37 57 37h90q43 0 58 -37l559 -1401q18 -37 -25 -37zM881 535l-183 530l-41 154l-39 -154l-184 -530h447zM498 1778q0 79 56.5 134.5t133.5 55.5q82 0 136.5 -54
t54.5 -136q0 -78 -56 -134.5t-135 -56.5q-76 0 -133 57t-57 134zM584 1778q0 -41 31.5 -73t72.5 -32q42 0 73.5 30t31.5 75t-29 74.5t-76 29.5q-46 0 -75 -31t-29 -73z" />
    <glyph glyph-name="AE" unicode="&#xc6;" horiz-adv-x="1468" 
d="M1346 0h-621q-22 0 -31.5 9.5t-9.5 31.5v321h-317l-127 -323q-14 -39 -56 -39h-133q-39 0 -24 37l559 1401q15 37 57 37h703q22 0 31 -9.5t9 -31.5v-103q0 -22 -9 -31.5t-31 -9.5h-404v-452h301q22 0 31.5 -9.5t9.5 -31.5v-103q0 -22 -9.5 -31.5t-31.5 -9.5h-301v-469
h404q22 0 31 -9.5t9 -31.5v-102q0 -22 -9 -31.5t-31 -9.5zM618 1065l-184 -530h250v684h-27z" />
    <glyph glyph-name="Ccedilla" unicode="&#xc7;" horiz-adv-x="1308" 
d="M700 -143l29 123q-141 10 -258 62.5t-204.5 145t-136 233t-48.5 316.5q0 187 55 334t153 239.5t228.5 140.5t286.5 48q122 0 242.5 -33.5t166.5 -66.5q11 -9 11.5 -19.5t-8.5 -33.5l-33 -86q-12 -17 -54 -5q-197 50 -325 50q-97 0 -176 -31t-142.5 -96t-99 -177.5
t-35.5 -263.5t35.5 -263.5t99.5 -177t143 -95.5t175 -31q132 0 325 49q41 14 54 -4l33 -76q9 -28 8.5 -40t-11.5 -23q-43 -30 -150.5 -61.5t-221.5 -37.5l-23 -88q68 -9 106 -50.5t38 -102.5q0 -81 -65.5 -136t-172.5 -55q-79 1 -84 9q-40 3 -37 45l2 36q3 42 43 39v-2v0v0
v0v0h1h1h1h1h1h1h1h1h1h1h1h1h1h1h1h1h1h1h1h1h1h1h1h1h1h1h1h1h1h1h1h1h1h10q65 0 98 21.5t33 56.5q0 28 -19 36t-77 13q-20 1 -27 19.5t0 38.5z" />
    <glyph glyph-name="Egrave" unicode="&#xc8;" horiz-adv-x="989" 
d="M866 0h-723q-22 0 -31.5 9.5t-9.5 31.5v1393q0 22 9.5 31.5t31.5 9.5h723q22 0 31.5 -9.5t9.5 -31.5v-103q0 -22 -9.5 -31.5t-31.5 -9.5h-506v-452h404q22 0 31.5 -9.5t9.5 -31.5v-103q0 -22 -9.5 -31.5t-31.5 -9.5h-404v-469h506q22 0 31.5 -9.5t9.5 -31.5v-102
q0 -22 -9.5 -31.5t-31.5 -9.5zM502 1890l123 -200q11 -19 6 -27t-27 -8h-63q-40 0 -72 28l-227 213q-33 29 10 29h186q42 0 64 -35z" />
    <glyph glyph-name="Eacute" unicode="&#xc9;" horiz-adv-x="989" 
d="M866 0h-723q-22 0 -31.5 9.5t-9.5 31.5v1393q0 22 9.5 31.5t31.5 9.5h723q22 0 31.5 -9.5t9.5 -31.5v-103q0 -22 -9.5 -31.5t-31.5 -9.5h-506v-452h404q22 0 31.5 -9.5t9.5 -31.5v-103q0 -22 -9.5 -31.5t-31.5 -9.5h-404v-469h506q22 0 31.5 -9.5t9.5 -31.5v-102
q0 -22 -9.5 -31.5t-31.5 -9.5zM379 1690l123 200q22 35 63 35h187q43 0 10 -29l-227 -213q-32 -28 -72 -28h-64q-22 0 -26.5 8t6.5 27z" />
    <glyph glyph-name="Ecircumflex" unicode="&#xca;" horiz-adv-x="989" 
d="M866 0h-723q-22 0 -31.5 9.5t-9.5 31.5v1393q0 22 9.5 31.5t31.5 9.5h723q22 0 31.5 -9.5t9.5 -31.5v-103q0 -22 -9.5 -31.5t-31.5 -9.5h-506v-452h404q22 0 31.5 -9.5t9.5 -31.5v-103q0 -22 -9.5 -31.5t-31.5 -9.5h-404v-469h506q22 0 31.5 -9.5t9.5 -31.5v-102
q0 -22 -9.5 -31.5t-31.5 -9.5zM494 1810l-127 -127q-28 -28 -70 -28h-70q-21 0 -24.5 8t8.5 25l147 204q23 33 66 33h139q43 0 66 -33l147 -204q12 -17 8.5 -25t-24.5 -8h-70q-41 0 -69 28z" />
    <glyph glyph-name="Edieresis" unicode="&#xcb;" horiz-adv-x="989" 
d="M866 0h-723q-22 0 -31.5 9.5t-9.5 31.5v1393q0 22 9.5 31.5t31.5 9.5h723q22 0 31.5 -9.5t9.5 -31.5v-103q0 -22 -9.5 -31.5t-31.5 -9.5h-506v-452h404q22 0 31.5 -9.5t9.5 -31.5v-103q0 -22 -9.5 -31.5t-31.5 -9.5h-404v-469h506q22 0 31.5 -9.5t9.5 -31.5v-102
q0 -22 -9.5 -31.5t-31.5 -9.5zM371 1659h-144q-22 0 -31.5 9.5t-9.5 31.5v143q0 22 9.5 31.5t31.5 9.5h144q22 0 31.5 -9.5t9.5 -31.5v-143q0 -22 -9.5 -31.5t-31.5 -9.5zM760 1659h-144q-22 0 -31.5 9.5t-9.5 31.5v143q0 22 9.5 31.5t31.5 9.5h144q22 0 31.5 -9.5
t9.5 -31.5v-143q0 -22 -9.5 -31.5t-31.5 -9.5z" />
    <glyph glyph-name="Igrave" unicode="&#xcc;" horiz-adv-x="462" 
d="M319 0h-176q-22 0 -31.5 9.5t-9.5 31.5v1393q0 22 9.5 31.5t31.5 9.5h176q22 0 31.5 -9.5t9.5 -31.5v-1393q0 -22 -9.5 -31.5t-31.5 -9.5zM219 1890l123 -200q11 -19 6.5 -27t-26.5 -8h-64q-40 0 -72 28l-227 213q-33 29 10 29h187q41 0 63 -35z" />
    <glyph glyph-name="Iacute" unicode="&#xcd;" horiz-adv-x="462" 
d="M319 0h-176q-22 0 -31.5 9.5t-9.5 31.5v1393q0 22 9.5 31.5t31.5 9.5h176q22 0 31.5 -9.5t9.5 -31.5v-1393q0 -22 -9.5 -31.5t-31.5 -9.5zM115 1690l123 200q22 35 63 35h186q44 0 11 -29l-228 -213q-32 -28 -71 -28h-64q-22 0 -26.5 8t6.5 27z" />
    <glyph glyph-name="Icircumflex" unicode="&#xce;" horiz-adv-x="462" 
d="M319 0h-176q-22 0 -31.5 9.5t-9.5 31.5v1393q0 22 9.5 31.5t31.5 9.5h176q22 0 31.5 -9.5t9.5 -31.5v-1393q0 -22 -9.5 -31.5t-31.5 -9.5zM231 1810l-127 -127q-28 -28 -69 -28h-70q-21 0 -24.5 8t8.5 25l147 204q23 33 66 33h139q43 0 66 -33l147 -204q12 -17 8.5 -25
t-24.5 -8h-70q-42 0 -70 28z" />
    <glyph glyph-name="Idieresis" unicode="&#xcf;" horiz-adv-x="462" 
d="M319 0h-176q-22 0 -31.5 9.5t-9.5 31.5v1393q0 22 9.5 31.5t31.5 9.5h176q22 0 31.5 -9.5t9.5 -31.5v-1393q0 -22 -9.5 -31.5t-31.5 -9.5zM109 1659h-144q-22 0 -31.5 9.5t-9.5 31.5v143q0 22 9.5 31.5t31.5 9.5h144q22 0 31.5 -9.5t9.5 -31.5v-143q0 -22 -9.5 -31.5
t-31.5 -9.5zM498 1659h-144q-22 0 -31.5 9.5t-9.5 31.5v143q0 22 9.5 31.5t31.5 9.5h144q22 0 31.5 -9.5t9.5 -31.5v-143q0 -22 -9.5 -31.5t-31.5 -9.5z" />
    <glyph glyph-name="Eth" unicode="&#xd0;" horiz-adv-x="1443" 
d="M688 0h-422q-22 0 -31.5 9.5t-9.5 31.5v612h-102q-22 0 -31.5 9.5t-9.5 31.5v103q0 22 9.5 31.5t31.5 9.5h102v596q0 22 9.5 31.5t31.5 9.5h471q124 0 238.5 -55t199.5 -150.5t136 -233t51 -293.5q0 -209 -90.5 -379t-244.5 -266t-339 -98zM483 184h203q116 0 209.5 74
t145.5 204.5t51 291.5q-1 116 -34.5 217t-90.5 170.5t-134 109t-163 39.5h-187v-452h316q22 0 31.5 -9.5t9.5 -31.5v-103q0 -22 -9.5 -31.5t-31.5 -9.5h-316v-469z" />
    <glyph glyph-name="Ntilde" unicode="&#xd1;" horiz-adv-x="1302" 
d="M1159 0h-143q-47 0 -68 33l-624 999h-5l21 -418v-573q0 -22 -9.5 -31.5t-31.5 -9.5h-156q-22 0 -31.5 9.5t-9.5 31.5v1393q0 22 9.5 31.5t31.5 9.5h144q46 0 67 -33l625 -1000h4l-20 418v574q0 22 9.5 31.5t31.5 9.5h155q22 0 31.5 -9.5t9.5 -31.5v-1393
q0 -22 -9.5 -31.5t-31.5 -9.5zM457 1657h-62q-13 0 -23 10.5t-10 22.5q3 90 47 146t134 56q42 0 135 -39q73 -32 82 -32q15 0 24 10.5t13.5 23t16.5 23t32 10.5h61q12 0 21.5 -10.5t9.5 -22.5q-2 -90 -45 -146t-133 -56q-30 0 -70 16q-23 9 -62.5 25t-58.5 23t-26 7
q-14 0 -25 -10.5t-17 -23t-17.5 -23t-26.5 -10.5z" />
    <glyph glyph-name="Ograve" unicode="&#xd2;" horiz-adv-x="1609" 
d="M805 -25q-155 0 -285.5 48t-228.5 140.5t-153.5 239.5t-55.5 334t55 334t153 239.5t228.5 140.5t286.5 48t286.5 -48t228.5 -140.5t153 -239.5t55 -334t-55.5 -334t-153.5 -239.5t-228.5 -140.5t-285.5 -48zM805 170q76 0 141.5 18.5t123.5 61.5t99 107.5t64.5 161
t23.5 218.5t-23.5 218.5t-64 161.5t-98.5 107.5t-123.5 61.5t-142.5 19q-97 0 -176 -31t-142.5 -96t-99 -177.5t-35.5 -263.5t35.5 -263.5t99.5 -177t143 -95.5t175 -31zM801 1890l123 -200q10 -19 5.5 -27t-26.5 -8h-63q-40 0 -72 28l-227 213q-33 29 10 29h186
q42 0 64 -35z" />
    <glyph glyph-name="Oacute" unicode="&#xd3;" horiz-adv-x="1609" 
d="M805 -25q-155 0 -285.5 48t-228.5 140.5t-153.5 239.5t-55.5 334t55 334t153 239.5t228.5 140.5t286.5 48t286.5 -48t228.5 -140.5t153 -239.5t55 -334t-55.5 -334t-153.5 -239.5t-228.5 -140.5t-285.5 -48zM805 170q76 0 141.5 18.5t123.5 61.5t99 107.5t64.5 161
t23.5 218.5t-23.5 218.5t-64 161.5t-98.5 107.5t-123.5 61.5t-142.5 19q-97 0 -176 -31t-142.5 -96t-99 -177.5t-35.5 -263.5t35.5 -263.5t99.5 -177t143 -95.5t175 -31zM705 1690l122 200q22 35 64 35h186q43 0 10 -29l-227 -213q-32 -28 -72 -28h-63q-22 0 -26.5 8t6.5 27
z" />
    <glyph glyph-name="Ocircumflex" unicode="&#xd4;" horiz-adv-x="1609" 
d="M805 -25q-155 0 -285.5 48t-228.5 140.5t-153.5 239.5t-55.5 334t55 334t153 239.5t228.5 140.5t286.5 48t286.5 -48t228.5 -140.5t153 -239.5t55 -334t-55.5 -334t-153.5 -239.5t-228.5 -140.5t-285.5 -48zM805 170q76 0 141.5 18.5t123.5 61.5t99 107.5t64.5 161
t23.5 218.5t-23.5 218.5t-64 161.5t-98.5 107.5t-123.5 61.5t-142.5 19q-97 0 -176 -31t-142.5 -96t-99 -177.5t-35.5 -263.5t35.5 -263.5t99.5 -177t143 -95.5t175 -31zM805 1810l-127 -127q-28 -28 -70 -28h-69q-22 0 -25.5 8t8.5 25l148 204q23 33 65 33h139q43 0 66 -33
l147 -204q12 -17 8.5 -25t-24.5 -8h-70q-41 0 -69 28z" />
    <glyph glyph-name="Otilde" unicode="&#xd5;" horiz-adv-x="1609" 
d="M805 -25q-155 0 -285.5 48t-228.5 140.5t-153.5 239.5t-55.5 334t55 334t153 239.5t228.5 140.5t286.5 48t286.5 -48t228.5 -140.5t153 -239.5t55 -334t-55.5 -334t-153.5 -239.5t-228.5 -140.5t-285.5 -48zM805 170q76 0 141.5 18.5t123.5 61.5t99 107.5t64.5 161
t23.5 218.5t-23.5 218.5t-64 161.5t-98.5 107.5t-123.5 61.5t-142.5 19q-97 0 -176 -31t-142.5 -96t-99 -177.5t-35.5 -263.5t35.5 -263.5t99.5 -177t143 -95.5t175 -31zM610 1657h-61q-13 0 -23 10.5t-10 22.5q3 91 46.5 146.5t133.5 55.5q42 0 135 -39q73 -32 82 -32
q15 0 24 10.5t13.5 23t16.5 23t32 10.5h62q12 0 21.5 -10.5t9.5 -22.5q-2 -90 -45.5 -146t-133.5 -56q-29 0 -69 16q-18 7 -40.5 16l-37.5 15t-30.5 12t-25 9t-14.5 3q-14 0 -25 -10.5t-17 -23t-17.5 -23t-26.5 -10.5z" />
    <glyph glyph-name="Odieresis" unicode="&#xd6;" horiz-adv-x="1609" 
d="M805 -25q-155 0 -285.5 48t-228.5 140.5t-153.5 239.5t-55.5 334t55 334t153 239.5t228.5 140.5t286.5 48t286.5 -48t228.5 -140.5t153 -239.5t55 -334t-55.5 -334t-153.5 -239.5t-228.5 -140.5t-285.5 -48zM805 170q76 0 141.5 18.5t123.5 61.5t99 107.5t64.5 161
t23.5 218.5t-23.5 218.5t-64 161.5t-98.5 107.5t-123.5 61.5t-142.5 19q-97 0 -176 -31t-142.5 -96t-99 -177.5t-35.5 -263.5t35.5 -263.5t99.5 -177t143 -95.5t175 -31zM682 1659h-143q-22 0 -31.5 9.5t-9.5 31.5v143q0 22 9.5 31.5t31.5 9.5h143q22 0 31.5 -9.5t9.5 -31.5
v-143q0 -22 -9.5 -31.5t-31.5 -9.5zM1071 1659h-143q-22 0 -31.5 9.5t-9.5 31.5v143q0 22 9.5 31.5t31.5 9.5h143q22 0 31.5 -9.5t9.5 -31.5v-143q0 -22 -9.5 -31.5t-31.5 -9.5z" />
    <glyph glyph-name="multiply" unicode="&#xd7;" horiz-adv-x="802" 
d="M227 1049l174 -172l174 172q29 29 58 0l72 -72q29 -29 0 -57l-173 -175l173 -174q29 -29 0 -57l-72 -72q-29 -29 -58 0l-174 172l-174 -172q-29 -28 -57 0l-72 72q-28 28 0 57l172 174l-172 175q-28 28 0 57l72 72q28 29 57 0z" />
    <glyph glyph-name="Oslash" unicode="&#xd8;" horiz-adv-x="1609" 
d="M262 20l-78 66q-33 26 -4 59l62 72q-160 200 -160 520q0 187 55 334t153 239.5t228.5 140.5t286.5 48q249 0 426 -119l57 68q26 33 60 6l77 -65q34 -27 5 -60l-62 -74q160 -200 160 -518q0 -187 -55.5 -334t-153.5 -239.5t-228.5 -140.5t-285.5 -48q-249 0 -426 119
l-57 -67q-26 -33 -60 -7zM352 737q0 -192 58 -321l677 794q-112 95 -282 95q-97 0 -176 -31t-142.5 -96t-99 -177.5t-35.5 -263.5zM805 170q76 0 141.5 18.5t123.5 61.5t99 107.5t64.5 161t23.5 218.5q0 193 -57 322l-678 -797q109 -92 283 -92z" />
    <glyph glyph-name="Ugrave" unicode="&#xd9;" horiz-adv-x="1302" 
d="M1004 582v852q0 22 9 31.5t31 9.5h115q22 0 31.5 -9.5t9.5 -31.5v-910q0 -239 -155.5 -394t-397.5 -155q-234 0 -389.5 157t-155.5 392v910q0 22 9.5 31.5t31.5 9.5h176q22 0 31.5 -9.5t9.5 -31.5v-852q0 -181 77.5 -301.5t213.5 -120.5q165 0 259 119t94 303zM723 1890
l123 -200q10 -19 5.5 -27t-26.5 -8h-63q-40 0 -72 28l-227 213q-33 29 10 29h186q42 0 64 -35z" />
    <glyph glyph-name="Uacute" unicode="&#xda;" horiz-adv-x="1302" 
d="M1004 582v852q0 22 9 31.5t31 9.5h115q22 0 31.5 -9.5t9.5 -31.5v-910q0 -239 -155.5 -394t-397.5 -155q-234 0 -389.5 157t-155.5 392v910q0 22 9.5 31.5t31.5 9.5h176q22 0 31.5 -9.5t9.5 -31.5v-852q0 -181 77.5 -301.5t213.5 -120.5q165 0 259 119t94 303zM455 1690
l123 200q22 35 63 35h186q44 0 11 -29l-228 -213q-32 -28 -71 -28h-64q-22 0 -26.5 8t6.5 27z" />
    <glyph glyph-name="Ucircumflex" unicode="&#xdb;" horiz-adv-x="1302" 
d="M1004 582v852q0 22 9 31.5t31 9.5h115q22 0 31.5 -9.5t9.5 -31.5v-910q0 -239 -155.5 -394t-397.5 -155q-234 0 -389.5 157t-155.5 392v910q0 22 9.5 31.5t31.5 9.5h176q22 0 31.5 -9.5t9.5 -31.5v-852q0 -181 77.5 -301.5t213.5 -120.5q165 0 259 119t94 303zM651 1810
l-127 -127q-28 -28 -69 -28h-70q-21 0 -24.5 8t8.5 25l147 204q23 33 66 33h139q42 0 65 -33l148 -204q12 -17 8.5 -25t-24.5 -8h-70q-42 0 -70 28z" />
    <glyph glyph-name="Udieresis" unicode="&#xdc;" horiz-adv-x="1302" 
d="M1004 582v852q0 22 9 31.5t31 9.5h115q22 0 31.5 -9.5t9.5 -31.5v-910q0 -239 -155.5 -394t-397.5 -155q-234 0 -389.5 157t-155.5 392v910q0 22 9.5 31.5t31.5 9.5h176q22 0 31.5 -9.5t9.5 -31.5v-852q0 -181 77.5 -301.5t213.5 -120.5q165 0 259 119t94 303zM528 1659
h-143q-22 0 -31.5 9.5t-9.5 31.5v143q0 22 9.5 31.5t31.5 9.5h143q22 0 31.5 -9.5t9.5 -31.5v-143q0 -22 -9.5 -31.5t-31.5 -9.5zM918 1659h-144q-22 0 -31.5 9.5t-9.5 31.5v143q0 22 9.5 31.5t31.5 9.5h144q22 0 31 -9.5t9 -31.5v-143q0 -22 -9 -31.5t-31 -9.5z" />
    <glyph glyph-name="Yacute" unicode="&#xdd;" horiz-adv-x="1286" 
d="M721 0h-176q-22 0 -31.5 9.5t-9.5 31.5v498l-475 901q-11 19 -6.5 27t26.5 8h219q42 0 62 -35l327 -664l353 662q16 37 59 37h168q22 0 27 -8.5t-4 -28.5l-498 -899v-498q0 -22 -9.5 -31.5t-31.5 -9.5zM551 1690l123 200q22 35 63 35h187q43 0 10 -29l-227 -213
q-32 -28 -72 -28h-64q-22 0 -26.5 8t6.5 27z" />
    <glyph glyph-name="Thorn" unicode="&#xde;" horiz-adv-x="1140" 
d="M360 1432v-185h172q151 0 272.5 -68.5t188 -186t66.5 -259.5q0 -104 -39.5 -197t-108.5 -161.5t-167.5 -109t-211.5 -40.5h-172v-184q0 -22 -9.5 -31.5t-31.5 -9.5h-176q-22 0 -31.5 9.5t-9.5 31.5v1391q0 22 9.5 31.5t31.5 9.5h176q22 0 31.5 -9.5t9.5 -31.5zM360 408
h132q309 0 309 325q0 164 -78.5 247t-230.5 85h-132v-657z" />
    <glyph glyph-name="germandbls" unicode="&#xdf;" horiz-adv-x="1284" 
d="M180 1065v20q0 215 121.5 333t335.5 118t335.5 -107t121.5 -303q0 -215 -195 -307v-4q146 -26 224.5 -132t78.5 -263q0 -179 -135 -299.5t-334 -120.5h-125q-22 0 -31.5 9.5t-9.5 31.5v90q0 22 9.5 31.5t31.5 9.5h58q80 0 137 20.5t86.5 57t42 77.5t12.5 91q0 44 -8 84
t-28.5 78.5t-51.5 66t-79.5 44t-110.5 16.5h-56q-22 0 -31.5 9.5t-9.5 31.5v90q0 22 10 31.5t33 9.5q95 0 159.5 65.5t64.5 177.5q0 113 -49.5 177.5t-147.5 64.5q-101 0 -151 -75.5t-50 -207.5v-1040q0 -22 -9.5 -31.5t-31.5 -9.5h-176q-22 0 -31.5 9.5t-9.5 31.5v852h-119
q-22 0 -31.5 9.5t-9.5 31.5v90q0 22 9.5 31.5t31.5 9.5h119z" />
    <glyph glyph-name="agrave" unicode="&#xe0;" horiz-adv-x="1052" 
d="M930 0h-103q-21 0 -28.5 9t-12.5 32l-20 84h-4q-40 -73 -116 -111.5t-179 -38.5q-79 0 -147.5 23t-122 67.5t-84.5 116.5t-31 164q0 77 22.5 136t60.5 96t94 60.5t116.5 32.5t134.5 9h211q-3 30 -10.5 58.5t-24 63t-39.5 59.5t-61.5 42t-87.5 17q-67 0 -232 -52
q-41 -12 -53 4l-43 66q-19 29 2 53q34 37 136.5 69t217.5 32q103 0 182 -29.5t128 -78.5t80 -120.5t43 -148.5t12 -170v-504q0 -22 -9.5 -31.5t-31.5 -9.5zM725 449v59h-215q-82 0 -131 -41.5t-49 -114.5q0 -26 6 -53t20.5 -54.5t36 -49t55.5 -35t76 -13.5q96 0 148.5 74.5
t52.5 227.5zM485 1481l123 -201q11 -19 6.5 -27t-26.5 -8h-64q-38 0 -71 29l-228 213q-33 29 11 29h186q41 0 63 -35z" />
    <glyph glyph-name="aacute" unicode="&#xe1;" horiz-adv-x="1052" 
d="M930 0h-103q-21 0 -28.5 9t-12.5 32l-20 84h-4q-40 -73 -116 -111.5t-179 -38.5q-79 0 -147.5 23t-122 67.5t-84.5 116.5t-31 164q0 77 22.5 136t60.5 96t94 60.5t116.5 32.5t134.5 9h211q-3 30 -10.5 58.5t-24 63t-39.5 59.5t-61.5 42t-87.5 17q-67 0 -232 -52
q-41 -12 -53 4l-43 66q-19 29 2 53q34 37 136.5 69t217.5 32q103 0 182 -29.5t128 -78.5t80 -120.5t43 -148.5t12 -170v-504q0 -22 -9.5 -31.5t-31.5 -9.5zM725 449v59h-215q-82 0 -131 -41.5t-49 -114.5q0 -26 6 -53t20.5 -54.5t36 -49t55.5 -35t76 -13.5q96 0 148.5 74.5
t52.5 227.5zM446 1280l123 201q22 35 64 35h186q43 0 10 -29l-227 -213q-33 -29 -72 -29h-63q-22 0 -26.5 8t5.5 27z" />
    <glyph glyph-name="acircumflex" unicode="&#xe2;" horiz-adv-x="1052" 
d="M930 0h-103q-21 0 -28.5 9t-12.5 32l-20 84h-4q-40 -73 -116 -111.5t-179 -38.5q-79 0 -147.5 23t-122 67.5t-84.5 116.5t-31 164q0 77 22.5 136t60.5 96t94 60.5t116.5 32.5t134.5 9h211q-3 30 -10.5 58.5t-24 63t-39.5 59.5t-61.5 42t-87.5 17q-67 0 -232 -52
q-41 -12 -53 4l-43 66q-19 29 2 53q34 37 136.5 69t217.5 32q103 0 182 -29.5t128 -78.5t80 -120.5t43 -148.5t12 -170v-504q0 -22 -9.5 -31.5t-31.5 -9.5zM725 449v59h-215q-82 0 -131 -41.5t-49 -114.5q0 -26 6 -53t20.5 -54.5t36 -49t55.5 -35t76 -13.5q96 0 148.5 74.5
t52.5 227.5zM526 1401l-127 -127q-29 -29 -69 -29h-70q-21 0 -24.5 8t8.5 25l147 205q23 33 66 33h139q43 0 66 -33l147 -205q12 -17 8.5 -25t-24.5 -8h-70q-41 0 -70 29z" />
    <glyph glyph-name="atilde" unicode="&#xe3;" horiz-adv-x="1052" 
d="M930 0h-103q-21 0 -28.5 9t-12.5 32l-20 84h-4q-40 -73 -116 -111.5t-179 -38.5q-79 0 -147.5 23t-122 67.5t-84.5 116.5t-31 164q0 77 22.5 136t60.5 96t94 60.5t116.5 32.5t134.5 9h211q-3 30 -10.5 58.5t-24 63t-39.5 59.5t-61.5 42t-87.5 17q-67 0 -232 -52
q-41 -12 -53 4l-43 66q-19 29 2 53q34 37 136.5 69t217.5 32q103 0 182 -29.5t128 -78.5t80 -120.5t43 -148.5t12 -170v-504q0 -22 -9.5 -31.5t-31.5 -9.5zM725 449v59h-215q-82 0 -131 -41.5t-49 -114.5q0 -26 6 -53t20.5 -54.5t36 -49t55.5 -35t76 -13.5q96 0 148.5 74.5
t52.5 227.5zM332 1247h-62q-13 0 -22.5 10.5t-9.5 22.5q3 91 46.5 147t133.5 56q42 0 135 -39q75 -33 82 -33q15 0 24 10.5t13.5 23.5t16.5 23.5t32 10.5h61q12 0 21.5 -10.5t9.5 -22.5q-2 -91 -45 -147t-133 -56q-27 0 -70 17q-23 9 -62.5 25t-58.5 23t-26 7q-18 0 -30 -17
t-24.5 -34t-31.5 -17z" />
    <glyph glyph-name="adieresis" unicode="&#xe4;" horiz-adv-x="1052" 
d="M930 0h-103q-21 0 -28.5 9t-12.5 32l-20 84h-4q-40 -73 -116 -111.5t-179 -38.5q-79 0 -147.5 23t-122 67.5t-84.5 116.5t-31 164q0 77 22.5 136t60.5 96t94 60.5t116.5 32.5t134.5 9h211q-3 30 -10.5 58.5t-24 63t-39.5 59.5t-61.5 42t-87.5 17q-67 0 -232 -52
q-41 -12 -53 4l-43 66q-19 29 2 53q34 37 136.5 69t217.5 32q103 0 182 -29.5t128 -78.5t80 -120.5t43 -148.5t12 -170v-504q0 -22 -9.5 -31.5t-31.5 -9.5zM725 449v59h-215q-82 0 -131 -41.5t-49 -114.5q0 -26 6 -53t20.5 -54.5t36 -49t55.5 -35t76 -13.5q96 0 148.5 74.5
t52.5 227.5zM403 1249h-143q-22 0 -31.5 9.5t-9.5 31.5v144q0 22 9.5 31.5t31.5 9.5h143q22 0 31.5 -9.5t9.5 -31.5v-144q0 -22 -9.5 -31.5t-31.5 -9.5zM793 1249h-144q-22 0 -31.5 9.5t-9.5 31.5v144q0 22 9.5 31.5t31.5 9.5h144q22 0 31.5 -9.5t9.5 -31.5v-144
q0 -22 -9.5 -31.5t-31.5 -9.5z" />
    <glyph glyph-name="aring" unicode="&#xe5;" horiz-adv-x="1052" 
d="M930 0h-103q-21 0 -28.5 9t-12.5 32l-20 84h-4q-40 -73 -116 -111.5t-179 -38.5q-79 0 -147.5 23t-122 67.5t-84.5 116.5t-31 164q0 77 22.5 136t60.5 96t94 60.5t116.5 32.5t134.5 9h211q-3 30 -10.5 58.5t-24 63t-39.5 59.5t-61.5 42t-87.5 17q-67 0 -232 -52
q-41 -12 -53 4l-43 66q-19 29 2 53q34 37 136.5 69t217.5 32q103 0 182 -29.5t128 -78.5t80 -120.5t43 -148.5t12 -170v-504q0 -22 -9.5 -31.5t-31.5 -9.5zM725 449v59h-215q-82 0 -131 -41.5t-49 -114.5q0 -26 6 -53t20.5 -54.5t36 -49t55.5 -35t76 -13.5q96 0 148.5 74.5
t52.5 227.5zM336 1368q0 79 56.5 135t133.5 56q82 0 136.5 -54.5t54.5 -136.5q0 -78 -56 -134t-135 -56q-76 0 -133 56.5t-57 133.5zM422 1368q0 -41 31.5 -72.5t72.5 -31.5q42 0 73.5 29.5t31.5 74.5t-29 75t-76 30q-45 0 -74.5 -31.5t-29.5 -73.5z" />
    <glyph glyph-name="ae" unicode="&#xe6;" horiz-adv-x="1691" 
d="M1198 -25q-246 0 -367 144q-121 -144 -364 -144q-79 0 -147.5 23t-122 67.5t-84.5 116.5t-31 164q0 77 22.5 136t60.5 96t94 60.5t116.5 32.5t134.5 9h211q-3 30 -10.5 58.5t-24 63t-39.5 59.5t-61.5 42t-87.5 17q-67 0 -232 -52q-41 -12 -53 4l-43 66q-19 29 2 53
q34 37 136.5 69t217.5 32q212 0 326 -127q114 127 319 127q195 0 317 -113.5t122 -327.5q0 -118 -48 -161.5t-176 -43.5h-419q6 -68 22 -120t45 -93.5t77 -63.5t114 -22q37 0 82 8.5t74 17t85 26.5q42 12 54 -4l43 -66q19 -29 -2 -53q-32 -37 -136.5 -69t-226.5 -32z
M725 449v59h-215q-82 0 -131 -41.5t-49 -114.5q0 -26 6 -53t20.5 -54.5t36 -49t55.5 -35t76 -13.5q96 0 148.5 74.5t52.5 227.5zM967 618h315q49 0 64.5 12.5t15.5 57.5q0 94 -50.5 163t-129.5 69q-193 0 -215 -302z" />
    <glyph glyph-name="ccedilla" unicode="&#xe7;" horiz-adv-x="980" 
d="M475 -143l29 120q-422 29 -422 558q0 557 496 557q93 0 181 -33.5t126 -67.5q24 -20 2 -53l-43 -66q-13 -18 -53 -4q-7 3 -35 14t-49 18t-54.5 13.5t-64.5 6.5q-73 0 -125.5 -31.5t-81 -88t-41 -122.5t-12.5 -146q0 -82 13 -148t41 -121t80 -85.5t124 -30.5
q23 0 44.5 2.5t46 9.5t36.5 11t41.5 15.5t36.5 13.5q40 14 53 -4l43 -66q19 -29 -2 -53q-28 -33 -99.5 -62t-169.5 -37l-22 -88q68 -9 105.5 -50.5t37.5 -102.5q0 -81 -65.5 -136t-171.5 -55q-79 1 -84 9q-40 3 -37 45l2 36q3 42 43 39v-2v0v0v0v0h1h1h1h1h1h1h1h1h1h1h1h1
h1h1h1h1h1h1h1h1h1h1h1h1h1h1h1h1h1h1h1h1h1h10q65 0 98 21.5t33 56.5q0 28 -19 36t-77 13q-39 3 -27 58z" />
    <glyph glyph-name="egrave" unicode="&#xe8;" horiz-adv-x="1056" 
d="M885 195l43 -66q19 -29 -2 -53q-32 -37 -136.5 -69t-226.5 -32q-110 0 -195 30t-138.5 79.5t-87 121.5t-47 148.5t-13.5 167.5q0 122 25 222.5t77.5 180t142 123.5t210.5 44q94 0 173 -27.5t138.5 -81t93 -138.5t33.5 -194q0 -118 -47.5 -161.5t-175.5 -43.5h-420
q6 -68 22 -120t45 -93.5t77 -63.5t114 -22q37 0 82 8.5t74 17t85 26.5q42 12 54 -4zM332 618h315q49 0 64.5 12.5t15.5 57.5q0 94 -50.5 163t-129.5 69q-193 0 -215 -302zM526 1481l123 -201q11 -19 6.5 -27t-26.5 -8h-64q-38 0 -71 29l-228 213q-33 29 10 29h187
q41 0 63 -35z" />
    <glyph glyph-name="eacute" unicode="&#xe9;" horiz-adv-x="1056" 
d="M885 195l43 -66q19 -29 -2 -53q-32 -37 -136.5 -69t-226.5 -32q-110 0 -195 30t-138.5 79.5t-87 121.5t-47 148.5t-13.5 167.5q0 122 25 222.5t77.5 180t142 123.5t210.5 44q94 0 173 -27.5t138.5 -81t93 -138.5t33.5 -194q0 -118 -47.5 -161.5t-175.5 -43.5h-420
q6 -68 22 -120t45 -93.5t77 -63.5t114 -22q37 0 82 8.5t74 17t85 26.5q42 12 54 -4zM332 618h315q49 0 64.5 12.5t15.5 57.5q0 94 -50.5 163t-129.5 69q-193 0 -215 -302zM414 1280l123 201q22 35 63 35h186q44 0 11 -29l-228 -213q-33 -29 -71 -29h-64q-22 0 -26.5 8
t6.5 27z" />
    <glyph glyph-name="ecircumflex" unicode="&#xea;" horiz-adv-x="1056" 
d="M885 195l43 -66q19 -29 -2 -53q-32 -37 -136.5 -69t-226.5 -32q-110 0 -195 30t-138.5 79.5t-87 121.5t-47 148.5t-13.5 167.5q0 122 25 222.5t77.5 180t142 123.5t210.5 44q94 0 173 -27.5t138.5 -81t93 -138.5t33.5 -194q0 -118 -47.5 -161.5t-175.5 -43.5h-420
q6 -68 22 -120t45 -93.5t77 -63.5t114 -22q37 0 82 8.5t74 17t85 26.5q42 12 54 -4zM332 618h315q49 0 64.5 12.5t15.5 57.5q0 94 -50.5 163t-129.5 69q-193 0 -215 -302zM528 1401l-127 -127q-29 -29 -69 -29h-70q-21 0 -24.5 8t8.5 25l147 205q23 33 66 33h139
q43 0 66 -33l147 -205q12 -17 8.5 -25t-24.5 -8h-70q-41 0 -70 29z" />
    <glyph glyph-name="edieresis" unicode="&#xeb;" horiz-adv-x="1056" 
d="M885 195l43 -66q19 -29 -2 -53q-32 -37 -136.5 -69t-226.5 -32q-110 0 -195 30t-138.5 79.5t-87 121.5t-47 148.5t-13.5 167.5q0 122 25 222.5t77.5 180t142 123.5t210.5 44q94 0 173 -27.5t138.5 -81t93 -138.5t33.5 -194q0 -118 -47.5 -161.5t-175.5 -43.5h-420
q6 -68 22 -120t45 -93.5t77 -63.5t114 -22q37 0 82 8.5t74 17t85 26.5q42 12 54 -4zM332 618h315q49 0 64.5 12.5t15.5 57.5q0 94 -50.5 163t-129.5 69q-193 0 -215 -302zM406 1249h-144q-22 0 -31.5 9.5t-9.5 31.5v144q0 22 9.5 31.5t31.5 9.5h144q22 0 31 -9.5t9 -31.5
v-144q0 -22 -9 -31.5t-31 -9.5zM795 1249h-144q-22 0 -31.5 9.5t-9.5 31.5v144q0 22 9.5 31.5t31.5 9.5h144q22 0 31.5 -9.5t9.5 -31.5v-144q0 -22 -9.5 -31.5t-31.5 -9.5z" />
    <glyph glyph-name="igrave" unicode="&#xec;" horiz-adv-x="450" 
d="M307 0h-164q-22 0 -31.5 9.5t-9.5 31.5v983q0 22 9.5 31.5t31.5 9.5h164q22 0 31.5 -9.5t9.5 -31.5v-983q0 -22 -9.5 -31.5t-31.5 -9.5zM213 1481l123 -201q10 -19 5.5 -27t-26.5 -8h-63q-39 0 -72 29l-227 213q-33 29 10 29h187q41 0 63 -35z" />
    <glyph glyph-name="iacute" unicode="&#xed;" horiz-adv-x="450" 
d="M307 0h-164q-22 0 -31.5 9.5t-9.5 31.5v983q0 22 9.5 31.5t31.5 9.5h164q22 0 31.5 -9.5t9.5 -31.5v-983q0 -22 -9.5 -31.5t-31.5 -9.5zM115 1280l123 201q22 35 63 35h186q44 0 11 -29l-228 -213q-33 -29 -71 -29h-64q-22 0 -26.5 8t6.5 27z" />
    <glyph glyph-name="icircumflex" unicode="&#xee;" horiz-adv-x="450" 
d="M307 0h-164q-22 0 -31.5 9.5t-9.5 31.5v983q0 22 9.5 31.5t31.5 9.5h164q22 0 31.5 -9.5t9.5 -31.5v-983q0 -22 -9.5 -31.5t-31.5 -9.5zM225 1401l-127 -127q-29 -29 -69 -29h-70q-21 0 -24.5 8t8.5 25l147 205q23 33 66 33h139q42 0 65 -33l148 -205q12 -17 8.5 -25
t-24.5 -8h-70q-41 0 -70 29z" />
    <glyph glyph-name="idieresis" unicode="&#xef;" horiz-adv-x="450" 
d="M307 0h-164q-22 0 -31.5 9.5t-9.5 31.5v983q0 22 9.5 31.5t31.5 9.5h164q22 0 31.5 -9.5t9.5 -31.5v-983q0 -22 -9.5 -31.5t-31.5 -9.5zM102 1249h-143q-22 0 -31.5 9.5t-9.5 31.5v144q0 22 9.5 31.5t31.5 9.5h143q22 0 31.5 -9.5t9.5 -31.5v-144q0 -22 -9.5 -31.5
t-31.5 -9.5zM492 1249h-144q-22 0 -31.5 9.5t-9.5 31.5v144q0 22 9.5 31.5t31.5 9.5h144q22 0 31 -9.5t9 -31.5v-144q0 -22 -9 -31.5t-31 -9.5z" />
    <glyph glyph-name="eth" unicode="&#xf0;" horiz-adv-x="1167" 
d="M1028 1413l-86 -88q143 -202 143 -575q0 -382 -133 -578.5t-372 -196.5q-131 0 -229 40t-155.5 112t-85.5 163.5t-28 201.5q0 88 15 163t49.5 141.5t87.5 113t132 73.5t179 27q122 0 202 -53.5t119 -190.5q-3 295 -61 422l-96 -98q-29 -29 -58 0l-43 43q-28 29 0 57
l107 108q-58 37 -146 37q-22 0 -31.5 9.5t-9.5 31.5v103q0 22 9.5 31.5t31.5 9.5q156 0 275 -90l84 83q28 29 57 0l43 -43q28 -28 0 -57zM817 451q1 79 -9 140t-35 114t-74 81.5t-119 28.5q-74 0 -125.5 -24t-78 -69.5t-37.5 -99t-11 -124.5q0 -338 270 -338q39 0 76.5 18
t69.5 52.5t52 92t21 128.5z" />
    <glyph glyph-name="ntilde" unicode="&#xf1;" horiz-adv-x="1097" 
d="M956 0h-168q-38 0 -38 41v577q0 62 -9.5 114t-30.5 95t-58.5 67t-88.5 24q-215 0 -215 -320v-557q0 -22 -9.5 -31.5t-31.5 -9.5h-164q-22 0 -31.5 9.5t-9.5 31.5v983q0 22 9.5 31.5t31.5 9.5h103q21 0 28.5 -9t12.5 -32l20 -84h4q35 69 113 109.5t160 40.5
q177 0 294 -108t117 -294v-647q0 -41 -39 -41zM354 1247h-61q-13 0 -23 10.5t-10 22.5q3 91 46.5 147t133.5 56q42 0 135 -39q75 -33 82 -33q15 0 24 10.5t13.5 23.5t16.5 23.5t32 10.5h62q12 0 21.5 -10.5t9.5 -22.5q-2 -90 -45.5 -146.5t-133.5 -56.5q-27 0 -69 17
q-18 7 -40.5 16l-37.5 15t-30.5 12t-25 9t-14.5 3q-18 0 -30 -17t-24.5 -34t-31.5 -17z" />
    <glyph glyph-name="ograve" unicode="&#xf2;" 
d="M578 -25q-115 0 -202.5 29t-142.5 78t-89.5 121.5t-48 151t-13.5 175.5t13.5 176.5t48 152.5t89.5 123.5t142.5 80t202.5 29.5t202.5 -29.5t142 -79.5t89 -123.5t48 -152.5t13.5 -175q0 -97 -13.5 -176t-48 -151.5t-89.5 -122t-142 -78.5t-202 -29zM578 160
q60 0 104.5 19.5t72 52t44 81.5t22.5 101t6 118q0 65 -6 117.5t-22.5 102t-44 82.5t-72 53t-104.5 20q-74 0 -125 -29t-77.5 -83.5t-37 -117t-10.5 -145.5q0 -66 6 -118t23 -101t44.5 -81.5t72 -52t104.5 -19.5zM580 1481l122 -201q11 -19 6.5 -27t-26.5 -8h-64
q-38 0 -71 29l-228 213q-33 29 11 29h186q42 0 64 -35z" />
    <glyph glyph-name="oacute" unicode="&#xf3;" 
d="M578 -25q-115 0 -202.5 29t-142.5 78t-89.5 121.5t-48 151t-13.5 175.5t13.5 176.5t48 152.5t89.5 123.5t142.5 80t202.5 29.5t202.5 -29.5t142 -79.5t89 -123.5t48 -152.5t13.5 -175q0 -97 -13.5 -176t-48 -151.5t-89.5 -122t-142 -78.5t-202 -29zM578 160
q60 0 104.5 19.5t72 52t44 81.5t22.5 101t6 118q0 65 -6 117.5t-22.5 102t-44 82.5t-72 53t-104.5 20q-74 0 -125 -29t-77.5 -83.5t-37 -117t-10.5 -145.5q0 -66 6 -118t23 -101t44.5 -81.5t72 -52t104.5 -19.5zM449 1280l122 201q22 35 64 35h186q43 0 10 -29l-227 -213
q-33 -29 -72 -29h-63q-22 0 -26.5 8t6.5 27z" />
    <glyph glyph-name="ocircumflex" unicode="&#xf4;" 
d="M578 -25q-115 0 -202.5 29t-142.5 78t-89.5 121.5t-48 151t-13.5 175.5t13.5 176.5t48 152.5t89.5 123.5t142.5 80t202.5 29.5t202.5 -29.5t142 -79.5t89 -123.5t48 -152.5t13.5 -175q0 -97 -13.5 -176t-48 -151.5t-89.5 -122t-142 -78.5t-202 -29zM578 160
q60 0 104.5 19.5t72 52t44 81.5t22.5 101t6 118q0 65 -6 117.5t-22.5 102t-44 82.5t-72 53t-104.5 20q-74 0 -125 -29t-77.5 -83.5t-37 -117t-10.5 -145.5q0 -66 6 -118t23 -101t44.5 -81.5t72 -52t104.5 -19.5zM578 1401l-127 -127q-29 -29 -70 -29h-70q-21 0 -24.5 8
t8.5 25l147 205q23 33 66 33h139q43 0 66 -33l147 -205q12 -17 8.5 -25t-24.5 -8h-70q-40 0 -69 29z" />
    <glyph glyph-name="otilde" unicode="&#xf5;" 
d="M578 -25q-115 0 -202.5 29t-142.5 78t-89.5 121.5t-48 151t-13.5 175.5t13.5 176.5t48 152.5t89.5 123.5t142.5 80t202.5 29.5t202.5 -29.5t142 -79.5t89 -123.5t48 -152.5t13.5 -175q0 -97 -13.5 -176t-48 -151.5t-89.5 -122t-142 -78.5t-202 -29zM578 160
q60 0 104.5 19.5t72 52t44 81.5t22.5 101t6 118q0 65 -6 117.5t-22.5 102t-44 82.5t-72 53t-104.5 20q-74 0 -125 -29t-77.5 -83.5t-37 -117t-10.5 -145.5q0 -66 6 -118t23 -101t44.5 -81.5t72 -52t104.5 -19.5zM383 1247h-61q-13 0 -23 10.5t-10 22.5q3 91 46.5 147
t133.5 56q42 0 135 -39q75 -33 82 -33q15 0 24 10.5t13.5 23.5t16.5 23.5t32 10.5h62q12 0 21 -10.5t9 -22.5q-2 -91 -45 -147t-133 -56q-28 0 -70 17q-23 9 -62.5 25t-58.5 23t-26 7q-18 0 -30 -17t-24.5 -34t-31.5 -17z" />
    <glyph glyph-name="odieresis" unicode="&#xf6;" 
d="M578 -25q-115 0 -202.5 29t-142.5 78t-89.5 121.5t-48 151t-13.5 175.5t13.5 176.5t48 152.5t89.5 123.5t142.5 80t202.5 29.5t202.5 -29.5t142 -79.5t89 -123.5t48 -152.5t13.5 -175q0 -97 -13.5 -176t-48 -151.5t-89.5 -122t-142 -78.5t-202 -29zM578 160
q60 0 104.5 19.5t72 52t44 81.5t22.5 101t6 118q0 65 -6 117.5t-22.5 102t-44 82.5t-72 53t-104.5 20q-74 0 -125 -29t-77.5 -83.5t-37 -117t-10.5 -145.5q0 -66 6 -118t23 -101t44.5 -81.5t72 -52t104.5 -19.5zM455 1249h-144q-22 0 -31.5 9.5t-9.5 31.5v144q0 22 9.5 31.5
t31.5 9.5h144q22 0 31.5 -9.5t9.5 -31.5v-144q0 -22 -9.5 -31.5t-31.5 -9.5zM844 1249h-144q-22 0 -31.5 9.5t-9.5 31.5v144q0 22 9.5 31.5t31.5 9.5h144q22 0 31.5 -9.5t9.5 -31.5v-144q0 -22 -9.5 -31.5t-31.5 -9.5z" />
    <glyph glyph-name="oslash" unicode="&#xf8;" 
d="M156 -33l-78 66q-33 26 -4 59l78 92q-70 132 -70 346q0 97 13.5 176.5t48 152.5t89.5 123.5t142.5 80t202.5 29.5q169 0 282 -66l60 70q25 32 59 6l78 -66q33 -26 4 -59l-70 -82q82 -136 82 -363q0 -97 -13.5 -176t-48 -151.5t-89.5 -122t-142 -78.5t-202 -29
q-186 0 -299 74l-64 -76q-25 -32 -59 -6zM578 160q60 0 104.5 19.5t72 52t44 81.5t22.5 101t6 118q0 84 -12 154l-397 -471q58 -55 160 -55zM328 532q0 -76 8 -131l387 461q-54 45 -145 45q-74 0 -125 -29t-77.5 -83.5t-37 -117t-10.5 -145.5z" />
    <glyph glyph-name="ugrave" unicode="&#xf9;" horiz-adv-x="1097" 
d="M954 0h-102q-21 0 -28.5 9t-12.5 32l-20 84h-5q-35 -69 -112.5 -109.5t-159.5 -40.5q-177 0 -294.5 108t-117.5 294v647q0 41 39 41h168q39 0 39 -41v-578q0 -85 16.5 -149t60 -107t110.5 -43q215 0 215 320v557q0 22 9.5 31.5t31.5 9.5h163q22 0 31.5 -9.5t9.5 -31.5
v-983q0 -22 -9.5 -31.5t-31.5 -9.5zM537 1481l122 -201q11 -19 6.5 -27t-26.5 -8h-64q-38 0 -71 29l-228 213q-33 29 11 29h186q42 0 64 -35z" />
    <glyph glyph-name="uacute" unicode="&#xfa;" horiz-adv-x="1097" 
d="M954 0h-102q-21 0 -28.5 9t-12.5 32l-20 84h-5q-35 -69 -112.5 -109.5t-159.5 -40.5q-177 0 -294.5 108t-117.5 294v647q0 41 39 41h168q39 0 39 -41v-578q0 -85 16.5 -149t60 -107t110.5 -43q215 0 215 320v557q0 22 9.5 31.5t31.5 9.5h163q22 0 31.5 -9.5t9.5 -31.5
v-983q0 -22 -9.5 -31.5t-31.5 -9.5zM438 1280l123 201q22 35 64 35h186q43 0 10 -29l-227 -213q-33 -29 -72 -29h-63q-22 0 -26.5 8t5.5 27z" />
    <glyph glyph-name="ucircumflex" unicode="&#xfb;" horiz-adv-x="1097" 
d="M954 0h-102q-21 0 -28.5 9t-12.5 32l-20 84h-5q-35 -69 -112.5 -109.5t-159.5 -40.5q-177 0 -294.5 108t-117.5 294v647q0 41 39 41h168q39 0 39 -41v-578q0 -85 16.5 -149t60 -107t110.5 -43q215 0 215 320v557q0 22 9.5 31.5t31.5 9.5h163q22 0 31.5 -9.5t9.5 -31.5
v-983q0 -22 -9.5 -31.5t-31.5 -9.5zM549 1401l-127 -127q-29 -29 -70 -29h-69q-22 0 -25.5 8t8.5 25l148 205q23 33 65 33h139q43 0 66 -33l147 -205q12 -17 8.5 -25t-24.5 -8h-70q-40 0 -69 29z" />
    <glyph glyph-name="udieresis" unicode="&#xfc;" horiz-adv-x="1097" 
d="M954 0h-102q-21 0 -28.5 9t-12.5 32l-20 84h-5q-35 -69 -112.5 -109.5t-159.5 -40.5q-177 0 -294.5 108t-117.5 294v647q0 41 39 41h168q39 0 39 -41v-578q0 -85 16.5 -149t60 -107t110.5 -43q215 0 215 320v557q0 22 9.5 31.5t31.5 9.5h163q22 0 31.5 -9.5t9.5 -31.5
v-983q0 -22 -9.5 -31.5t-31.5 -9.5zM426 1249h-143q-22 0 -31.5 9.5t-9.5 31.5v144q0 22 9.5 31.5t31.5 9.5h143q22 0 31.5 -9.5t9.5 -31.5v-144q0 -22 -9.5 -31.5t-31.5 -9.5zM815 1249h-143q-22 0 -31.5 9.5t-9.5 31.5v144q0 22 9.5 31.5t31.5 9.5h143q22 0 31.5 -9.5
t9.5 -31.5v-144q0 -22 -9.5 -31.5t-31.5 -9.5z" />
    <glyph glyph-name="yacute" unicode="&#xfd;" horiz-adv-x="1073" 
d="M428 -451h-182q-43 0 -25 37l193 430l-387 1012q-18 37 24 37h189q41 0 53 -39l248 -782l250 782q14 39 55 39h176q43 0 25 -37l-562 -1442q-18 -37 -57 -37zM340 1280l123 201q22 35 63 35h187q43 0 10 -29l-227 -213q-33 -29 -72 -29h-64q-22 0 -26.5 8t6.5 27z" />
    <glyph glyph-name="thorn" unicode="&#xfe;" horiz-adv-x="1189" 
d="M307 -451h-164q-22 0 -31.5 9.5t-9.5 31.5v1885q0 22 9.5 31.5t31.5 9.5h164q22 0 31.5 -9.5t9.5 -31.5v-533h4q87 150 275 150q80 0 148.5 -17t131 -57.5t106 -102.5t69.5 -158.5t26 -219.5q0 -124 -25.5 -221.5t-69.5 -160.5t-106.5 -104.5t-131 -58.5t-148.5 -17
q-188 0 -275 150h-4v-535q0 -22 -9.5 -31.5t-31.5 -9.5zM862 537q0 115 -18 192t-55.5 118t-83.5 57t-113 16q-120 0 -182 -91t-62 -292q0 -203 62 -296.5t182 -93.5q67 0 113 16.5t83.5 58.5t55.5 120t18 195z" />
    <glyph glyph-name="ydieresis" unicode="&#xff;" horiz-adv-x="1073" 
d="M428 -451h-182q-43 0 -25 37l193 430l-387 1012q-18 37 24 37h189q41 0 53 -39l248 -782l250 782q14 39 55 39h176q43 0 25 -37l-562 -1442q-18 -37 -57 -37zM414 1249h-144q-22 0 -31.5 9.5t-9.5 31.5v144q0 22 9.5 31.5t31.5 9.5h144q22 0 31.5 -9.5t9.5 -31.5v-144
q0 -22 -9.5 -31.5t-31.5 -9.5zM803 1249h-144q-22 0 -31.5 9.5t-9.5 31.5v144q0 22 9.5 31.5t31.5 9.5h144q22 0 31.5 -9.5t9.5 -31.5v-144q0 -22 -9.5 -31.5t-31.5 -9.5z" />
    <glyph glyph-name="Amacron" unicode="&#x100;" horiz-adv-x="1376" 
d="M1325 0h-195q-41 0 -55 39l-127 323h-581l-127 -323q-14 -39 -56 -39h-133q-42 0 -24 37l559 1401q15 37 57 37h90q43 0 58 -37l559 -1401q18 -37 -25 -37zM881 535l-183 530l-41 154l-39 -154l-184 -530h447zM1006 1700h-635q-22 0 -31.5 9.5t-9.5 31.5v61
q0 22 9.5 31.5t31.5 9.5h635q22 0 31.5 -9.5t9.5 -31.5v-61q0 -22 -9.5 -31.5t-31.5 -9.5z" />
    <glyph glyph-name="amacron" unicode="&#x101;" horiz-adv-x="1052" 
d="M930 0h-103q-21 0 -28.5 9t-12.5 32l-20 84h-4q-40 -73 -116 -111.5t-179 -38.5q-79 0 -147.5 23t-122 67.5t-84.5 116.5t-31 164q0 77 22.5 136t60.5 96t94 60.5t116.5 32.5t134.5 9h211q-3 30 -10.5 58.5t-24 63t-39.5 59.5t-61.5 42t-87.5 17q-67 0 -232 -52
q-41 -12 -53 4l-43 66q-19 29 2 53q34 37 136.5 69t217.5 32q103 0 182 -29.5t128 -78.5t80 -120.5t43 -148.5t12 -170v-504q0 -22 -9.5 -31.5t-31.5 -9.5zM725 449v59h-215q-82 0 -131 -41.5t-49 -114.5q0 -26 6 -53t20.5 -54.5t36 -49t55.5 -35t76 -13.5q96 0 148.5 74.5
t52.5 227.5zM844 1290h-635q-22 0 -31.5 9.5t-9.5 31.5v62q0 22 9.5 31.5t31.5 9.5h635q22 0 31.5 -9.5t9.5 -31.5v-62q0 -22 -9.5 -31.5t-31.5 -9.5z" />
    <glyph glyph-name="Abreve" unicode="&#x102;" horiz-adv-x="1376" 
d="M1325 0h-195q-41 0 -55 39l-127 323h-581l-127 -323q-14 -39 -56 -39h-133q-42 0 -24 37l559 1401q15 37 57 37h90q43 0 58 -37l559 -1401q18 -37 -25 -37zM881 535l-183 530l-41 154l-39 -154l-184 -530h447zM436 1925h88q7 0 15.5 -6.5t11.5 -13.5q28 -88 139 -88
t137 88q1 7 10.5 13.5t18.5 6.5h86q12 0 21.5 -10.5t9.5 -22.5q-3 -108 -84 -173.5t-199 -65.5q-108 0 -192.5 63.5t-91.5 175.5q-3 13 6.5 23t23.5 10z" />
    <glyph glyph-name="abreve" unicode="&#x103;" horiz-adv-x="1052" 
d="M930 0h-103q-21 0 -28.5 9t-12.5 32l-20 84h-4q-40 -73 -116 -111.5t-179 -38.5q-79 0 -147.5 23t-122 67.5t-84.5 116.5t-31 164q0 77 22.5 136t60.5 96t94 60.5t116.5 32.5t134.5 9h211q-3 30 -10.5 58.5t-24 63t-39.5 59.5t-61.5 42t-87.5 17q-67 0 -232 -52
q-41 -12 -53 4l-43 66q-19 29 2 53q34 37 136.5 69t217.5 32q103 0 182 -29.5t128 -78.5t80 -120.5t43 -148.5t12 -170v-504q0 -22 -9.5 -31.5t-31.5 -9.5zM725 449v59h-215q-82 0 -131 -41.5t-49 -114.5q0 -26 6 -53t20.5 -54.5t36 -49t55.5 -35t76 -13.5q96 0 148.5 74.5
t52.5 227.5zM274 1516h88q16 0 27 -21q28 -88 139 -88q112 0 138 88q2 8 10.5 14.5t17.5 6.5h86q12 0 21.5 -10.5t9.5 -22.5q-3 -108 -84 -174t-199 -66q-108 0 -192.5 64t-91.5 176q-3 13 6.5 23t23.5 10z" />
    <glyph glyph-name="Aogonek" unicode="&#x104;" horiz-adv-x="1376" 
d="M1184 0h-54q-41 0 -55 39l-127 323h-581l-127 -323q-14 -39 -56 -39h-133q-42 0 -24 37l559 1401q15 37 57 37h90q43 0 58 -37l559 -1401q6 -14 6 -37l-76 -119q-31 -50 -31 -88q0 -43 41 -43q10 0 33 14q34 21 49 -22q10 -20 17 -41q3 -9 4 -14t-2 -10t-5.5 -7t-10.5 -8
t-13 -10q-68 -53 -137 -53q-76 -1 -118 36.5t-42 108.5q0 95 59 174zM881 535l-183 530l-41 154l-39 -154l-184 -530h447z" />
    <glyph glyph-name="aogonek" unicode="&#x105;" horiz-adv-x="1052" 
d="M827 0q-21 0 -28.5 9t-12.5 32l-20 84h-4q-40 -73 -116 -111.5t-179 -38.5q-79 0 -147.5 23t-122 67.5t-84.5 116.5t-31 164q0 77 22.5 136t60.5 96t94 60.5t116.5 32.5t134.5 9h211q-3 30 -10.5 58.5t-24 63t-39.5 59.5t-61.5 42t-87.5 17q-67 0 -232 -52q-41 -12 -53 4
l-43 66q-19 29 2 53q34 37 136.5 69t217.5 32q103 0 182 -29.5t128 -78.5t80 -120.5t43 -148.5t12 -170v-504q0 -37 -25 -76l-53 -84q-31 -50 -31 -88q0 -43 41 -43q10 0 33 14q34 21 49 -22q7 -14 16 -41q3 -9 4 -14t-2 -10t-5 -7t-10.5 -8t-12.5 -10q-62 -48 -137 -53
q-160 6 -160 145q0 63 42.5 143t106.5 113zM725 449v59h-215q-82 0 -131 -41.5t-49 -114.5q0 -26 6 -53t20.5 -54.5t36 -49t55.5 -35t76 -13.5q96 0 148.5 74.5t52.5 227.5z" />
    <glyph glyph-name="Cacute" unicode="&#x106;" horiz-adv-x="1308" 
d="M1184 215l33 -76q9 -28 8.5 -40t-11.5 -23q-46 -33 -167 -67t-242 -34q-155 0 -285.5 48t-228.5 140.5t-153.5 239.5t-55.5 334t55 334t153 239.5t228.5 140.5t286.5 48q122 0 242.5 -33.5t166.5 -66.5q11 -9 11.5 -19.5t-8.5 -33.5l-33 -86q-12 -17 -54 -5
q-197 50 -325 50q-97 0 -176 -31t-142.5 -96t-99 -177.5t-35.5 -263.5t35.5 -263.5t99.5 -177t143 -95.5t175 -31q132 0 325 49q41 14 54 -4zM666 1690l122 200q22 35 64 35h186q44 0 11 -29l-228 -213q-32 -28 -71 -28h-64q-22 0 -26.5 8t6.5 27z" />
    <glyph glyph-name="cacute" unicode="&#x107;" horiz-adv-x="980" 
d="M844 195l43 -66q19 -29 -2 -53q-33 -38 -121 -69.5t-207 -31.5q-475 0 -475 560q0 557 496 557q93 0 181 -33.5t126 -67.5q24 -20 2 -53l-43 -66q-13 -18 -53 -4q-7 3 -35 14t-49 18t-54.5 13.5t-64.5 6.5q-73 0 -125.5 -31.5t-81 -88t-41 -122.5t-12.5 -146
q0 -82 13 -148t41 -121t80 -85.5t124 -30.5q23 0 44.5 2.5t46 9.5t36.5 11t41.5 15.5t36.5 13.5q40 14 53 -4zM438 1280l123 201q22 35 64 35h186q43 0 10 -29l-227 -213q-33 -29 -72 -29h-63q-22 0 -26.5 8t5.5 27z" />
    <glyph glyph-name="Ccircumflex" unicode="&#x108;" horiz-adv-x="1308" 
d="M1184 215l33 -76q9 -28 8.5 -40t-11.5 -23q-46 -33 -167 -67t-242 -34q-155 0 -285.5 48t-228.5 140.5t-153.5 239.5t-55.5 334t55 334t153 239.5t228.5 140.5t286.5 48q122 0 242.5 -33.5t166.5 -66.5q11 -9 11.5 -19.5t-8.5 -33.5l-33 -86q-12 -17 -54 -5
q-197 50 -325 50q-97 0 -176 -31t-142.5 -96t-99 -177.5t-35.5 -263.5t35.5 -263.5t99.5 -177t143 -95.5t175 -31q132 0 325 49q41 14 54 -4zM788 1810l-126 -127q-28 -28 -70 -28h-70q-21 0 -24.5 8t8.5 25l147 204q23 33 66 33h139q43 0 66 -33l147 -204q12 -17 8.5 -25
t-24.5 -8h-70q-42 0 -70 28z" />
    <glyph glyph-name="ccircumflex" unicode="&#x109;" horiz-adv-x="980" 
d="M844 195l43 -66q19 -29 -2 -53q-33 -38 -121 -69.5t-207 -31.5q-475 0 -475 560q0 557 496 557q93 0 181 -33.5t126 -67.5q24 -20 2 -53l-43 -66q-13 -18 -53 -4q-7 3 -35 14t-49 18t-54.5 13.5t-64.5 6.5q-73 0 -125.5 -31.5t-81 -88t-41 -122.5t-12.5 -146
q0 -82 13 -148t41 -121t80 -85.5t124 -30.5q23 0 44.5 2.5t46 9.5t36.5 11t41.5 15.5t36.5 13.5q40 14 53 -4zM571 1401l-127 -127q-29 -29 -69 -29h-70q-21 0 -24.5 8t8.5 25l147 205q23 33 66 33h139q43 0 66 -33l147 -205q12 -17 8.5 -25t-24.5 -8h-70q-41 0 -70 29z" />
    <glyph glyph-name="Cdotaccent" unicode="&#x10a;" horiz-adv-x="1308" 
d="M1184 215l33 -76q9 -28 8.5 -40t-11.5 -23q-46 -33 -167 -67t-242 -34q-155 0 -285.5 48t-228.5 140.5t-153.5 239.5t-55.5 334t55 334t153 239.5t228.5 140.5t286.5 48q122 0 242.5 -33.5t166.5 -66.5q11 -9 11.5 -19.5t-8.5 -33.5l-33 -86q-12 -17 -54 -5
q-197 50 -325 50q-97 0 -176 -31t-142.5 -96t-99 -177.5t-35.5 -263.5t35.5 -263.5t99.5 -177t143 -95.5t175 -31q132 0 325 49q41 14 54 -4zM846 1679h-164q-22 0 -31.5 9.5t-9.5 31.5v164q0 22 9.5 31.5t31.5 9.5h164q22 0 31.5 -9.5t9.5 -31.5v-164q0 -22 -9.5 -31.5
t-31.5 -9.5z" />
    <glyph glyph-name="cdotaccent" unicode="&#x10b;" horiz-adv-x="980" 
d="M844 195l43 -66q19 -29 -2 -53q-33 -38 -121 -69.5t-207 -31.5q-475 0 -475 560q0 557 496 557q93 0 181 -33.5t126 -67.5q24 -20 2 -53l-43 -66q-13 -18 -53 -4q-7 3 -35 14t-49 18t-54.5 13.5t-64.5 6.5q-73 0 -125.5 -31.5t-81 -88t-41 -122.5t-12.5 -146
q0 -82 13 -148t41 -121t80 -85.5t124 -30.5q23 0 44.5 2.5t46 9.5t36.5 11t41.5 15.5t36.5 13.5q40 14 53 -4zM653 1270h-164q-22 0 -31 9.5t-9 31.5v164q0 22 9 31.5t31 9.5h164q22 0 31.5 -9.5t9.5 -31.5v-164q0 -22 -9.5 -31.5t-31.5 -9.5z" />
    <glyph glyph-name="Ccaron" unicode="&#x10c;" horiz-adv-x="1308" 
d="M1184 215l33 -76q9 -28 8.5 -40t-11.5 -23q-46 -33 -167 -67t-242 -34q-155 0 -285.5 48t-228.5 140.5t-153.5 239.5t-55.5 334t55 334t153 239.5t228.5 140.5t286.5 48q122 0 242.5 -33.5t166.5 -66.5q11 -9 11.5 -19.5t-8.5 -33.5l-33 -86q-12 -17 -54 -5
q-197 50 -325 50q-97 0 -176 -31t-142.5 -96t-99 -177.5t-35.5 -263.5t35.5 -263.5t99.5 -177t143 -95.5t175 -31q132 0 325 49q41 14 54 -4zM662 1896l126 -127l127 127q29 29 70 29h70q21 0 24.5 -8t-8.5 -25l-147 -204q-23 -33 -66 -33h-139q-43 0 -66 33l-147 204
q-12 17 -8.5 25t24.5 8h70q41 0 70 -29z" />
    <glyph glyph-name="ccaron" unicode="&#x10d;" horiz-adv-x="980" 
d="M844 195l43 -66q19 -29 -2 -53q-33 -38 -121 -69.5t-207 -31.5q-475 0 -475 560q0 557 496 557q93 0 181 -33.5t126 -67.5q24 -20 2 -53l-43 -66q-13 -18 -53 -4q-7 3 -35 14t-49 18t-54.5 13.5t-64.5 6.5q-73 0 -125.5 -31.5t-81 -88t-41 -122.5t-12.5 -146
q0 -82 13 -148t41 -121t80 -85.5t124 -30.5q23 0 44.5 2.5t46 9.5t36.5 11t41.5 15.5t36.5 13.5q40 14 53 -4zM444 1487l127 -127l127 127q29 29 70 29h70q21 0 24.5 -8t-8.5 -25l-147 -205q-23 -33 -66 -33h-139q-43 0 -66 33l-147 205q-12 17 -8.5 25t24.5 8h70
q40 0 69 -29z" />
    <glyph glyph-name="Dcaron" unicode="&#x10e;" horiz-adv-x="1320" 
d="M565 0h-422q-22 0 -31.5 9.5t-9.5 31.5v1393q0 22 9.5 31.5t31.5 9.5h471q124 0 238.5 -55t199.5 -150.5t136 -233t51 -293.5q0 -209 -90.5 -379t-244.5 -266t-339 -98zM360 184h203q116 0 209.5 74t145.5 204.5t51 291.5q-1 116 -34.5 217t-90.5 170.5t-134 109
t-163 39.5h-187v-1106zM442 1896l127 -127l127 127q29 29 70 29h70q21 0 24.5 -8t-8.5 -25l-147 -204q-23 -33 -66 -33h-139q-43 0 -66 33l-147 204q-12 17 -8.5 25t24.5 8h70q40 0 69 -29z" />
    <glyph glyph-name="dcaron" unicode="&#x10f;" horiz-adv-x="1558" 
d="M1047 0h-103q-21 0 -28.5 9t-12.5 32l-20 86h-4q-122 -154 -363 -154q-73 0 -135 17t-118 57.5t-95.5 102.5t-62.5 158.5t-23 219.5q0 124 23 221.5t63 160.5t96.5 104.5t120 58.5t137.5 17q218 0 316 -150h4v535q0 22 9.5 31.5t31.5 9.5h164q22 0 31 -9.5t9 -31.5v-1434
q0 -22 -9 -31.5t-31 -9.5zM559 145q140 0 211.5 92t71.5 291q0 203 -72.5 296.5t-212.5 93.5q-45 0 -78.5 -10t-63 -35.5t-48 -69t-29 -112.5t-10.5 -163q0 -114 14.5 -190t45.5 -118t71.5 -58.5t99.5 -16.5zM1305 1229h-74q-22 0 -31.5 9.5t-9.5 31.5v205q0 22 9.5 31.5
t31.5 9.5h205q22 0 31.5 -9.5t9.5 -31.5v-236q0 -93 -33.5 -181t-67.5 -126q-20 -24 -53 -2l-66 43q-17 13 -4 53q3 7 14 35t18 49t13.5 54.5t6.5 64.5z" />
    <glyph glyph-name="Dcroat" unicode="&#x110;" horiz-adv-x="1443" 
d="M688 0h-422q-22 0 -31.5 9.5t-9.5 31.5v612h-102q-22 0 -31.5 9.5t-9.5 31.5v103q0 22 9.5 31.5t31.5 9.5h102v596q0 22 9.5 31.5t31.5 9.5h471q124 0 238.5 -55t199.5 -150.5t136 -233t51 -293.5q0 -209 -90.5 -379t-244.5 -266t-339 -98zM483 184h203q116 0 209.5 74
t145.5 204.5t51 291.5q-1 116 -34.5 217t-90.5 170.5t-134 109t-163 39.5h-187v-452h316q22 0 31.5 -9.5t9.5 -31.5v-103q0 -22 -9.5 -31.5t-31.5 -9.5h-316v-469z" />
    <glyph glyph-name="dcroat" unicode="&#x111;" horiz-adv-x="1269" 
d="M1047 0h-103q-21 0 -28.5 9t-12.5 32l-20 86h-4q-122 -154 -363 -154q-73 0 -135 17t-118 57.5t-95.5 102.5t-62.5 158.5t-23 219.5q0 124 23 221.5t63 160.5t96.5 104.5t120 58.5t137.5 17q218 0 316 -150h4v266h-310q-22 0 -31 9.5t-9 31.5v103q0 22 9 31.5t31 9.5h310
v84q0 22 9.5 31.5t31.5 9.5h164q22 0 31 -9.5t9 -31.5v-84h121q22 0 31.5 -9.5t9.5 -31.5v-103q0 -22 -9.5 -31.5t-31.5 -9.5h-121v-1165q0 -22 -9 -31.5t-31 -9.5zM559 145q140 0 211.5 92t71.5 291q0 203 -72.5 296.5t-212.5 93.5q-45 0 -78.5 -10t-63 -35.5t-48 -69
t-29 -112.5t-10.5 -163q0 -114 14.5 -190t45.5 -118t71.5 -58.5t99.5 -16.5z" />
    <glyph glyph-name="Emacron" unicode="&#x112;" horiz-adv-x="989" 
d="M866 0h-723q-22 0 -31.5 9.5t-9.5 31.5v1393q0 22 9.5 31.5t31.5 9.5h723q22 0 31.5 -9.5t9.5 -31.5v-103q0 -22 -9.5 -31.5t-31.5 -9.5h-506v-452h404q22 0 31.5 -9.5t9.5 -31.5v-103q0 -22 -9.5 -31.5t-31.5 -9.5h-404v-469h506q22 0 31.5 -9.5t9.5 -31.5v-102
q0 -22 -9.5 -31.5t-31.5 -9.5zM811 1700h-635q-22 0 -31.5 9.5t-9.5 31.5v61q0 22 9.5 31.5t31.5 9.5h635q22 0 31.5 -9.5t9.5 -31.5v-61q0 -22 -9.5 -31.5t-31.5 -9.5z" />
    <glyph glyph-name="emacron" unicode="&#x113;" horiz-adv-x="1056" 
d="M885 195l43 -66q19 -29 -2 -53q-32 -37 -136.5 -69t-226.5 -32q-110 0 -195 30t-138.5 79.5t-87 121.5t-47 148.5t-13.5 167.5q0 122 25 222.5t77.5 180t142 123.5t210.5 44q94 0 173 -27.5t138.5 -81t93 -138.5t33.5 -194q0 -118 -47.5 -161.5t-175.5 -43.5h-420
q6 -68 22 -120t45 -93.5t77 -63.5t114 -22q37 0 82 8.5t74 17t85 26.5q42 12 54 -4zM332 618h315q49 0 64.5 12.5t15.5 57.5q0 94 -50.5 163t-129.5 69q-193 0 -215 -302zM846 1290h-635q-22 0 -31.5 9.5t-9.5 31.5v62q0 22 9.5 31.5t31.5 9.5h635q22 0 31.5 -9.5t9.5 -31.5
v-62q0 -22 -9.5 -31.5t-31.5 -9.5z" />
    <glyph glyph-name="Ebreve" unicode="&#x114;" horiz-adv-x="989" 
d="M866 0h-723q-22 0 -31.5 9.5t-9.5 31.5v1393q0 22 9.5 31.5t31.5 9.5h723q22 0 31.5 -9.5t9.5 -31.5v-103q0 -22 -9.5 -31.5t-31.5 -9.5h-506v-452h404q22 0 31.5 -9.5t9.5 -31.5v-103q0 -22 -9.5 -31.5t-31.5 -9.5h-404v-469h506q22 0 31.5 -9.5t9.5 -31.5v-102
q0 -22 -9.5 -31.5t-31.5 -9.5zM244 1925h88q16 0 26 -20q28 -88 140 -88q111 0 137 88q1 7 10.5 13.5t18.5 6.5h86q12 0 21 -10.5t9 -22.5q-3 -108 -83.5 -173.5t-198.5 -65.5q-108 0 -193 63.5t-92 175.5q-3 13 7 23t24 10z" />
    <glyph glyph-name="ebreve" unicode="&#x115;" horiz-adv-x="1056" 
d="M885 195l43 -66q19 -29 -2 -53q-32 -37 -136.5 -69t-226.5 -32q-110 0 -195 30t-138.5 79.5t-87 121.5t-47 148.5t-13.5 167.5q0 122 25 222.5t77.5 180t142 123.5t210.5 44q94 0 173 -27.5t138.5 -81t93 -138.5t33.5 -194q0 -118 -47.5 -161.5t-175.5 -43.5h-420
q6 -68 22 -120t45 -93.5t77 -63.5t114 -22q37 0 82 8.5t74 17t85 26.5q42 12 54 -4zM332 618h315q49 0 64.5 12.5t15.5 57.5q0 94 -50.5 163t-129.5 69q-193 0 -215 -302zM276 1516h89q15 0 26 -21q28 -88 139 -88q112 0 138 88q2 8 10.5 14.5t17.5 6.5h86q12 0 21.5 -10.5
t9.5 -22.5q-3 -108 -84 -174t-199 -66q-108 0 -192.5 64t-91.5 176q-3 13 6.5 23t23.5 10z" />
    <glyph glyph-name="Edotaccent" unicode="&#x116;" horiz-adv-x="989" 
d="M866 0h-723q-22 0 -31.5 9.5t-9.5 31.5v1393q0 22 9.5 31.5t31.5 9.5h723q22 0 31.5 -9.5t9.5 -31.5v-103q0 -22 -9.5 -31.5t-31.5 -9.5h-506v-452h404q22 0 31.5 -9.5t9.5 -31.5v-103q0 -22 -9.5 -31.5t-31.5 -9.5h-404v-469h506q22 0 31.5 -9.5t9.5 -31.5v-102
q0 -22 -9.5 -31.5t-31.5 -9.5zM575 1679h-163q-22 0 -31.5 9.5t-9.5 31.5v164q0 22 9.5 31.5t31.5 9.5h163q22 0 31.5 -9.5t9.5 -31.5v-164q0 -22 -9.5 -31.5t-31.5 -9.5z" />
    <glyph glyph-name="edotaccent" unicode="&#x117;" horiz-adv-x="1056" 
d="M885 195l43 -66q19 -29 -2 -53q-32 -37 -136.5 -69t-226.5 -32q-110 0 -195 30t-138.5 79.5t-87 121.5t-47 148.5t-13.5 167.5q0 122 25 222.5t77.5 180t142 123.5t210.5 44q94 0 173 -27.5t138.5 -81t93 -138.5t33.5 -194q0 -118 -47.5 -161.5t-175.5 -43.5h-420
q6 -68 22 -120t45 -93.5t77 -63.5t114 -22q37 0 82 8.5t74 17t85 26.5q42 12 54 -4zM332 618h315q49 0 64.5 12.5t15.5 57.5q0 94 -50.5 163t-129.5 69q-193 0 -215 -302zM610 1270h-164q-22 0 -31 9.5t-9 31.5v164q0 22 9 31.5t31 9.5h164q22 0 31.5 -9.5t9.5 -31.5v-164
q0 -22 -9.5 -31.5t-31.5 -9.5z" />
    <glyph glyph-name="Eogonek" unicode="&#x118;" horiz-adv-x="989" 
d="M715 0h-572q-22 0 -31.5 9.5t-9.5 31.5v1393q0 22 9.5 31.5t31.5 9.5h723q22 0 31.5 -9.5t9.5 -31.5v-103q0 -22 -9.5 -31.5t-31.5 -9.5h-506v-452h404q22 0 31.5 -9.5t9.5 -31.5v-103q0 -22 -9.5 -31.5t-31.5 -9.5h-404v-469h506q22 0 31.5 -9.5t9.5 -31.5v-102
q0 -13 -1.5 -17.5t-7.5 -10t-11 -13.5l-76 -119q-31 -50 -31 -88q0 -43 41 -43q7 0 19.5 7t13.5 7q31 29 49 -22q3 -6 8.5 -20.5t8.5 -20.5q1 -7 1.5 -12.5t-0.5 -8.5t-4 -7t-5.5 -6t-8.5 -6.5t-10 -8.5q-62 -48 -137 -53q-160 6 -160 145q0 95 59 174z" />
    <glyph glyph-name="eogonek" unicode="&#x119;" horiz-adv-x="1056" 
d="M885 195l43 -66q17 -25 0 -53l-109 -195q-31 -57 -31 -88q0 -43 41 -43q7 0 19.5 7t13.5 7q31 29 49 -22q3 -6 8.5 -20.5t8.5 -20.5q2 -9 3 -14t-2 -10t-5 -7t-10.5 -8.5t-12.5 -9.5q-62 -48 -137 -53q-160 6 -160 145q0 94 60 174l51 72q-88 -15 -152 -15
q-110 0 -195 30t-138.5 79.5t-87 121.5t-47 148.5t-13.5 167.5q0 122 25 222.5t77.5 180t142 123.5t210.5 44q94 0 173 -27.5t138.5 -81t93 -138.5t33.5 -194q0 -118 -47.5 -161.5t-175.5 -43.5h-420q6 -68 22 -120t45 -93.5t77 -63.5t114 -22q37 0 82 8.5t74 17t85 26.5
q42 12 54 -4zM332 618h315q49 0 64.5 12.5t15.5 57.5q0 94 -50.5 163t-129.5 69q-193 0 -215 -302z" />
    <glyph glyph-name="Ecaron" unicode="&#x11a;" horiz-adv-x="989" 
d="M866 0h-723q-22 0 -31.5 9.5t-9.5 31.5v1393q0 22 9.5 31.5t31.5 9.5h723q22 0 31.5 -9.5t9.5 -31.5v-103q0 -22 -9.5 -31.5t-31.5 -9.5h-506v-452h404q22 0 31.5 -9.5t9.5 -31.5v-103q0 -22 -9.5 -31.5t-31.5 -9.5h-404v-469h506q22 0 31.5 -9.5t9.5 -31.5v-102
q0 -22 -9.5 -31.5t-31.5 -9.5zM367 1896l127 -127l127 127q29 29 69 29h70q21 0 24.5 -8t-8.5 -25l-147 -204q-23 -33 -66 -33h-139q-43 0 -66 33l-147 204q-12 17 -8.5 25t24.5 8h70q41 0 70 -29z" />
    <glyph glyph-name="ecaron" unicode="&#x11b;" horiz-adv-x="1056" 
d="M885 195l43 -66q19 -29 -2 -53q-32 -37 -136.5 -69t-226.5 -32q-110 0 -195 30t-138.5 79.5t-87 121.5t-47 148.5t-13.5 167.5q0 122 25 222.5t77.5 180t142 123.5t210.5 44q94 0 173 -27.5t138.5 -81t93 -138.5t33.5 -194q0 -118 -47.5 -161.5t-175.5 -43.5h-420
q6 -68 22 -120t45 -93.5t77 -63.5t114 -22q37 0 82 8.5t74 17t85 26.5q42 12 54 -4zM332 618h315q49 0 64.5 12.5t15.5 57.5q0 94 -50.5 163t-129.5 69q-193 0 -215 -302zM401 1487l127 -127l127 127q29 29 70 29h70q21 0 24.5 -8t-8.5 -25l-147 -205q-23 -33 -66 -33h-139
q-43 0 -66 33l-147 205q-12 17 -8.5 25t24.5 8h70q40 0 69 -29z" />
    <glyph glyph-name="Gcircumflex" unicode="&#x11c;" horiz-adv-x="1329" 
d="M967 172v481h-181q-22 0 -31.5 9.5t-9.5 31.5v103q0 22 9.5 31.5t31.5 9.5h398q22 0 31.5 -9.5t9.5 -31.5v-693q2 -17 -11 -28q-46 -33 -167 -67t-242 -34q-155 0 -285.5 48t-228.5 140.5t-153.5 239.5t-55.5 334t55 334t153 239.5t228.5 140.5t286.5 48
q122 0 242.5 -33.5t166.5 -66.5q11 -9 11.5 -19.5t-8.5 -33.5l-33 -76q-12 -17 -54 -4q-193 49 -325 49q-97 0 -176 -31.5t-142.5 -97.5t-99 -180.5t-35.5 -268.5q0 -124 23.5 -222.5t64.5 -164t99.5 -109t124 -62.5t141.5 -19q85 0 162 12zM793 1810l-127 -127
q-28 -28 -70 -28h-70q-21 0 -24.5 8t8.5 25l147 204q23 33 66 33h139q43 0 66 -33l147 -204q12 -17 8.5 -25t-24.5 -8h-70q-41 0 -69 28z" />
    <glyph glyph-name="gcircumflex" unicode="&#x11d;" horiz-adv-x="1189" 
d="M842 39v86h-4q-98 -150 -316 -150q-74 0 -137.5 17t-120 58.5t-96.5 104.5t-63 160.5t-23 221.5q0 123 23 219.5t62.5 158.5t95.5 102.5t118 57.5t135 17q241 0 363 -154h4l20 86q5 23 12.5 32t28.5 9h103q22 0 31 -9.5t9 -31.5v-963q0 -241 -135 -385.5t-354 -144.5
q-121 0 -255 34t-175 66q-10 9 -10.5 20t8.5 34l33 86q7 18 53 4q57 -15 161.5 -32t182.5 -17q110 0 178 86.5t68 226.5zM557 147q140 0 212.5 93.5t72.5 296.5q0 199 -71.5 291t-211.5 92q-59 0 -99.5 -16.5t-71.5 -58.5t-45.5 -118t-14.5 -190q0 -94 10.5 -163t29 -112.5
t48 -69t63 -35.5t78.5 -10zM594 1401l-127 -127q-29 -29 -70 -29h-69q-22 0 -25.5 8t8.5 25l148 205q23 33 65 33h140q42 0 65 -33l148 -205q12 -17 8.5 -25t-25.5 -8h-69q-41 0 -70 29z" />
    <glyph glyph-name="Gbreve" unicode="&#x11e;" horiz-adv-x="1329" 
d="M967 172v481h-181q-22 0 -31.5 9.5t-9.5 31.5v103q0 22 9.5 31.5t31.5 9.5h398q22 0 31.5 -9.5t9.5 -31.5v-693q2 -17 -11 -28q-46 -33 -167 -67t-242 -34q-155 0 -285.5 48t-228.5 140.5t-153.5 239.5t-55.5 334t55 334t153 239.5t228.5 140.5t286.5 48
q122 0 242.5 -33.5t166.5 -66.5q11 -9 11.5 -19.5t-8.5 -33.5l-33 -76q-12 -17 -54 -4q-193 49 -325 49q-97 0 -176 -31.5t-142.5 -97.5t-99 -180.5t-35.5 -268.5q0 -124 23.5 -222.5t64.5 -164t99.5 -109t124 -62.5t141.5 -19q85 0 162 12zM532 1925h89q16 0 26 -20
q28 -88 139 -88q112 0 138 88q2 7 10.5 13.5t17.5 6.5h86q12 0 21.5 -10.5t9.5 -22.5q-3 -108 -84 -173.5t-199 -65.5q-108 0 -192.5 63.5t-91.5 175.5q-3 13 6.5 23t23.5 10z" />
    <glyph glyph-name="gbreve" unicode="&#x11f;" horiz-adv-x="1189" 
d="M842 39v86h-4q-98 -150 -316 -150q-74 0 -137.5 17t-120 58.5t-96.5 104.5t-63 160.5t-23 221.5q0 123 23 219.5t62.5 158.5t95.5 102.5t118 57.5t135 17q241 0 363 -154h4l20 86q5 23 12.5 32t28.5 9h103q22 0 31 -9.5t9 -31.5v-963q0 -241 -135 -385.5t-354 -144.5
q-121 0 -255 34t-175 66q-10 9 -10.5 20t8.5 34l33 86q7 18 53 4q57 -15 161.5 -32t182.5 -17q110 0 178 86.5t68 226.5zM557 147q140 0 212.5 93.5t72.5 296.5q0 199 -71.5 291t-211.5 92q-59 0 -99.5 -16.5t-71.5 -58.5t-45.5 -118t-14.5 -190q0 -94 10.5 -163t29 -112.5
t48 -69t63 -35.5t78.5 -10zM344 1516h88q16 0 27 -21q28 -88 139 -88t137 88q2 8 11 14.5t18 6.5h86q12 0 21.5 -10.5t9.5 -22.5q-3 -108 -84 -174t-199 -66q-108 0 -193 64t-92 176q-3 13 7 23t24 10z" />
    <glyph glyph-name="Gdotaccent" unicode="&#x120;" horiz-adv-x="1329" 
d="M967 172v481h-181q-22 0 -31.5 9.5t-9.5 31.5v103q0 22 9.5 31.5t31.5 9.5h398q22 0 31.5 -9.5t9.5 -31.5v-693q2 -17 -11 -28q-46 -33 -167 -67t-242 -34q-155 0 -285.5 48t-228.5 140.5t-153.5 239.5t-55.5 334t55 334t153 239.5t228.5 140.5t286.5 48
q122 0 242.5 -33.5t166.5 -66.5q11 -9 11.5 -19.5t-8.5 -33.5l-33 -76q-12 -17 -54 -4q-193 49 -325 49q-97 0 -176 -31.5t-142.5 -97.5t-99 -180.5t-35.5 -268.5q0 -124 23.5 -222.5t64.5 -164t99.5 -109t124 -62.5t141.5 -19q85 0 162 12zM874 1679h-163q-22 0 -31.5 9.5
t-9.5 31.5v164q0 22 9.5 31.5t31.5 9.5h163q22 0 31.5 -9.5t9.5 -31.5v-164q0 -22 -9.5 -31.5t-31.5 -9.5z" />
    <glyph glyph-name="gdotaccent" unicode="&#x121;" horiz-adv-x="1189" 
d="M842 39v86h-4q-98 -150 -316 -150q-74 0 -137.5 17t-120 58.5t-96.5 104.5t-63 160.5t-23 221.5q0 123 23 219.5t62.5 158.5t95.5 102.5t118 57.5t135 17q241 0 363 -154h4l20 86q5 23 12.5 32t28.5 9h103q22 0 31 -9.5t9 -31.5v-963q0 -241 -135 -385.5t-354 -144.5
q-121 0 -255 34t-175 66q-10 9 -10.5 20t8.5 34l33 86q7 18 53 4q57 -15 161.5 -32t182.5 -17q110 0 178 86.5t68 226.5zM557 147q140 0 212.5 93.5t72.5 296.5q0 199 -71.5 291t-211.5 92q-59 0 -99.5 -16.5t-71.5 -58.5t-45.5 -118t-14.5 -190q0 -94 10.5 -163t29 -112.5
t48 -69t63 -35.5t78.5 -10zM676 1270h-164q-22 0 -31.5 9.5t-9.5 31.5v164q0 22 9.5 31.5t31.5 9.5h164q22 0 31.5 -9.5t9.5 -31.5v-164q0 -22 -9.5 -31.5t-31.5 -9.5z" />
    <glyph glyph-name="uni0122" unicode="&#x122;" horiz-adv-x="1329" 
d="M967 172v481h-181q-22 0 -31.5 9.5t-9.5 31.5v103q0 22 9.5 31.5t31.5 9.5h398q22 0 31.5 -9.5t9.5 -31.5v-693q2 -17 -11 -28q-46 -33 -167 -67t-242 -34q-155 0 -285.5 48t-228.5 140.5t-153.5 239.5t-55.5 334t55 334t153 239.5t228.5 140.5t286.5 48
q122 0 242.5 -33.5t166.5 -66.5q11 -9 11.5 -19.5t-8.5 -33.5l-33 -76q-12 -17 -54 -4q-193 49 -325 49q-97 0 -176 -31.5t-142.5 -97.5t-99 -180.5t-35.5 -268.5q0 -124 23.5 -222.5t64.5 -164t99.5 -109t124 -62.5t141.5 -19q85 0 162 12zM735 -510h-73q-22 0 -31.5 9.5
t-9.5 31.5v205q0 22 9.5 31.5t31.5 9.5h204q22 0 31.5 -9.5t9.5 -31.5v-236q0 -93 -33 -181t-67 -126q-20 -24 -53 -2l-66 43q-18 12 -4 53q2 7 13 35.5t18 48.5t13.5 54t6.5 65z" />
    <glyph glyph-name="uni0123" unicode="&#x123;" horiz-adv-x="1189" 
d="M588 1513h74q22 0 31 -9t9 -31v-205q0 -22 -9 -31.5t-31 -9.5h-205q-22 0 -31.5 9.5t-9.5 31.5v235q0 93 33 181t67 126q20 24 53 2l66 -43q17 -13 4 -53q-2 -7 -13 -35.5t-18 -48.5t-13.5 -54t-6.5 -65zM842 39v86h-4q-98 -150 -316 -150q-74 0 -137.5 17t-120 58.5
t-96.5 104.5t-63 160.5t-23 221.5q0 123 23 219.5t62.5 158.5t95.5 102.5t118 57.5t135 17q241 0 363 -154h4l20 86q5 23 12.5 32t28.5 9h103q22 0 31 -9.5t9 -31.5v-963q0 -241 -135 -385.5t-354 -144.5q-121 0 -255 34t-175 66q-10 9 -10.5 20t8.5 34l33 86q7 18 53 4
q57 -15 161.5 -32t182.5 -17q110 0 178 86.5t68 226.5zM557 147q140 0 212.5 93.5t72.5 296.5q0 199 -71.5 291t-211.5 92q-59 0 -99.5 -16.5t-71.5 -58.5t-45.5 -118t-14.5 -190q0 -94 10.5 -163t29 -112.5t48 -69t63 -35.5t78.5 -10z" />
    <glyph glyph-name="Hcircumflex" unicode="&#x124;" horiz-adv-x="1247" 
d="M1104 0h-176q-22 0 -31.5 9.5t-9.5 31.5v623h-527v-623q0 -22 -9.5 -31.5t-31.5 -9.5h-176q-22 0 -31.5 9.5t-9.5 31.5v1393q0 22 9.5 31.5t31.5 9.5h176q22 0 31.5 -9.5t9.5 -31.5v-586h527v586q0 22 9.5 31.5t31.5 9.5h176q22 0 31.5 -9.5t9.5 -31.5v-1393
q0 -22 -9.5 -31.5t-31.5 -9.5zM623 1810l-127 -127q-28 -28 -70 -28h-70q-21 0 -24.5 8t8.5 25l147 204q23 33 66 33h139q43 0 66 -33l147 -204q12 -17 8.5 -25t-24.5 -8h-70q-41 0 -69 28z" />
    <glyph glyph-name="hcircumflex" unicode="&#x125;" horiz-adv-x="1128" 
d="M985 0h-164q-22 0 -31.5 9.5t-9.5 31.5v487q0 117 -12.5 195t-38 120t-58 58.5t-79.5 16.5q-121 0 -182.5 -78t-61.5 -250v-549q0 -22 -9.5 -31.5t-31.5 -9.5h-164q-22 0 -31.5 9.5t-9.5 31.5v1434q0 22 9.5 31.5t31.5 9.5h164q22 0 31.5 -9.5t9.5 -31.5v-535h4
q83 150 275 150q68 0 125 -17t108.5 -58.5t87.5 -104.5t57 -160.5t21 -221.5v-487q0 -22 -9.5 -31.5t-31.5 -9.5zM563 1810l-127 -127q-28 -28 -69 -28h-70q-21 0 -24.5 8t8.5 25l147 204q23 33 66 33h139q42 0 65 -33l148 -204q12 -17 8.5 -25t-25.5 -8h-69q-42 0 -70 28z
" />
    <glyph glyph-name="Hbar" unicode="&#x126;" horiz-adv-x="1247" 
d="M1206 1104l-1165 2q-22 0 -31.5 9.5t-9.5 31.5v61q0 22 9.5 31.5t31.5 9.5l1165 -2q22 0 31.5 -9.5t9.5 -31.5v-61q0 -22 -9.5 -31.5t-31.5 -9.5zM1104 0h-176q-22 0 -31.5 9.5t-9.5 31.5v623h-527v-623q0 -22 -9.5 -31.5t-31.5 -9.5h-176q-22 0 -31.5 9.5t-9.5 31.5
v1393q0 22 9.5 31.5t31.5 9.5h176q22 0 31.5 -9.5t9.5 -31.5v-586h527v586q0 22 9.5 31.5t31.5 9.5h176q22 0 31.5 -9.5t9.5 -31.5v-1393q0 -22 -9.5 -31.5t-31.5 -9.5z" />
    <glyph glyph-name="hbar" unicode="&#x127;" horiz-adv-x="1202" 
d="M1059 0h-164q-22 0 -31.5 9.5t-9.5 31.5v487q0 117 -12.5 195t-38 120t-58 58.5t-79.5 16.5q-121 0 -182.5 -78t-61.5 -250v-549q0 -22 -9.5 -31.5t-31.5 -9.5h-164q-22 0 -31.5 9.5t-9.5 31.5v1145h-102q-22 0 -31.5 9.5t-9.5 31.5v102q0 22 9.5 31.5t31.5 9.5h102v105
q0 22 9.5 31.5t31.5 9.5h164q22 0 31.5 -9.5t9.5 -31.5v-105h328q22 0 31.5 -9.5t9.5 -31.5v-102q0 -22 -9.5 -31.5t-31.5 -9.5h-328v-246h4q83 150 274 150q68 0 125.5 -17t109 -58.5t87.5 -104.5t57 -160.5t21 -221.5v-487q0 -22 -9.5 -31.5t-31.5 -9.5z" />
    <glyph glyph-name="Itilde" unicode="&#x128;" horiz-adv-x="462" 
d="M319 0h-176q-22 0 -31.5 9.5t-9.5 31.5v1393q0 22 9.5 31.5t31.5 9.5h176q22 0 31.5 -9.5t9.5 -31.5v-1393q0 -22 -9.5 -31.5t-31.5 -9.5zM39 1657h-62q-13 0 -22.5 10.5t-9.5 22.5q3 91 46.5 146.5t133.5 55.5q42 0 135 -39q73 -32 82 -32q15 0 24 10.5t13.5 23t16.5 23
t32 10.5h61q12 0 21.5 -10.5t9.5 -22.5q-2 -90 -45 -146t-133 -56q-30 0 -70 16q-23 9 -62.5 25t-58.5 23t-26 7q-14 0 -25 -10.5t-17 -23t-17.5 -23t-26.5 -10.5z" />
    <glyph glyph-name="itilde" unicode="&#x129;" horiz-adv-x="450" 
d="M307 0h-164q-22 0 -31.5 9.5t-9.5 31.5v983q0 22 9.5 31.5t31.5 9.5h164q22 0 31.5 -9.5t9.5 -31.5v-983q0 -22 -9.5 -31.5t-31.5 -9.5zM33 1247h-62q-13 0 -22.5 10.5t-9.5 22.5q3 91 46.5 147t133.5 56q42 0 135 -39q75 -33 82 -33q15 0 24 10.5t13.5 23.5t16.5 23.5
t32 10.5h61q12 0 21.5 -10.5t9.5 -22.5q-2 -91 -45 -147t-133 -56q-28 0 -70 17q-23 9 -62.5 25t-58.5 23t-26 7q-18 0 -30 -17t-24.5 -34t-31.5 -17z" />
    <glyph glyph-name="Imacron" unicode="&#x12a;" horiz-adv-x="462" 
d="M319 0h-176q-22 0 -31.5 9.5t-9.5 31.5v1393q0 22 9.5 31.5t31.5 9.5h176q22 0 31.5 -9.5t9.5 -31.5v-1393q0 -22 -9.5 -31.5t-31.5 -9.5zM549 1700h-635q-22 0 -31.5 9.5t-9.5 31.5v61q0 22 9.5 31.5t31.5 9.5h635q22 0 31.5 -9.5t9.5 -31.5v-61q0 -22 -9.5 -31.5
t-31.5 -9.5z" />
    <glyph glyph-name="imacron" unicode="&#x12b;" horiz-adv-x="450" 
d="M307 0h-164q-22 0 -31.5 9.5t-9.5 31.5v983q0 22 9.5 31.5t31.5 9.5h164q22 0 31.5 -9.5t9.5 -31.5v-983q0 -22 -9.5 -31.5t-31.5 -9.5zM543 1290h-635q-22 0 -31.5 9.5t-9.5 31.5v62q0 22 9.5 31.5t31.5 9.5h635q22 0 31.5 -9.5t9.5 -31.5v-62q0 -22 -9.5 -31.5
t-31.5 -9.5z" />
    <glyph glyph-name="Ibreve" unicode="&#x12c;" horiz-adv-x="462" 
d="M319 0h-176q-22 0 -31.5 9.5t-9.5 31.5v1393q0 22 9.5 31.5t31.5 9.5h176q22 0 31.5 -9.5t9.5 -31.5v-1393q0 -22 -9.5 -31.5t-31.5 -9.5zM-18 1925h88q16 0 26 -20q28 -88 140 -88q111 0 137 88q1 7 10 13.5t18 6.5h86q12 0 21.5 -10.5t9.5 -22.5q-3 -108 -83.5 -173.5
t-198.5 -65.5q-108 0 -193 63.5t-92 175.5q-3 13 7 23t24 10z" />
    <glyph glyph-name="ibreve" unicode="&#x12d;" horiz-adv-x="450" 
d="M307 0h-164q-22 0 -31.5 9.5t-9.5 31.5v983q0 22 9.5 31.5t31.5 9.5h164q22 0 31.5 -9.5t9.5 -31.5v-983q0 -22 -9.5 -31.5t-31.5 -9.5zM-25 1516h88q7 0 15.5 -7t11.5 -14q28 -88 139 -88q112 0 138 88q2 8 10.5 14.5t17.5 6.5h86q12 0 21.5 -10.5t9.5 -22.5
q-3 -108 -84 -174t-199 -66q-108 0 -192.5 64t-91.5 176q-3 13 6.5 23t23.5 10z" />
    <glyph glyph-name="Iogonek" unicode="&#x12e;" horiz-adv-x="462" 
d="M186 0h-43q-22 0 -31.5 9.5t-9.5 31.5v1393q0 22 9.5 31.5t31.5 9.5h176q22 0 31.5 -9.5t9.5 -31.5v-1393l-2 -41l-75 -119q-31 -50 -31 -88q0 -43 41 -43q7 0 19.5 7t13.5 7q31 29 49 -22q3 -6 8 -20.5t8 -20.5q2 -7 2.5 -12.5t0 -8.5t-3.5 -7t-5 -5.5t-9 -7t-11 -8.5
q-62 -48 -138 -53q-159 6 -159 145q0 95 59 174z" />
    <glyph glyph-name="iogonek" unicode="&#x12f;" horiz-adv-x="450" 
d="M176 0h-33q-22 0 -31.5 9.5t-9.5 31.5v983q0 22 9.5 31.5t31.5 9.5h164q22 0 31.5 -9.5t9.5 -31.5v-983q0 -42 -22 -76l-54 -84q-30 -48 -30 -88q0 -43 41 -43q9 0 32 14q23 10 32 4.5t18 -26.5q7 -14 16 -41q3 -9 4 -14t-2 -10t-5.5 -7t-10.5 -8t-13 -10
q-62 -48 -137 -53q-160 6 -160 145q0 94 60 174zM307 1270h-164q-22 0 -31.5 9.5t-9.5 31.5v164q0 22 9.5 31.5t31.5 9.5h164q22 0 31.5 -9.5t9.5 -31.5v-164q0 -22 -9.5 -31.5t-31.5 -9.5z" />
    <glyph glyph-name="Idotaccent" unicode="&#x130;" horiz-adv-x="462" 
d="M319 0h-176q-22 0 -31.5 9.5t-9.5 31.5v1393q0 22 9.5 31.5t31.5 9.5h176q22 0 31.5 -9.5t9.5 -31.5v-1393q0 -22 -9.5 -31.5t-31.5 -9.5zM313 1679h-163q-22 0 -31.5 9.5t-9.5 31.5v164q0 22 9.5 31.5t31.5 9.5h163q22 0 31.5 -9.5t9.5 -31.5v-164q0 -22 -9.5 -31.5
t-31.5 -9.5z" />
    <glyph glyph-name="dotlessi" unicode="&#x131;" horiz-adv-x="450" 
d="M307 0h-164q-22 0 -31.5 9.5t-9.5 31.5v983q0 22 9.5 31.5t31.5 9.5h164q22 0 31.5 -9.5t9.5 -31.5v-983q0 -22 -9.5 -31.5t-31.5 -9.5z" />
    <glyph glyph-name="IJ" unicode="&#x132;" horiz-adv-x="1191" 
d="M319 0h-176q-22 0 -31.5 9.5t-9.5 31.5v1393q0 22 9.5 31.5t31.5 9.5h176q22 0 31.5 -9.5t9.5 -31.5v-1393q0 -22 -9.5 -31.5t-31.5 -9.5zM483 45v98q0 22 9.5 31.5t31.5 9.5h27q157 0 229 86.5t72 302.5v861q0 22 9.5 31.5t31.5 9.5h176q22 0 31.5 -9.5t9.5 -31.5v-904
q-3 -255 -139.5 -392.5t-372.5 -137.5l-78 2q-20 1 -28.5 11t-8.5 32z" />
    <glyph glyph-name="ij" unicode="&#x133;" horiz-adv-x="901" 
d="M307 1270h-164q-22 0 -31.5 9.5t-9.5 31.5v164q0 22 9.5 31.5t31.5 9.5h164q22 0 31.5 -9.5t9.5 -31.5v-164q0 -22 -9.5 -31.5t-31.5 -9.5zM307 0h-164q-22 0 -31.5 9.5t-9.5 31.5v983q0 22 9.5 31.5t31.5 9.5h164q22 0 31.5 -9.5t9.5 -31.5v-983q0 -22 -9.5 -31.5
t-31.5 -9.5zM758 1270h-164q-22 0 -31.5 9.5t-9.5 31.5v164q0 22 9.5 31.5t31.5 9.5h164q22 0 31.5 -9.5t9.5 -31.5v-164q0 -22 -9.5 -31.5t-31.5 -9.5zM516 -451h-35q-22 0 -31.5 9.5t-9.5 31.5v91q0 22 9.5 31t31.5 9h15q23 0 40 41t17 121v1141q0 22 9.5 31.5t31.5 9.5
h164q22 0 31.5 -9.5t9.5 -31.5v-1155q0 -320 -283 -320z" />
    <glyph glyph-name="Jcircumflex" unicode="&#x134;" horiz-adv-x="729" 
d="M20 45v98q0 22 9.5 31.5t31.5 9.5h27q157 0 229 86.5t72 302.5v861q0 22 9.5 31.5t31.5 9.5h176q22 0 31.5 -9.5t9.5 -31.5v-904q-3 -255 -139.5 -392.5t-372.5 -137.5l-78 2q-20 1 -28.5 11t-8.5 32zM522 1810l-127 -127q-28 -28 -69 -28h-70q-21 0 -24.5 8t8.5 25
l147 204q23 33 66 33h139q42 0 65 -33l148 -204q12 -17 8.5 -25t-25.5 -8h-69q-42 0 -70 28z" />
    <glyph glyph-name="jcircumflex" unicode="&#x135;" horiz-adv-x="450" 
d="M66 -451h-35q-22 0 -31.5 9.5t-9.5 31.5v91q0 22 9.5 31t31.5 9h14q23 0 40 41t17 121v1141q0 22 9.5 31.5t31.5 9.5h164q22 0 31.5 -9.5t9.5 -31.5v-1155q0 -320 -282 -320zM225 1401l-127 -127q-29 -29 -69 -29h-70q-21 0 -24.5 8t8.5 25l147 205q23 33 66 33h139
q42 0 65 -33l148 -205q12 -17 8.5 -25t-24.5 -8h-70q-41 0 -70 29z" />
    <glyph glyph-name="uni0136" unicode="&#x136;" horiz-adv-x="1304" 
d="M1161 0h-241q-43 0 -66 33l-494 637v-629q0 -22 -9.5 -31.5t-31.5 -9.5h-176q-22 0 -31.5 9.5t-9.5 31.5v1393q0 22 9.5 31.5t31.5 9.5h176q22 0 31.5 -9.5t9.5 -31.5v-631l508 639q23 33 66 33h211q21 0 24.5 -8t-8.5 -25l-571 -686l588 -723q12 -17 8.5 -25t-25.5 -8z
M623 -510h-74q-22 0 -31.5 9.5t-9.5 31.5v205q0 22 9.5 31.5t31.5 9.5h205q22 0 31.5 -9.5t9.5 -31.5v-236q0 -93 -33.5 -181t-67.5 -126q-20 -24 -53 -2l-66 43q-17 12 -4 53q3 7 14 35t18 49t13.5 54.5t6.5 64.5z" />
    <glyph glyph-name="uni0137" unicode="&#x137;" horiz-adv-x="997" 
d="M948 0h-200q-43 0 -66 33l-336 432v-424q0 -22 -9.5 -31.5t-31.5 -9.5h-162q-22 0 -31.5 9.5t-9.5 31.5v1434q0 22 9.5 31.5t31.5 9.5h162q22 0 31.5 -9.5t9.5 -31.5v-877l344 434q23 33 66 33h170q22 0 26 -9t-10 -24l-407 -481l430 -518q14 -15 9.5 -24t-26.5 -9z
M469 -510h-74q-22 0 -31.5 9.5t-9.5 31.5v205q0 22 9.5 31.5t31.5 9.5h205q22 0 31.5 -9.5t9.5 -31.5v-236q0 -93 -33 -181t-67 -126q-21 -24 -54 -2l-65 43q-18 12 -4 53q2 7 13 35.5t18 48.5t13.5 54t6.5 65z" />
    <glyph glyph-name="kgreenlandic" unicode="&#x138;" horiz-adv-x="997" 
d="M948 0h-200q-43 0 -66 33l-336 432v-424q0 -22 -9.5 -31.5t-31.5 -9.5h-162q-22 0 -31.5 9.5t-9.5 31.5v983q0 22 9.5 31.5t31.5 9.5h162q22 0 31.5 -9.5t9.5 -31.5v-426l344 434q23 33 66 33h170q22 0 26 -9t-10 -24l-407 -481l430 -518q14 -15 9.5 -24t-26.5 -9z" />
    <glyph glyph-name="Lacute" unicode="&#x139;" horiz-adv-x="948" 
d="M907 143v-102q0 -22 -9.5 -31.5t-31.5 -9.5h-723q-22 0 -31.5 9.5t-9.5 31.5v1393q0 22 9.5 31.5t31.5 9.5h176q22 0 31.5 -9.5t9.5 -31.5v-1250h506q22 0 31.5 -9.5t9.5 -31.5zM227 1690l123 200q22 35 64 35h186q43 0 10 -29l-227 -213q-32 -28 -72 -28h-63
q-22 0 -27 8t6 27z" />
    <glyph glyph-name="lacute" unicode="&#x13a;" horiz-adv-x="462" 
d="M420 0h-35q-283 0 -283 319v1156q0 22 9.5 31.5t31.5 9.5h164q22 0 31.5 -9.5t9.5 -31.5v-1141q0 -80 17.5 -121t40.5 -41h14q22 0 31.5 -9.5t9.5 -31.5v-90q0 -22 -9.5 -31.5t-31.5 -9.5zM227 1690l123 200q22 35 64 35h186q43 0 10 -29l-227 -213q-32 -28 -72 -28h-63
q-22 0 -27 8t6 27z" />
    <glyph glyph-name="uni013B" unicode="&#x13b;" horiz-adv-x="948" 
d="M907 143v-102q0 -22 -9.5 -31.5t-31.5 -9.5h-723q-22 0 -31.5 9.5t-9.5 31.5v1393q0 22 9.5 31.5t31.5 9.5h176q22 0 31.5 -9.5t9.5 -31.5v-1250h506q22 0 31.5 -9.5t9.5 -31.5zM444 -510h-73q-22 0 -31.5 9.5t-9.5 31.5v205q0 22 9.5 31.5t31.5 9.5h204q22 0 31.5 -9.5
t9.5 -31.5v-236q0 -93 -33 -181t-67 -126q-20 -24 -53 -2l-66 43q-18 12 -4 53q2 7 13 35.5t18 48.5t13.5 54t6.5 65z" />
    <glyph glyph-name="uni013C" unicode="&#x13c;" horiz-adv-x="462" 
d="M420 0h-35q-283 0 -283 319v1156q0 22 9.5 31.5t31.5 9.5h164q22 0 31.5 -9.5t9.5 -31.5v-1141q0 -80 17.5 -121t40.5 -41h14q22 0 31.5 -9.5t9.5 -31.5v-90q0 -22 -9.5 -31.5t-31.5 -9.5zM289 -510h-74q-22 0 -31.5 9.5t-9.5 31.5v205q0 22 9.5 31.5t31.5 9.5h205
q22 0 31.5 -9.5t9.5 -31.5v-236q0 -93 -33.5 -181t-67.5 -126q-20 -24 -53 -2l-65 43q-18 12 -4 53q2 7 13 35.5t18 48.5t13.5 54t6.5 65z" />
    <glyph glyph-name="Lcaron" unicode="&#x13d;" horiz-adv-x="948" 
d="M907 143v-102q0 -22 -9.5 -31.5t-31.5 -9.5h-723q-22 0 -31.5 9.5t-9.5 31.5v1393q0 22 9.5 31.5t31.5 9.5h176q22 0 31.5 -9.5t9.5 -31.5v-1250h506q22 0 31.5 -9.5t9.5 -31.5zM104 1896l127 -127l127 127q29 29 70 29h70q21 0 24.5 -8t-8.5 -25l-147 -204
q-23 -33 -66 -33h-139q-43 0 -66 33l-147 204q-12 17 -8.5 25t24.5 8h70q40 0 69 -29z" />
    <glyph glyph-name="lcaron" unicode="&#x13e;" horiz-adv-x="770" 
d="M420 0h-35q-283 0 -283 319v1156q0 22 9.5 31.5t31.5 9.5h164q22 0 31.5 -9.5t9.5 -31.5v-1141q0 -80 17.5 -121t40.5 -41h14q22 0 31.5 -9.5t9.5 -31.5v-90q0 -22 -9.5 -31.5t-31.5 -9.5zM578 1229h-74q-22 0 -31.5 9.5t-9.5 31.5v205q0 22 9.5 31.5t31.5 9.5h205
q22 0 31.5 -9.5t9.5 -31.5v-236q0 -93 -33.5 -181t-67.5 -126q-20 -24 -53 -2l-66 43q-18 13 -4 53q3 7 14 35t18 49t13.5 54.5t6.5 64.5z" />
    <glyph glyph-name="Ldot" unicode="&#x13f;" horiz-adv-x="948" 
d="M907 143v-102q0 -22 -9.5 -31.5t-31.5 -9.5h-723q-22 0 -31.5 9.5t-9.5 31.5v1393q0 22 9.5 31.5t31.5 9.5h176q22 0 31.5 -9.5t9.5 -31.5v-1250h506q22 0 31.5 -9.5t9.5 -31.5zM840 758h-205q-22 0 -31.5 -9.5t-9.5 -31.5v-205q0 -22 9.5 -31.5t31.5 -9.5h205
q22 0 31.5 9.5t9.5 31.5v205q0 22 -9.5 31.5t-31.5 9.5z" />
    <glyph glyph-name="ldot" unicode="&#x140;" horiz-adv-x="770" 
d="M420 0h-35q-283 0 -283 319v1156q0 22 9.5 31.5t31.5 9.5h164q22 0 31.5 -9.5t9.5 -31.5v-1141q0 -80 17.5 -121t40.5 -41h14q22 0 31.5 -9.5t9.5 -31.5v-90q0 -22 -9.5 -31.5t-31.5 -9.5zM709 758h-205q-22 0 -31.5 -9.5t-9.5 -31.5v-205q0 -22 9.5 -31.5t31.5 -9.5h205
q22 0 31.5 9.5t9.5 31.5v205q0 22 -9.5 31.5t-31.5 9.5z" />
    <glyph glyph-name="Lslash" unicode="&#x141;" horiz-adv-x="1087" 
d="M928 848l-799 -373q-39 -17 -53 21l-45 92q-15 40 20 55l799 373q39 17 53 -21l45 -92q15 -40 -20 -55zM1047 143v-102q0 -22 -9.5 -31.5t-31.5 -9.5h-723q-22 0 -31.5 9.5t-9.5 31.5v1393q0 22 9.5 31.5t31.5 9.5h176q22 0 31.5 -9.5t9.5 -31.5v-1250h506
q22 0 31.5 -9.5t9.5 -31.5z" />
    <glyph glyph-name="lslash" unicode="&#x142;" horiz-adv-x="782" 
d="M743 764l-624 -289q-39 -17 -53 21l-46 92q-15 39 21 55l625 289q39 17 53 -21l45 -92q15 -39 -21 -55zM549 0h-35q-283 0 -283 319v1156q0 22 9.5 31.5t31.5 9.5h164q22 0 31.5 -9.5t9.5 -31.5v-1141q0 -80 17.5 -121t40.5 -41h14q22 0 31.5 -9.5t9.5 -31.5v-90
q0 -22 -9.5 -31.5t-31.5 -9.5z" />
    <glyph glyph-name="Nacute" unicode="&#x143;" horiz-adv-x="1302" 
d="M1159 0h-143q-47 0 -68 33l-624 999h-5l21 -418v-573q0 -22 -9.5 -31.5t-31.5 -9.5h-156q-22 0 -31.5 9.5t-9.5 31.5v1393q0 22 9.5 31.5t31.5 9.5h144q46 0 67 -33l625 -1000h4l-20 418v574q0 22 9.5 31.5t31.5 9.5h155q22 0 31.5 -9.5t9.5 -31.5v-1393
q0 -22 -9.5 -31.5t-31.5 -9.5zM551 1690l123 200q22 35 63 35h187q43 0 10 -29l-227 -213q-32 -28 -72 -28h-64q-22 0 -26.5 8t6.5 27z" />
    <glyph glyph-name="nacute" unicode="&#x144;" horiz-adv-x="1097" 
d="M956 0h-168q-38 0 -38 41v577q0 62 -9.5 114t-30.5 95t-58.5 67t-88.5 24q-215 0 -215 -320v-557q0 -22 -9.5 -31.5t-31.5 -9.5h-164q-22 0 -31.5 9.5t-9.5 31.5v983q0 22 9.5 31.5t31.5 9.5h103q21 0 28.5 -9t12.5 -32l20 -84h4q35 69 113 109.5t160 40.5
q177 0 294 -108t117 -294v-647q0 -41 -39 -41zM479 1280l123 201q22 35 64 35h186q43 0 10 -29l-227 -213q-33 -29 -72 -29h-63q-22 0 -27 8t6 27z" />
    <glyph glyph-name="uni0145" unicode="&#x145;" horiz-adv-x="1302" 
d="M1159 0h-143q-47 0 -68 33l-624 999h-5l21 -418v-573q0 -22 -9.5 -31.5t-31.5 -9.5h-156q-22 0 -31.5 9.5t-9.5 31.5v1393q0 22 9.5 31.5t31.5 9.5h144q46 0 67 -33l625 -1000h4l-20 418v574q0 22 9.5 31.5t31.5 9.5h155q22 0 31.5 -9.5t9.5 -31.5v-1393
q0 -22 -9.5 -31.5t-31.5 -9.5zM623 -510h-74q-22 0 -31.5 9.5t-9.5 31.5v205q0 22 9.5 31.5t31.5 9.5h205q22 0 31.5 -9.5t9.5 -31.5v-236q0 -93 -33.5 -181t-67.5 -126q-20 -24 -53 -2l-66 43q-17 12 -4 53q3 7 14 35t18 49t13.5 54.5t6.5 64.5z" />
    <glyph glyph-name="uni0146" unicode="&#x146;" horiz-adv-x="1097" 
d="M956 0h-168q-38 0 -38 41v577q0 62 -9.5 114t-30.5 95t-58.5 67t-88.5 24q-215 0 -215 -320v-557q0 -22 -9.5 -31.5t-31.5 -9.5h-164q-22 0 -31.5 9.5t-9.5 31.5v983q0 22 9.5 31.5t31.5 9.5h103q21 0 28.5 -9t12.5 -32l20 -84h4q35 69 113 109.5t160 40.5
q177 0 294 -108t117 -294v-647q0 -41 -39 -41zM520 -510h-74q-22 0 -31 9.5t-9 31.5v205q0 22 9 31.5t31 9.5h205q22 0 31.5 -9.5t9.5 -31.5v-236q0 -93 -33 -181t-67 -126q-20 -24 -53 -2l-66 43q-17 12 -4 53q2 7 13 35.5t18 48.5t13.5 54t6.5 65z" />
    <glyph glyph-name="Ncaron" unicode="&#x147;" horiz-adv-x="1302" 
d="M1159 0h-143q-47 0 -68 33l-624 999h-5l21 -418v-573q0 -22 -9.5 -31.5t-31.5 -9.5h-156q-22 0 -31.5 9.5t-9.5 31.5v1393q0 22 9.5 31.5t31.5 9.5h144q46 0 67 -33l625 -1000h4l-20 418v574q0 22 9.5 31.5t31.5 9.5h155q22 0 31.5 -9.5t9.5 -31.5v-1393
q0 -22 -9.5 -31.5t-31.5 -9.5zM524 1896l127 -127l127 127q29 29 70 29h70q21 0 24.5 -8t-8.5 -25l-148 -204q-23 -33 -65 -33h-139q-43 0 -66 33l-147 204q-12 17 -8.5 25t24.5 8h70q40 0 69 -29z" />
    <glyph glyph-name="ncaron" unicode="&#x148;" horiz-adv-x="1097" 
d="M956 0h-168q-38 0 -38 41v577q0 62 -9.5 114t-30.5 95t-58.5 67t-88.5 24q-215 0 -215 -320v-557q0 -22 -9.5 -31.5t-31.5 -9.5h-164q-22 0 -31.5 9.5t-9.5 31.5v983q0 22 9.5 31.5t31.5 9.5h103q21 0 28.5 -9t12.5 -32l20 -84h4q35 69 113 109.5t160 40.5
q177 0 294 -108t117 -294v-647q0 -41 -39 -41zM422 1487l127 -127l127 127q29 29 69 29h70q21 0 24.5 -8t-8.5 -25l-147 -205q-23 -33 -66 -33h-139q-42 0 -65 33l-148 205q-12 17 -8.5 25t25.5 8h69q41 0 70 -29z" />
    <glyph glyph-name="napostrophe" unicode="&#x149;" horiz-adv-x="1097" 
d="M956 0h-168q-38 0 -38 41v577q0 62 -9.5 114t-30.5 95t-58.5 67t-88.5 24q-215 0 -215 -320v-557q0 -22 -9.5 -31.5t-31.5 -9.5h-164q-22 0 -31.5 9.5t-9.5 31.5v983q0 22 9.5 31.5t31.5 9.5h103q21 0 28.5 -9t12.5 -32l20 -84h4q35 69 113 109.5t160 40.5
q177 0 294 -108t117 -294v-647q0 -41 -39 -41zM223 1475h-73q-22 0 -31.5 9.5t-9.5 31.5v204q0 22 9.5 31.5t31.5 9.5h204q22 0 31.5 -9.5t9.5 -31.5v-235q0 -93 -33 -181t-67 -126q-20 -24 -53 -2l-66 43q-18 13 -4 53q2 7 13 35.5t18 48.5t13.5 54t6.5 65z" />
    <glyph glyph-name="Eng" unicode="&#x14a;" horiz-adv-x="1302" 
d="M573 -467v98q0 22 9.5 31.5t31.5 9.5h27q158 0 235.5 77.5t84.5 266.5l-637 1016h-5l21 -418v-573q0 -22 -9.5 -31.5t-31.5 -9.5h-156q-22 0 -31.5 9.5t-9.5 31.5v1393q0 22 9.5 31.5t31.5 9.5h144q46 0 67 -33l625 -1000h4l-20 418v574q0 22 9.5 31.5t31.5 9.5h155
q22 0 31.5 -9.5t9.5 -31.5v-1416q-3 -255 -139.5 -392.5t-372.5 -137.5l-78 2q-20 1 -28.5 11t-8.5 32z" />
    <glyph glyph-name="eng" unicode="&#x14b;" horiz-adv-x="1097" 
d="M713 -512h-35q-22 0 -31.5 9.5t-9.5 31.5v90q0 22 9.5 31.5t31.5 9.5h14q23 0 40.5 41t17.5 121v796q0 62 -9.5 114t-30.5 95t-58.5 67t-88.5 24q-215 0 -215 -320v-557q0 -22 -9.5 -31.5t-31.5 -9.5h-164q-22 0 -31.5 9.5t-9.5 31.5v983q0 22 9.5 31.5t31.5 9.5h103
q21 0 28.5 -9t12.5 -32l20 -84h4q35 69 113 109.5t160 40.5q177 0 294 -108t117 -294v-881q0 -319 -282 -319z" />
    <glyph glyph-name="Omacron" unicode="&#x14c;" horiz-adv-x="1609" 
d="M805 -25q-155 0 -285.5 48t-228.5 140.5t-153.5 239.5t-55.5 334t55 334t153 239.5t228.5 140.5t286.5 48t286.5 -48t228.5 -140.5t153 -239.5t55 -334t-55.5 -334t-153.5 -239.5t-228.5 -140.5t-285.5 -48zM805 170q76 0 141.5 18.5t123.5 61.5t99 107.5t64.5 161
t23.5 218.5t-23.5 218.5t-64 161.5t-98.5 107.5t-123.5 61.5t-142.5 19q-97 0 -176 -31t-142.5 -96t-99 -177.5t-35.5 -263.5t35.5 -263.5t99.5 -177t143 -95.5t175 -31zM1122 1700h-635q-22 0 -31.5 9.5t-9.5 31.5v61q0 22 9.5 31.5t31.5 9.5h635q22 0 31.5 -9.5t9.5 -31.5
v-61q0 -22 -9.5 -31.5t-31.5 -9.5z" />
    <glyph glyph-name="omacron" unicode="&#x14d;" 
d="M578 -25q-115 0 -202.5 29t-142.5 78t-89.5 121.5t-48 151t-13.5 175.5t13.5 176.5t48 152.5t89.5 123.5t142.5 80t202.5 29.5t202.5 -29.5t142 -79.5t89 -123.5t48 -152.5t13.5 -175q0 -97 -13.5 -176t-48 -151.5t-89.5 -122t-142 -78.5t-202 -29zM578 160
q60 0 104.5 19.5t72 52t44 81.5t22.5 101t6 118q0 65 -6 117.5t-22.5 102t-44 82.5t-72 53t-104.5 20q-74 0 -125 -29t-77.5 -83.5t-37 -117t-10.5 -145.5q0 -66 6 -118t23 -101t44.5 -81.5t72 -52t104.5 -19.5zM895 1290h-635q-22 0 -31.5 9.5t-9.5 31.5v62q0 22 9.5 31.5
t31.5 9.5h635q22 0 31.5 -9.5t9.5 -31.5v-62q0 -22 -9.5 -31.5t-31.5 -9.5z" />
    <glyph glyph-name="Obreve" unicode="&#x14e;" horiz-adv-x="1609" 
d="M805 -25q-155 0 -285.5 48t-228.5 140.5t-153.5 239.5t-55.5 334t55 334t153 239.5t228.5 140.5t286.5 48t286.5 -48t228.5 -140.5t153 -239.5t55 -334t-55.5 -334t-153.5 -239.5t-228.5 -140.5t-285.5 -48zM805 170q76 0 141.5 18.5t123.5 61.5t99 107.5t64.5 161
t23.5 218.5t-23.5 218.5t-64 161.5t-98.5 107.5t-123.5 61.5t-142.5 19q-97 0 -176 -31t-142.5 -96t-99 -177.5t-35.5 -263.5t35.5 -263.5t99.5 -177t143 -95.5t175 -31zM553 1925h88q7 0 15.5 -6.5t11.5 -13.5q28 -88 139 -88t137 88q1 7 10.5 13.5t18.5 6.5h86
q12 0 21.5 -10.5t9.5 -22.5q-3 -108 -84 -173.5t-199 -65.5q-108 0 -193 63.5t-92 175.5q-3 13 7 23t24 10z" />
    <glyph glyph-name="obreve" unicode="&#x14f;" 
d="M578 -25q-115 0 -202.5 29t-142.5 78t-89.5 121.5t-48 151t-13.5 175.5t13.5 176.5t48 152.5t89.5 123.5t142.5 80t202.5 29.5t202.5 -29.5t142 -79.5t89 -123.5t48 -152.5t13.5 -175q0 -97 -13.5 -176t-48 -151.5t-89.5 -122t-142 -78.5t-202 -29zM578 160
q60 0 104.5 19.5t72 52t44 81.5t22.5 101t6 118q0 65 -6 117.5t-22.5 102t-44 82.5t-72 53t-104.5 20q-74 0 -125 -29t-77.5 -83.5t-37 -117t-10.5 -145.5q0 -66 6 -118t23 -101t44.5 -81.5t72 -52t104.5 -19.5zM326 1516h88q7 0 14.5 -7t11.5 -14q28 -88 140 -88
q111 0 137 88q2 8 10.5 14.5t17.5 6.5h86q12 0 21.5 -10.5t9.5 -22.5q-3 -108 -83.5 -174t-198.5 -66q-108 0 -193 64t-92 176q-3 13 7 23t24 10z" />
    <glyph glyph-name="Ohungarumlaut" unicode="&#x150;" horiz-adv-x="1609" 
d="M805 -25q-155 0 -285.5 48t-228.5 140.5t-153.5 239.5t-55.5 334t55 334t153 239.5t228.5 140.5t286.5 48t286.5 -48t228.5 -140.5t153 -239.5t55 -334t-55.5 -334t-153.5 -239.5t-228.5 -140.5t-285.5 -48zM805 170q76 0 141.5 18.5t123.5 61.5t99 107.5t64.5 161
t23.5 218.5t-23.5 218.5t-64 161.5t-98.5 107.5t-123.5 61.5t-142.5 19q-97 0 -176 -31t-142.5 -96t-99 -177.5t-35.5 -263.5t35.5 -263.5t99.5 -177t143 -95.5t175 -31zM551 1690l123 200q22 35 63 35h187q43 0 10 -29l-227 -213q-32 -28 -72 -28h-64q-22 0 -26.5 8t6.5 27
zM958 1690l123 200q22 35 64 35h186q43 0 10 -29l-227 -213q-32 -28 -72 -28h-63q-22 0 -26.5 8t5.5 27z" />
    <glyph glyph-name="ohungarumlaut" unicode="&#x151;" 
d="M578 -25q-115 0 -202.5 29t-142.5 78t-89.5 121.5t-48 151t-13.5 175.5t13.5 176.5t48 152.5t89.5 123.5t142.5 80t202.5 29.5t202.5 -29.5t142 -79.5t89 -123.5t48 -152.5t13.5 -175q0 -97 -13.5 -176t-48 -151.5t-89.5 -122t-142 -78.5t-202 -29zM578 160
q60 0 104.5 19.5t72 52t44 81.5t22.5 101t6 118q0 65 -6 117.5t-22.5 102t-44 82.5t-72 53t-104.5 20q-74 0 -125 -29t-77.5 -83.5t-37 -117t-10.5 -145.5q0 -66 6 -118t23 -101t44.5 -81.5t72 -52t104.5 -19.5zM266 1280l123 201q22 35 64 35h186q43 0 10 -29l-227 -213
q-33 -29 -72 -29h-63q-22 0 -26.5 8t5.5 27zM674 1280l123 201q22 35 63 35h187q43 0 10 -29l-228 -213q-33 -29 -71 -29h-64q-22 0 -26.5 8t6.5 27z" />
    <glyph glyph-name="OE" unicode="&#x152;" horiz-adv-x="1878" 
d="M1755 0h-723h-14q-121 -25 -213 -25q-155 0 -285.5 48t-228.5 140.5t-153.5 239.5t-55.5 334t55 334t153 239.5t228.5 140.5t286.5 48q117 0 215 -26q4 2 12 2h723q22 0 31.5 -9.5t9.5 -31.5v-103q0 -22 -9.5 -31.5t-31.5 -9.5h-506v-452h404q22 0 31.5 -9.5t9.5 -31.5
v-103q0 -22 -9.5 -31.5t-31.5 -9.5h-404v-469h506q22 0 31.5 -9.5t9.5 -31.5v-102q0 -22 -9.5 -31.5t-31.5 -9.5zM805 170q106 0 186 35v1065q-80 35 -186 35q-97 0 -176 -31t-142.5 -96t-99 -177.5t-35.5 -263.5t35.5 -263.5t99.5 -177t143 -95.5t175 -31z" />
    <glyph glyph-name="oe" unicode="&#x153;" horiz-adv-x="1802" 
d="M1630 195l43 -66q19 -29 -2 -53q-32 -37 -136 -69t-226 -32q-251 0 -359 179q-110 -179 -372 -179q-115 0 -202.5 29t-142.5 78t-89.5 121.5t-48 151t-13.5 175.5t13.5 176.5t48 152.5t89.5 123.5t142.5 80t202.5 29.5q261 0 372 -185q108 185 332 185q94 0 173 -27.5
t138.5 -81t93 -138.5t33.5 -194q0 -118 -47.5 -161.5t-175.5 -43.5h-420q6 -68 22 -120t45 -93.5t77 -63.5t114 -22q80 0 242 52q41 12 53 -4zM578 160q60 0 104.5 19.5t72 52t44 81.5t22.5 101t6 118q0 65 -6 117.5t-22.5 102t-44 82.5t-72 53t-104.5 20q-74 0 -125 -29
t-77.5 -83.5t-37 -117t-10.5 -145.5q0 -66 6 -118t23 -101t44.5 -81.5t72 -52t104.5 -19.5zM1077 618h316q49 0 64.5 12.5t15.5 57.5q0 94 -51 163t-130 69q-193 0 -215 -302z" />
    <glyph glyph-name="Racute" unicode="&#x154;" horiz-adv-x="1161" 
d="M1067 0h-225q-42 0 -62 35l-260 414h-160v-408q0 -22 -9.5 -31.5t-31.5 -9.5h-176q-22 0 -31.5 9.5t-9.5 31.5v1393q0 22 9.5 31.5t31.5 9.5h389q151 0 272.5 -68.5t188 -186t66.5 -259.5q0 -150 -78.5 -274t-212.5 -187l315 -467q13 -17 10.5 -25t-26.5 -8zM360 631h132
q152 0 230.5 82.5t78.5 247.5q0 328 -309 331h-132v-661zM385 1690l123 200q22 35 63 35h187q43 0 10 -29l-227 -213q-32 -28 -72 -28h-63q-22 0 -27 8t6 27z" />
    <glyph glyph-name="racute" unicode="&#x155;" horiz-adv-x="647" 
d="M307 0h-164q-22 0 -31.5 9.5t-9.5 31.5v983q0 22 9.5 31.5t31.5 9.5h103q9 0 14 -1t9.5 -6t6 -7.5t5.5 -12.5t6 -14l20 -78h4q25 39 55.5 65.5t53.5 39.5t60.5 20t53.5 8t56 2q23 0 30 -4.5t7 -25.5v-154q0 -19 -8.5 -27t-18 -8.5t-29 2t-28.5 2.5q-95 0 -145 -50.5
t-50 -147.5v-627q0 -22 -9.5 -31.5t-31.5 -9.5zM242 1280l123 201q22 35 63 35h186q44 0 11 -29l-228 -213q-33 -29 -71 -29h-64q-22 0 -26.5 8t6.5 27z" />
    <glyph glyph-name="uni0156" unicode="&#x156;" horiz-adv-x="1161" 
d="M1067 0h-225q-42 0 -62 35l-260 414h-160v-408q0 -22 -9.5 -31.5t-31.5 -9.5h-176q-22 0 -31.5 9.5t-9.5 31.5v1393q0 22 9.5 31.5t31.5 9.5h389q151 0 272.5 -68.5t188 -186t66.5 -259.5q0 -150 -78.5 -274t-212.5 -187l315 -467q13 -17 10.5 -25t-26.5 -8zM360 631h132
q152 0 230.5 82.5t78.5 247.5q0 328 -309 331h-132v-661zM551 -510h-74q-22 0 -31.5 9.5t-9.5 31.5v205q0 22 9.5 31.5t31.5 9.5h205q22 0 31.5 -9.5t9.5 -31.5v-236q0 -93 -33 -181t-67 -126q-21 -24 -54 -2l-65 43q-18 12 -4 53q2 7 13 35.5t18 48.5t13.5 54t6.5 65z" />
    <glyph glyph-name="uni0157" unicode="&#x157;" horiz-adv-x="647" 
d="M307 0h-164q-22 0 -31.5 9.5t-9.5 31.5v983q0 22 9.5 31.5t31.5 9.5h103q9 0 14 -1t9.5 -6t6 -7.5t5.5 -12.5t6 -14l20 -78h4q25 39 55.5 65.5t53.5 39.5t60.5 20t53.5 8t56 2q23 0 30 -4.5t7 -25.5v-154q0 -19 -8.5 -27t-18 -8.5t-29 2t-28.5 2.5q-95 0 -145 -50.5
t-50 -147.5v-627q0 -22 -9.5 -31.5t-31.5 -9.5zM295 -510h-74q-22 0 -31.5 9.5t-9.5 31.5v205q0 22 9.5 31.5t31.5 9.5h205q22 0 31.5 -9.5t9.5 -31.5v-236q0 -93 -33 -181t-67 -126q-21 -24 -54 -2l-65 43q-18 12 -4 53q2 7 13 35.5t18 48.5t13.5 54t6.5 65z" />
    <glyph glyph-name="Rcaron" unicode="&#x158;" horiz-adv-x="1161" 
d="M1067 0h-225q-42 0 -62 35l-260 414h-160v-408q0 -22 -9.5 -31.5t-31.5 -9.5h-176q-22 0 -31.5 9.5t-9.5 31.5v1393q0 22 9.5 31.5t31.5 9.5h389q151 0 272.5 -68.5t188 -186t66.5 -259.5q0 -150 -78.5 -274t-212.5 -187l315 -467q13 -17 10.5 -25t-26.5 -8zM360 631h132
q152 0 230.5 82.5t78.5 247.5q0 328 -309 331h-132v-661zM453 1896l127 -127l127 127q29 29 69 29h70q21 0 24.5 -8t-8.5 -25l-147 -204q-23 -33 -66 -33h-139q-43 0 -66 33l-147 204q-12 17 -8.5 25t24.5 8h70q41 0 70 -29z" />
    <glyph glyph-name="rcaron" unicode="&#x159;" horiz-adv-x="647" 
d="M307 0h-164q-22 0 -31.5 9.5t-9.5 31.5v983q0 22 9.5 31.5t31.5 9.5h103q9 0 14 -1t9.5 -6t6 -7.5t5.5 -12.5t6 -14l20 -78h4q25 39 55.5 65.5t53.5 39.5t60.5 20t53.5 8t56 2q23 0 30 -4.5t7 -25.5v-154q0 -19 -8.5 -27t-18 -8.5t-29 2t-28.5 2.5q-95 0 -145 -50.5
t-50 -147.5v-627q0 -22 -9.5 -31.5t-31.5 -9.5zM197 1487l127 -127l127 127q29 29 69 29h70q21 0 24.5 -8t-8.5 -25l-147 -205q-23 -33 -66 -33h-139q-43 0 -66 33l-147 205q-12 17 -8.5 25t24.5 8h70q41 0 70 -29z" />
    <glyph glyph-name="Sacute" unicode="&#x15a;" horiz-adv-x="1136" 
d="M627 575l-199 78q-336 132 -336 416q0 130 68 229.5t180.5 150t249.5 50.5q122 0 254 -35.5t168 -64.5q10 -7 10.5 -17.5t-8.5 -35.5l-33 -86q-7 -19 -53 -5q-189 50 -326 50q-78 0 -134.5 -20t-84.5 -53t-40.5 -67t-12.5 -71q0 -61 39 -108.5t137 -84.5l196 -74
q172 -64 262.5 -183t90.5 -261q0 -186 -147 -297t-384 -111q-120 0 -254.5 34.5t-175.5 66.5q-10 9 -10.5 19.5t8.5 33.5l33 86q7 18 53 4q57 -15 161.5 -32t182.5 -17q133 0 214 52.5t81 137.5q0 69 -53.5 125.5t-136.5 89.5zM446 1690l123 200q22 35 64 35h186
q43 0 10 -29l-227 -213q-32 -28 -72 -28h-63q-22 0 -26.5 8t5.5 27z" />
    <glyph glyph-name="sacute" unicode="&#x15b;" horiz-adv-x="970" 
d="M496 412l-177 53q-111 34 -164 112t-53 185q0 146 100.5 238t282.5 92q121 0 220 -31.5t137 -69.5q21 -21 0 -53l-43 -66q-9 -19 -54 -4q-143 52 -237 52q-87 0 -129.5 -35.5t-42.5 -98.5q0 -78 80 -100l239 -70q129 -37 181.5 -110.5t52.5 -198.5q0 -106 -60.5 -183
t-155 -113t-210.5 -36q-126 0 -232.5 30t-136.5 71q-19 27 -2 53l43 66q13 17 53 4q154 -52 263 -52q204 0 204 138q0 46 -34 72.5t-125 54.5zM385 1280l123 201q22 35 63 35h187q43 0 10 -29l-227 -213q-33 -29 -72 -29h-63q-22 0 -27 8t6 27z" />
    <glyph glyph-name="Scircumflex" unicode="&#x15c;" horiz-adv-x="1136" 
d="M627 575l-199 78q-336 132 -336 416q0 130 68 229.5t180.5 150t249.5 50.5q122 0 254 -35.5t168 -64.5q10 -7 10.5 -17.5t-8.5 -35.5l-33 -86q-7 -19 -53 -5q-189 50 -326 50q-78 0 -134.5 -20t-84.5 -53t-40.5 -67t-12.5 -71q0 -61 39 -108.5t137 -84.5l196 -74
q172 -64 262.5 -183t90.5 -261q0 -186 -147 -297t-384 -111q-120 0 -254.5 34.5t-175.5 66.5q-10 9 -10.5 19.5t8.5 33.5l33 86q7 18 53 4q57 -15 161.5 -32t182.5 -17q133 0 214 52.5t81 137.5q0 69 -53.5 125.5t-136.5 89.5zM586 1810l-127 -127q-28 -28 -70 -28h-70
q-21 0 -24.5 8t8.5 25l148 204q23 33 65 33h139q43 0 66 -33l147 -204q12 -17 8.5 -25t-24.5 -8h-70q-41 0 -69 28z" />
    <glyph glyph-name="scircumflex" unicode="&#x15d;" horiz-adv-x="970" 
d="M496 412l-177 53q-111 34 -164 112t-53 185q0 146 100.5 238t282.5 92q121 0 220 -31.5t137 -69.5q21 -21 0 -53l-43 -66q-9 -19 -54 -4q-143 52 -237 52q-87 0 -129.5 -35.5t-42.5 -98.5q0 -78 80 -100l239 -70q129 -37 181.5 -110.5t52.5 -198.5q0 -106 -60.5 -183
t-155 -113t-210.5 -36q-126 0 -232.5 30t-136.5 71q-19 27 -2 53l43 66q13 17 53 4q154 -52 263 -52q204 0 204 138q0 46 -34 72.5t-125 54.5zM502 1401l-127 -127q-29 -29 -70 -29h-69q-22 0 -25.5 8t8.5 25l148 205q23 33 65 33h139q43 0 66 -33l147 -205q12 -17 8.5 -25
t-24.5 -8h-70q-40 0 -69 29z" />
    <glyph glyph-name="Scedilla" unicode="&#x15e;" horiz-adv-x="1136" 
d="M485 -143l29 118q-120 1 -250.5 35t-169.5 66q-10 9 -10.5 19.5t8.5 33.5l33 86q7 18 53 4q57 -15 161.5 -32t182.5 -17q133 0 214 52.5t81 137.5q0 69 -53.5 125.5t-136.5 89.5l-199 78q-336 132 -336 416q0 130 68 229.5t180.5 150t249.5 50.5q122 0 254 -35.5
t168 -64.5q10 -7 10.5 -17.5t-8.5 -35.5l-33 -86q-7 -19 -53 -5q-189 50 -326 50q-78 0 -134.5 -20t-84.5 -53t-40.5 -67t-12.5 -71q0 -61 39 -108.5t137 -84.5l196 -74q172 -64 262.5 -183t90.5 -261q0 -164 -116 -270.5t-312 -130.5l-23 -93q68 -9 106 -50.5t38 -102.5
q0 -81 -65.5 -136t-172.5 -55q-79 1 -84 9q-40 3 -37 45l2 36q3 42 43 39v-2v0v0v0v0h1h1h1h1h1h1h1h1h1h1h1h1h1h1h1h1h1h1h1h1h1h1h1h1h1h1h1h1h1h1h1h1h1h10q65 0 98 21.5t33 56.5q0 28 -19 36t-77 13q-20 1 -27 19.5t0 38.5z" />
    <glyph glyph-name="scedilla" unicode="&#x15f;" horiz-adv-x="970" 
d="M403 -143l29 118q-119 4 -214.5 33t-123.5 68q-19 27 -2 53l43 66q13 17 53 4q154 -52 263 -52q204 0 204 138q0 48 -35 77t-124 50l-177 53q-110 31 -163.5 110t-53.5 187q0 146 100.5 238t282.5 92q121 0 220 -31.5t137 -69.5q21 -21 0 -53l-43 -66q-9 -19 -54 -4
q-143 52 -237 52q-87 0 -129.5 -35.5t-42.5 -98.5q0 -78 80 -100l239 -70q129 -37 181.5 -110.5t52.5 -198.5q0 -140 -96.5 -223.5t-247.5 -101.5l-23 -93q68 -9 106 -50.5t38 -102.5q0 -81 -65.5 -136t-172.5 -55q-79 1 -84 9q-40 3 -37 45l2 36q3 42 43 39v-2v0v0v0v0h1h1
h1h1h1h1h1h1h1h1h1h1h1h1h1h1h1h1h1h1h1h1h1h1h1h1h1h1h1h1h1h1h1h10q65 0 98 21.5t33 56.5q0 28 -19 36t-77 13q-39 3 -27 58z" />
    <glyph glyph-name="Scaron" unicode="&#x160;" horiz-adv-x="1136" 
d="M627 575l-199 78q-336 132 -336 416q0 130 68 229.5t180.5 150t249.5 50.5q122 0 254 -35.5t168 -64.5q10 -7 10.5 -17.5t-8.5 -35.5l-33 -86q-7 -19 -53 -5q-189 50 -326 50q-78 0 -134.5 -20t-84.5 -53t-40.5 -67t-12.5 -71q0 -61 39 -108.5t137 -84.5l196 -74
q172 -64 262.5 -183t90.5 -261q0 -186 -147 -297t-384 -111q-120 0 -254.5 34.5t-175.5 66.5q-10 9 -10.5 19.5t8.5 33.5l33 86q7 18 53 4q57 -15 161.5 -32t182.5 -17q133 0 214 52.5t81 137.5q0 69 -53.5 125.5t-136.5 89.5zM440 1896l127 -127l127 127q29 29 70 29h70
q21 0 24.5 -8t-8.5 -25l-148 -204q-23 -33 -65 -33h-139q-43 0 -66 33l-147 204q-12 17 -8.5 25t24.5 8h70q40 0 69 -29z" />
    <glyph glyph-name="scaron" unicode="&#x161;" horiz-adv-x="970" 
d="M496 412l-177 53q-111 34 -164 112t-53 185q0 146 100.5 238t282.5 92q121 0 220 -31.5t137 -69.5q21 -21 0 -53l-43 -66q-9 -19 -54 -4q-143 52 -237 52q-87 0 -129.5 -35.5t-42.5 -98.5q0 -78 80 -100l239 -70q129 -37 181.5 -110.5t52.5 -198.5q0 -106 -60.5 -183
t-155 -113t-210.5 -36q-126 0 -232.5 30t-136.5 71q-19 27 -2 53l43 66q13 17 53 4q154 -52 263 -52q204 0 204 138q0 46 -34 72.5t-125 54.5zM375 1487l127 -127l127 127q29 29 69 29h70q21 0 24.5 -8t-8.5 -25l-147 -205q-23 -33 -66 -33h-139q-42 0 -65 33l-148 205
q-12 17 -8.5 25t25.5 8h69q41 0 70 -29z" />
    <glyph glyph-name="uni0162" unicode="&#x162;" horiz-adv-x="983" 
d="M580 0h-177q-22 0 -31.5 9.5t-9.5 31.5v1249h-301q-22 0 -31.5 9.5t-9.5 31.5v103q0 22 9.5 31.5t31.5 9.5h861q22 0 31.5 -9.5t9.5 -31.5v-103q0 -22 -9.5 -31.5t-31.5 -9.5h-301v-1249q0 -22 -9.5 -31.5t-31.5 -9.5zM463 -510h-74q-22 0 -31.5 9.5t-9.5 31.5v205
q0 22 9.5 31.5t31.5 9.5h205q22 0 31.5 -9.5t9.5 -31.5v-236q0 -93 -33 -181t-67 -126q-21 -24 -54 -2l-65 43q-18 12 -4 53q2 7 13 35.5t18 48.5t13.5 54t6.5 65z" />
    <glyph glyph-name="uni0163" unicode="&#x163;" horiz-adv-x="645" 
d="M526 0h-75q-283 0 -283 319v584h-107q-22 0 -31.5 9.5t-9.5 31.5v80q0 22 9.5 31.5t31.5 9.5h107v158q0 5 0.5 9t2 7t2 5t3.5 4.5t4.5 3.5t6 3t6.5 3t8 3t8 3l164 61q19 7 30 -5.5t11 -35.5v-219h129q22 0 31.5 -9.5t9.5 -31.5v-80q0 -22 -9.5 -31.5t-31.5 -9.5h-129
v-590q0 -70 29 -105.5t69 -35.5h14q22 0 31.5 -9.5t9.5 -31.5v-90q0 -22 -9.5 -31.5t-31.5 -9.5zM293 -510h-74q-22 0 -31.5 9.5t-9.5 31.5v205q0 22 9.5 31.5t31.5 9.5h205q22 0 31.5 -9.5t9.5 -31.5v-236q0 -93 -33 -181t-67 -126q-21 -24 -54 -2l-65 43q-18 12 -4 53
q2 7 13 35.5t18 48.5t13.5 54t6.5 65z" />
    <glyph glyph-name="Tcaron" unicode="&#x164;" horiz-adv-x="983" 
d="M580 0h-177q-22 0 -31.5 9.5t-9.5 31.5v1249h-301q-22 0 -31.5 9.5t-9.5 31.5v103q0 22 9.5 31.5t31.5 9.5h861q22 0 31.5 -9.5t9.5 -31.5v-103q0 -22 -9.5 -31.5t-31.5 -9.5h-301v-1249q0 -22 -9.5 -31.5t-31.5 -9.5zM365 1896l127 -127l126 127q29 29 70 29h70
q21 0 24.5 -8t-8.5 -25l-147 -204q-23 -33 -66 -33h-139q-43 0 -66 33l-147 204q-12 17 -8.5 25t24.5 8h70q41 0 70 -29z" />
    <glyph glyph-name="tcaron" unicode="&#x165;" horiz-adv-x="645" 
d="M526 0h-75q-283 0 -283 319v584h-107q-22 0 -31.5 9.5t-9.5 31.5v80q0 22 9.5 31.5t31.5 9.5h107v158q0 5 0.5 9t2 7t2 5t3.5 4.5t4.5 3.5t6 3t6.5 3t8 3t8 3l164 61q19 7 30 -5.5t11 -35.5v-219h129q22 0 31.5 -9.5t9.5 -31.5v-80q0 -22 -9.5 -31.5t-31.5 -9.5h-129
v-590q0 -70 29 -105.5t69 -35.5h14q22 0 31.5 -9.5t9.5 -31.5v-90q0 -22 -9.5 -31.5t-31.5 -9.5zM164 1714l127 -127l127 127q29 29 69 29h70q21 0 24.5 -8t-8.5 -25l-147 -205q-22 -32 -66 -32h-139q-43 0 -65 32l-148 205q-12 17 -8.5 25t25.5 8h69q41 0 70 -29z" />
    <glyph glyph-name="Tbar" unicode="&#x166;" horiz-adv-x="983" 
d="M809 922h-188v-881q0 -22 -9.5 -31.5t-31.5 -9.5h-177q-22 0 -31.5 9.5t-9.5 31.5v881h-188q-22 0 -31.5 9.5t-9.5 31.5v61q0 22 9.5 31.5t31.5 9.5h188v225h-301q-22 0 -31.5 9.5t-9.5 31.5v103q0 22 9.5 31.5t31.5 9.5h861q22 0 31.5 -9.5t9.5 -31.5v-103
q0 -22 -9.5 -31.5t-31.5 -9.5h-301v-225h188q22 0 31.5 -9.5t9.5 -31.5v-61q0 -22 -9.5 -31.5t-31.5 -9.5z" />
    <glyph glyph-name="tbar" unicode="&#x167;" horiz-adv-x="645" 
d="M526 0h-75q-283 0 -283 319v295h-109q-22 0 -31.5 9.5t-9.5 31.5v62q0 22 9.5 31.5t31.5 9.5h109v145h-107q-22 0 -31.5 9.5t-9.5 31.5v80q0 22 9.5 31.5t31.5 9.5h107v158q0 5 0.5 9t2 7t2 5t3.5 4.5t4.5 3.5t6 3t6.5 3t8 3t8 3l164 61q19 7 30 -5.5t11 -35.5v-219h129
q22 0 31.5 -9.5t9.5 -31.5v-80q0 -22 -9.5 -31.5t-31.5 -9.5h-129v-145h129q22 0 31.5 -9.5t9.5 -31.5v-62q0 -22 -9.5 -31.5t-31.5 -9.5h-129v-301q0 -70 29 -105.5t69 -35.5h14q22 0 31.5 -9.5t9.5 -31.5v-90q0 -22 -9.5 -31.5t-31.5 -9.5z" />
    <glyph glyph-name="Utilde" unicode="&#x168;" horiz-adv-x="1302" 
d="M1004 582v852q0 22 9 31.5t31 9.5h115q22 0 31.5 -9.5t9.5 -31.5v-910q0 -239 -155.5 -394t-397.5 -155q-234 0 -389.5 157t-155.5 392v910q0 22 9.5 31.5t31.5 9.5h176q22 0 31.5 -9.5t9.5 -31.5v-852q0 -181 77.5 -301.5t213.5 -120.5q165 0 259 119t94 303zM457 1657
h-62q-13 0 -23 10.5t-10 22.5q3 90 47 146t134 56q42 0 135 -39q73 -32 82 -32q15 0 24 10.5t13.5 23t16.5 23t32 10.5h61q12 0 21.5 -10.5t9.5 -22.5q-2 -90 -45 -146t-133 -56q-30 0 -70 16q-23 9 -62.5 25t-58.5 23t-26 7q-14 0 -25 -10.5t-17 -23t-17.5 -23t-26.5 -10.5
z" />
    <glyph glyph-name="utilde" unicode="&#x169;" horiz-adv-x="1097" 
d="M954 0h-102q-21 0 -28.5 9t-12.5 32l-20 84h-5q-35 -69 -112.5 -109.5t-159.5 -40.5q-177 0 -294.5 108t-117.5 294v647q0 41 39 41h168q39 0 39 -41v-578q0 -85 16.5 -149t60 -107t110.5 -43q215 0 215 320v557q0 22 9.5 31.5t31.5 9.5h163q22 0 31.5 -9.5t9.5 -31.5
v-983q0 -22 -9.5 -31.5t-31.5 -9.5zM354 1247h-61q-13 0 -23 10.5t-10 22.5q3 91 46.5 147t133.5 56q42 0 135 -39q75 -33 82 -33q15 0 24 10.5t13.5 23.5t16.5 23.5t32 10.5h62q12 0 21.5 -10.5t9.5 -22.5q-2 -90 -45.5 -146.5t-133.5 -56.5q-27 0 -69 17q-18 7 -40.5 16
l-37.5 15t-30.5 12t-25 9t-14.5 3q-18 0 -30 -17t-24.5 -34t-31.5 -17z" />
    <glyph glyph-name="Umacron" unicode="&#x16a;" horiz-adv-x="1302" 
d="M1004 582v852q0 22 9 31.5t31 9.5h115q22 0 31.5 -9.5t9.5 -31.5v-910q0 -239 -155.5 -394t-397.5 -155q-234 0 -389.5 157t-155.5 392v910q0 22 9.5 31.5t31.5 9.5h176q22 0 31.5 -9.5t9.5 -31.5v-852q0 -181 77.5 -301.5t213.5 -120.5q165 0 259 119t94 303zM969 1700
h-635q-22 0 -31.5 9.5t-9.5 31.5v61q0 22 9.5 31.5t31.5 9.5h635q22 0 31.5 -9.5t9.5 -31.5v-61q0 -22 -9.5 -31.5t-31.5 -9.5z" />
    <glyph glyph-name="umacron" unicode="&#x16b;" horiz-adv-x="1097" 
d="M954 0h-102q-21 0 -28.5 9t-12.5 32l-20 84h-5q-35 -69 -112.5 -109.5t-159.5 -40.5q-177 0 -294.5 108t-117.5 294v647q0 41 39 41h168q39 0 39 -41v-578q0 -85 16.5 -149t60 -107t110.5 -43q215 0 215 320v557q0 22 9.5 31.5t31.5 9.5h163q22 0 31.5 -9.5t9.5 -31.5
v-983q0 -22 -9.5 -31.5t-31.5 -9.5zM866 1290h-635q-22 0 -31.5 9.5t-9.5 31.5v62q0 22 9.5 31.5t31.5 9.5h635q22 0 31.5 -9.5t9.5 -31.5v-62q0 -22 -9.5 -31.5t-31.5 -9.5z" />
    <glyph glyph-name="Ubreve" unicode="&#x16c;" horiz-adv-x="1302" 
d="M1004 582v852q0 22 9 31.5t31 9.5h115q22 0 31.5 -9.5t9.5 -31.5v-910q0 -239 -155.5 -394t-397.5 -155q-234 0 -389.5 157t-155.5 392v910q0 22 9.5 31.5t31.5 9.5h176q22 0 31.5 -9.5t9.5 -31.5v-852q0 -181 77.5 -301.5t213.5 -120.5q165 0 259 119t94 303zM399 1925
h88q7 0 15.5 -6.5t11.5 -13.5q28 -88 139 -88q112 0 138 88q1 7 10 13.5t18 6.5h86q12 0 21.5 -10.5t9.5 -22.5q-3 -108 -84 -173.5t-199 -65.5q-108 0 -192.5 63.5t-91.5 175.5q-3 13 6.5 23t23.5 10z" />
    <glyph glyph-name="ubreve" unicode="&#x16d;" horiz-adv-x="1097" 
d="M954 0h-102q-21 0 -28.5 9t-12.5 32l-20 84h-5q-35 -69 -112.5 -109.5t-159.5 -40.5q-177 0 -294.5 108t-117.5 294v647q0 41 39 41h168q39 0 39 -41v-578q0 -85 16.5 -149t60 -107t110.5 -43q215 0 215 320v557q0 22 9.5 31.5t31.5 9.5h163q22 0 31.5 -9.5t9.5 -31.5
v-983q0 -22 -9.5 -31.5t-31.5 -9.5zM297 1516h88q7 0 15.5 -7t11.5 -14q28 -88 139 -88t137 88q2 8 11 14.5t18 6.5h86q12 0 21.5 -10.5t9.5 -22.5q-3 -108 -84 -174t-199 -66q-108 0 -193 64t-92 176q-3 13 7 23t24 10z" />
    <glyph glyph-name="Uring" unicode="&#x16e;" horiz-adv-x="1302" 
d="M1004 582v852q0 22 9 31.5t31 9.5h115q22 0 31.5 -9.5t9.5 -31.5v-910q0 -239 -155.5 -394t-397.5 -155q-234 0 -389.5 157t-155.5 392v910q0 22 9.5 31.5t31.5 9.5h176q22 0 31.5 -9.5t9.5 -31.5v-852q0 -181 77.5 -301.5t213.5 -120.5q165 0 259 119t94 303zM461 1778
q0 79 56.5 134.5t133.5 55.5q82 0 136.5 -54t54.5 -136q0 -78 -56 -134.5t-135 -56.5q-76 0 -133 57t-57 134zM547 1778q0 -41 31.5 -73t72.5 -32q42 0 73.5 30t31.5 75t-29 74.5t-76 29.5q-46 0 -75 -31t-29 -73z" />
    <glyph glyph-name="uring" unicode="&#x16f;" horiz-adv-x="1097" 
d="M954 0h-102q-21 0 -28.5 9t-12.5 32l-20 84h-5q-35 -69 -112.5 -109.5t-159.5 -40.5q-177 0 -294.5 108t-117.5 294v647q0 41 39 41h168q39 0 39 -41v-578q0 -85 16.5 -149t60 -107t110.5 -43q215 0 215 320v557q0 22 9.5 31.5t31.5 9.5h163q22 0 31.5 -9.5t9.5 -31.5
v-983q0 -22 -9.5 -31.5t-31.5 -9.5zM358 1368q0 79 57 135t134 56q82 0 136 -54.5t54 -136.5q0 -78 -55.5 -134t-134.5 -56q-76 0 -133.5 56.5t-57.5 133.5zM444 1368q0 -41 32 -72.5t73 -31.5q42 0 73 29.5t31 74.5t-29 75t-75 30t-75.5 -31.5t-29.5 -73.5z" />
    <glyph glyph-name="Uhungarumlaut" unicode="&#x170;" horiz-adv-x="1302" 
d="M1004 582v852q0 22 9 31.5t31 9.5h115q22 0 31.5 -9.5t9.5 -31.5v-910q0 -239 -155.5 -394t-397.5 -155q-234 0 -389.5 157t-155.5 392v910q0 22 9.5 31.5t31.5 9.5h176q22 0 31.5 -9.5t9.5 -31.5v-852q0 -181 77.5 -301.5t213.5 -120.5q165 0 259 119t94 303zM362 1690
l123 200q22 35 64 35h186q43 0 10 -29l-227 -213q-32 -28 -72 -28h-63q-22 0 -26.5 8t5.5 27zM770 1690l123 200q22 35 63 35h187q43 0 10 -29l-227 -213q-32 -28 -72 -28h-63q-22 0 -26.5 8t5.5 27z" />
    <glyph glyph-name="uhungarumlaut" unicode="&#x171;" horiz-adv-x="1097" 
d="M954 0h-102q-21 0 -28.5 9t-12.5 32l-20 84h-5q-35 -69 -112.5 -109.5t-159.5 -40.5q-177 0 -294.5 108t-117.5 294v647q0 41 39 41h168q39 0 39 -41v-578q0 -85 16.5 -149t60 -107t110.5 -43q215 0 215 320v557q0 22 9.5 31.5t31.5 9.5h163q22 0 31.5 -9.5t9.5 -31.5
v-983q0 -22 -9.5 -31.5t-31.5 -9.5zM238 1280l122 201q22 35 64 35h186q44 0 11 -29l-228 -213q-33 -29 -71 -29h-64q-22 0 -26.5 8t6.5 27zM645 1280l123 201q22 35 63 35h187q43 0 10 -29l-227 -213q-33 -29 -72 -29h-63q-22 0 -27 8t6 27z" />
    <glyph glyph-name="Uogonek" unicode="&#x172;" horiz-adv-x="1302" 
d="M1004 582v852q0 22 9 31.5t31 9.5h115q22 0 31.5 -9.5t9.5 -31.5v-910q0 -193 -105 -334.5t-280 -191.5q-14 -21 -40 -63t-34 -54q-30 -48 -30 -88q0 -43 41 -43q7 0 19 7t13 7q20 14 31.5 6.5t18.5 -28.5q3 -6 8 -20.5t8 -20.5q2 -9 3 -14t-2 -10t-5 -7t-10.5 -8.5
t-12.5 -9.5q-62 -48 -137 -53q-160 6 -160 145q0 94 60 174l41 57q-227 8 -376 163.5t-149 385.5v910q0 22 9.5 31.5t31.5 9.5h176q22 0 31.5 -9.5t9.5 -31.5v-852q0 -181 77.5 -301.5t213.5 -120.5q165 0 259 119t94 303z" />
    <glyph glyph-name="uogonek" unicode="&#x173;" horiz-adv-x="1097" 
d="M844 0q-16 1 -22 9.5t-11 31.5l-20 84h-5q-35 -69 -112.5 -109.5t-159.5 -40.5q-177 0 -294.5 108t-117.5 294v647q0 41 39 41h168q39 0 39 -41v-578q0 -85 16.5 -149t60 -107t110.5 -43q215 0 215 320v557q0 22 9.5 31.5t31.5 9.5h163q22 0 31.5 -9.5t9.5 -31.5v-983
q0 -42 -22 -76l-53 -84q-31 -50 -31 -88q0 -43 41 -43q10 0 33 14q34 21 49 -22q7 -14 16 -41q3 -9 4 -14t-2 -10t-5.5 -7t-10.5 -8t-13 -10q-68 -53 -137 -53q-76 -1 -117.5 36.5t-41.5 108.5q0 79 59 154z" />
    <glyph glyph-name="Wcircumflex" unicode="&#x174;" horiz-adv-x="1785" 
d="M1286 0h-131q-49 0 -57 37l-209 995l-221 -995q-8 -37 -58 -37h-131q-46 0 -57 37l-395 1401q-18 37 24 37h195q47 0 55 -39l197 -822l57 -358l57 358l197 822q9 39 51 39h127q42 0 51 -39l183 -822l51 -358l63 358l211 822q14 39 56 39h133q42 0 24 -37l-416 -1401
q-12 -37 -57 -37zM893 1810l-127 -127q-28 -28 -70 -28h-69q-22 0 -25.5 8t8.5 25l148 204q23 33 65 33h140q42 0 65 -33l148 -204q12 -17 8.5 -25t-25.5 -8h-69q-42 0 -70 28z" />
    <glyph glyph-name="wcircumflex" unicode="&#x175;" horiz-adv-x="1605" 
d="M1196 0h-131q-39 0 -57 37l-205 663l-205 -663q-18 -37 -57 -37h-131q-40 0 -58 37l-325 991q-18 37 24 37h189q41 0 53 -39l182 -780l203 780q9 39 51 39h148q42 0 51 -39l202 -780l183 780q9 39 53 39h188q43 0 25 -37l-326 -991q-18 -37 -57 -37zM803 1401l-127 -127
q-29 -29 -70 -29h-69q-22 0 -25.5 8t8.5 25l148 205q23 33 65 33h139q43 0 66 -33l147 -205q12 -17 8.5 -25t-24.5 -8h-70q-40 0 -69 29z" />
    <glyph glyph-name="Ycircumflex" unicode="&#x176;" horiz-adv-x="1286" 
d="M721 0h-176q-22 0 -31.5 9.5t-9.5 31.5v498l-475 901q-11 19 -6.5 27t26.5 8h219q42 0 62 -35l327 -664l353 662q16 37 59 37h168q22 0 27 -8.5t-4 -28.5l-498 -899v-498q0 -22 -9.5 -31.5t-31.5 -9.5zM643 1810l-127 -127q-28 -28 -70 -28h-69q-22 0 -25.5 8t8.5 25
l148 204q23 33 65 33h140q42 0 65 -33l148 -204q12 -17 8.5 -25t-25.5 -8h-69q-42 0 -70 28z" />
    <glyph glyph-name="ycircumflex" unicode="&#x177;" horiz-adv-x="1073" 
d="M428 -451h-182q-43 0 -25 37l193 430l-387 1012q-18 37 24 37h189q41 0 53 -39l248 -782l250 782q14 39 55 39h176q43 0 25 -37l-562 -1442q-18 -37 -57 -37zM537 1401l-127 -127q-29 -29 -70 -29h-70q-21 0 -24.5 8t8.5 25l147 205q23 33 66 33h139q43 0 66 -33
l147 -205q12 -17 8.5 -25t-24.5 -8h-70q-40 0 -69 29z" />
    <glyph glyph-name="Ydieresis" unicode="&#x178;" horiz-adv-x="1286" 
d="M721 0h-176q-22 0 -31.5 9.5t-9.5 31.5v498l-475 901q-11 19 -6.5 27t26.5 8h219q42 0 62 -35l327 -664l353 662q16 37 59 37h168q22 0 27 -8.5t-4 -28.5l-498 -899v-498q0 -22 -9.5 -31.5t-31.5 -9.5zM520 1659h-143q-22 0 -31.5 9.5t-9.5 31.5v143q0 22 9.5 31.5
t31.5 9.5h143q22 0 31.5 -9.5t9.5 -31.5v-143q0 -22 -9.5 -31.5t-31.5 -9.5zM909 1659h-143q-22 0 -31.5 9.5t-9.5 31.5v143q0 22 9.5 31.5t31.5 9.5h143q22 0 31.5 -9.5t9.5 -31.5v-143q0 -22 -9.5 -31.5t-31.5 -9.5z" />
    <glyph glyph-name="Zacute" unicode="&#x179;" horiz-adv-x="995" 
d="M934 0h-873q-22 0 -31.5 9.5t-9.5 31.5v74q0 37 21 78l621 1097h-588q-22 0 -31.5 9.5t-9.5 31.5v103q0 22 9.5 31.5t31.5 9.5h844q22 0 31 -9.5t9 -31.5v-74q0 -39 -20 -78l-619 -1098h615q22 0 31.5 -9.5t9.5 -31.5v-102q0 -22 -9.5 -31.5t-31.5 -9.5zM301 1690
l123 200q22 35 63 35h187q43 0 10 -29l-227 -213q-32 -28 -72 -28h-63q-22 0 -27 8t6 27z" />
    <glyph glyph-name="zacute" unicode="&#x17a;" horiz-adv-x="872" 
d="M770 0h-668q-22 0 -31.5 9.5t-9.5 31.5v74q0 37 21 78l430 710h-397q-22 0 -31.5 9.5t-9.5 31.5v80q0 22 9.5 31.5t31.5 9.5h639q22 0 31.5 -9.5t9.5 -31.5v-74q0 -38 -21 -78l-428 -710h424q22 0 31.5 -9.5t9.5 -31.5v-80q0 -22 -9.5 -31.5t-31.5 -9.5zM240 1280
l122 201q22 35 64 35h186q44 0 11 -29l-228 -213q-33 -29 -71 -29h-64q-22 0 -26.5 8t6.5 27z" />
    <glyph glyph-name="Zdotaccent" unicode="&#x17b;" horiz-adv-x="995" 
d="M934 0h-873q-22 0 -31.5 9.5t-9.5 31.5v74q0 37 21 78l621 1097h-588q-22 0 -31.5 9.5t-9.5 31.5v103q0 22 9.5 31.5t31.5 9.5h844q22 0 31 -9.5t9 -31.5v-74q0 -39 -20 -78l-619 -1098h615q22 0 31.5 -9.5t9.5 -31.5v-102q0 -22 -9.5 -31.5t-31.5 -9.5zM580 1679h-164
q-22 0 -31.5 9.5t-9.5 31.5v164q0 22 9.5 31.5t31.5 9.5h164q22 0 31.5 -9.5t9.5 -31.5v-164q0 -22 -9.5 -31.5t-31.5 -9.5z" />
    <glyph glyph-name="zdotaccent" unicode="&#x17c;" horiz-adv-x="872" 
d="M770 0h-668q-22 0 -31.5 9.5t-9.5 31.5v74q0 37 21 78l430 710h-397q-22 0 -31.5 9.5t-9.5 31.5v80q0 22 9.5 31.5t31.5 9.5h639q22 0 31.5 -9.5t9.5 -31.5v-74q0 -38 -21 -78l-428 -710h424q22 0 31.5 -9.5t9.5 -31.5v-80q0 -22 -9.5 -31.5t-31.5 -9.5zM518 1270h-164
q-22 0 -31.5 9.5t-9.5 31.5v164q0 22 9.5 31.5t31.5 9.5h164q22 0 31.5 -9.5t9.5 -31.5v-164q0 -22 -9.5 -31.5t-31.5 -9.5z" />
    <glyph glyph-name="Zcaron" unicode="&#x17d;" horiz-adv-x="995" 
d="M934 0h-873q-22 0 -31.5 9.5t-9.5 31.5v74q0 37 21 78l621 1097h-588q-22 0 -31.5 9.5t-9.5 31.5v103q0 22 9.5 31.5t31.5 9.5h844q22 0 31 -9.5t9 -31.5v-74q0 -39 -20 -78l-619 -1098h615q22 0 31.5 -9.5t9.5 -31.5v-102q0 -22 -9.5 -31.5t-31.5 -9.5zM371 1896
l127 -127l127 127q29 29 69 29h70q21 0 24.5 -8t-8.5 -25l-147 -204q-23 -33 -66 -33h-139q-43 0 -66 33l-147 204q-12 17 -8.5 25t24.5 8h70q41 0 70 -29z" />
    <glyph glyph-name="zcaron" unicode="&#x17e;" horiz-adv-x="872" 
d="M770 0h-668q-22 0 -31.5 9.5t-9.5 31.5v74q0 37 21 78l430 710h-397q-22 0 -31.5 9.5t-9.5 31.5v80q0 22 9.5 31.5t31.5 9.5h639q22 0 31.5 -9.5t9.5 -31.5v-74q0 -38 -21 -78l-428 -710h424q22 0 31.5 -9.5t9.5 -31.5v-80q0 -22 -9.5 -31.5t-31.5 -9.5zM309 1487
l127 -127l127 127q29 29 70 29h69q22 0 25.5 -8t-8.5 -25l-148 -205q-23 -33 -65 -33h-139q-43 0 -66 33l-147 205q-12 17 -8.5 25t24.5 8h70q40 0 69 -29z" />
    <glyph glyph-name="uni0182" unicode="&#x182;" 
d="M604 0h-461q-22 0 -31.5 9.5t-9.5 31.5v1393q0 22 9.5 31.5t31.5 9.5h785q22 0 31.5 -9.5t9.5 -31.5v-103q0 -22 -9.5 -31.5t-31.5 -9.5h-568v-370h246q114 0 205 -38t147 -103t85.5 -146.5t29.5 -171.5q0 -196 -134.5 -328.5t-334.5 -132.5zM360 172h177
q65 0 114.5 16.5t80 43t49.5 65t26.5 77.5t7.5 85q0 44 -8 84t-28.5 78.5t-51.5 66t-79.5 44t-110.5 16.5h-177v-576z" />
    <glyph glyph-name="uni0186" unicode="&#x186;" horiz-adv-x="1308" 
d="M94 139l33 76q13 17 53 4q193 -49 326 -49q76 0 141.5 18.5t123.5 61.5t99 107.5t64.5 161t23.5 218.5t-23.5 218.5t-64 161.5t-98.5 107.5t-123.5 61.5t-142.5 19q-129 0 -326 -50q-41 -12 -53 5l-33 86q-9 23 -8.5 33.5t10.5 19.5q46 33 167 66.5t243 33.5
q156 0 286.5 -48t228.5 -140.5t153 -239.5t55 -334t-55.5 -334t-153.5 -239.5t-228.5 -140.5t-285.5 -48q-121 0 -242.5 34t-167.5 67q-10 10 -10.5 22.5t8.5 40.5z" />
    <glyph glyph-name="uni0189" unicode="&#x189;" horiz-adv-x="1443" 
d="M688 0h-422q-22 0 -31.5 9.5t-9.5 31.5v612h-102q-22 0 -31.5 9.5t-9.5 31.5v103q0 22 9.5 31.5t31.5 9.5h102v596q0 22 9.5 31.5t31.5 9.5h471q124 0 238.5 -55t199.5 -150.5t136 -233t51 -293.5q0 -209 -90.5 -379t-244.5 -266t-339 -98zM483 184h203q116 0 209.5 74
t145.5 204.5t51 291.5q-1 116 -34.5 217t-90.5 170.5t-134 109t-163 39.5h-187v-452h316q22 0 31.5 -9.5t9.5 -31.5v-103q0 -22 -9.5 -31.5t-31.5 -9.5h-316v-469z" />
    <glyph glyph-name="uni018B" unicode="&#x18b;" 
d="M1012 0h-461q-200 0 -334.5 132.5t-134.5 328.5q0 90 29.5 171.5t85.5 146.5t147 103t205 38h246v370h-568q-22 0 -31.5 9.5t-9.5 31.5v103q0 22 9.5 31.5t31.5 9.5h785q22 0 31.5 -9.5t9.5 -31.5v-1393q0 -22 -9.5 -31.5t-31.5 -9.5zM618 172h177v576h-177
q-62 0 -110.5 -16.5t-79.5 -44t-51.5 -66t-28.5 -78.5t-8 -84q0 -46 7.5 -85t26.5 -77.5t49.5 -65t80 -43t114.5 -16.5z" />
    <glyph glyph-name="uni018E" unicode="&#x18e;" horiz-adv-x="989" 
d="M866 0h-723q-22 0 -31.5 9.5t-9.5 31.5v102q0 22 9.5 31.5t31.5 9.5h506v469h-403q-22 0 -31.5 9.5t-9.5 31.5v103q0 22 9.5 31.5t31.5 9.5h403v452h-506q-22 0 -31.5 9.5t-9.5 31.5v103q0 22 9.5 31.5t31.5 9.5h723q22 0 31.5 -9.5t9.5 -31.5v-1393q0 -22 -9.5 -31.5
t-31.5 -9.5z" />
    <glyph glyph-name="uni0190" unicode="&#x190;" horiz-adv-x="1161" 
d="M637 -23q-155 0 -282.5 58t-200 160t-72.5 225q0 141 78.5 236t224.5 118v4q-235 92 -235 307q0 189 140.5 300.5t379.5 111.5q105 0 206 -33t142 -67q10 -9 10.5 -20t-8.5 -34l-33 -86q-7 -18 -53 -4q-159 50 -264 50q-132 0 -197 -59t-65 -163q0 -111 76.5 -177
t187.5 -66h82q22 0 31.5 -9.5t9.5 -31.5v-90q0 -22 -9.5 -31.5t-31.5 -9.5h-136q-77 0 -133 -21t-86.5 -58t-44.5 -79t-14 -90q0 -50 13.5 -91t45.5 -77.5t93 -57t147 -20.5q79 0 183 17t161 32q46 14 53 -4l33 -86q9 -23 8.5 -33.5t-10.5 -19.5q-41 -32 -175.5 -66.5
t-254.5 -34.5z" />
    <glyph glyph-name="uni0191" unicode="&#x191;" horiz-adv-x="989" 
d="M102 -199v1633q0 22 9.5 31.5t31.5 9.5h723q22 0 31.5 -9.5t9.5 -31.5v-103q0 -22 -9.5 -31.5t-31.5 -9.5h-506v-452h404q22 0 31.5 -9.5t9.5 -31.5v-103q0 -22 -9.5 -31.5t-31.5 -9.5h-404v-846q0 -319 -282 -319h-76q-22 0 -31.5 9.5t-9.5 31.5v90q0 22 9.5 31.5
t31.5 9.5h14q38 0 62 35t24 106z" />
    <glyph glyph-name="florin" unicode="&#x192;" horiz-adv-x="604" 
d="M168 -199v1102h-107q-22 0 -31.5 9.5t-9.5 31.5v80q0 22 9.5 31.5t31.5 9.5h107v131q0 320 283 320h75q22 0 31.5 -9.5t9.5 -31.5v-91q0 -22 -9.5 -31.5t-31.5 -9.5h-14q-40 0 -69 -35.5t-29 -105.5v-137h129q22 0 31.5 -9.5t9.5 -31.5v-80q0 -22 -9.5 -31.5t-31.5 -9.5
h-129v-1096q0 -319 -283 -319h-76q-22 0 -31.5 9.5t-9.5 31.5v90q0 22 9.5 31.5t31.5 9.5h15q40 0 69 35.5t29 105.5z" />
    <glyph glyph-name="uni019E" unicode="&#x19e;" horiz-adv-x="1097" 
d="M956 -410h-168q-38 0 -38 41v987q0 62 -9.5 114t-30.5 95t-58.5 67t-88.5 24q-215 0 -215 -320v-557q0 -22 -9.5 -31.5t-31.5 -9.5h-164q-22 0 -31.5 9.5t-9.5 31.5v983q0 22 9.5 31.5t31.5 9.5h103q21 0 28.5 -9t12.5 -32l20 -84h4q35 69 113 109.5t160 40.5
q177 0 294 -108t117 -294v-1057q0 -41 -39 -41z" />
    <glyph glyph-name="uni019F" unicode="&#x19f;" horiz-adv-x="1609" 
d="M805 -25q-155 0 -285.5 48t-228.5 140.5t-153.5 239.5t-55.5 334t55 334t153 239.5t228.5 140.5t286.5 48t286.5 -48t228.5 -140.5t153 -239.5t55 -334t-55.5 -334t-153.5 -239.5t-228.5 -140.5t-285.5 -48zM805 170q88 0 162.5 26.5t136 82t100.5 151t49 223.5h-899
q8 -103 35.5 -185t69 -137t97 -92t117 -53t132.5 -16zM805 1305q-88 0 -162 -26t-135.5 -79.5t-101 -145.5t-50.5 -216h897q-11 124 -50.5 216t-101 145.5t-135.5 79.5t-161 26z" />
    <glyph glyph-name="Ohorn" unicode="&#x1a0;" horiz-adv-x="1609" 
d="M805 -25q-155 0 -285.5 48t-228.5 140.5t-153.5 239.5t-55.5 334t55 334t153 239.5t228.5 140.5t286.5 48q186 0 336.5 -67.5t247.5 -200.5v2q49 0 76.5 59.5t27.5 151.5v51q0 21 20 21h129q21 0 21 -21v-80q0 -105 -62 -179t-161 -91q88 -178 88 -408q0 -187 -55.5 -334
t-153.5 -239.5t-228.5 -140.5t-285.5 -48zM805 170q76 0 141.5 18.5t123.5 61.5t99 107.5t64.5 161t23.5 218.5t-23.5 218.5t-64 161.5t-98.5 107.5t-123.5 61.5t-142.5 19q-97 0 -176 -31t-142.5 -96t-99 -177.5t-35.5 -263.5t35.5 -263.5t99.5 -177t143 -95.5t175 -31z
" />
    <glyph glyph-name="ohorn" unicode="&#x1a1;" 
d="M578 -25q-115 0 -202.5 29t-142.5 78t-89.5 121.5t-48 151t-13.5 175.5t13.5 176.5t48 152.5t89.5 123.5t142.5 80t202.5 29.5q297 0 417 -201v2q49 0 77 48.5t28 121.5v51q0 14 4 17.5t16 3.5h88q14 0 17.5 -4.5t3.5 -16.5v-80q0 -90 -54.5 -153.5t-140.5 -77.5
q39 -108 39 -271q0 -97 -13.5 -176t-48 -151.5t-89.5 -122t-142 -78.5t-202 -29zM578 160q60 0 104.5 19.5t72 52t44 81.5t22.5 101t6 118q0 65 -6 117.5t-22.5 102t-44 82.5t-72 53t-104.5 20q-74 0 -125 -29t-77.5 -83.5t-37 -117t-10.5 -145.5q0 -66 6 -118t23 -101
t44.5 -81.5t72 -52t104.5 -19.5z" />
    <glyph glyph-name="uni01A7" unicode="&#x1a7;" horiz-adv-x="1136" 
d="M707 653l-199 -78q-83 -33 -137 -89.5t-54 -125.5q0 -85 81 -137.5t214 -52.5q79 0 183 17t161 32q47 14 54 -4l32 -86q9 -23 8.5 -33.5t-10.5 -19.5q-41 -32 -175.5 -66.5t-254.5 -34.5q-237 0 -383.5 111t-146.5 297q0 142 90 261t262 183l197 74q98 37 137 84.5
t39 108.5q0 37 -12.5 71t-41 67t-85 53t-134.5 20q-136 0 -325 -50q-46 -14 -53 5l-33 86q-9 25 -8.5 35.5t10.5 17.5q36 29 168 64.5t254 35.5q137 0 249 -50.5t180 -150t68 -229.5q0 -285 -335 -416z" />
    <glyph glyph-name="uni01A8" unicode="&#x1a8;" horiz-adv-x="970" 
d="M649 465l-176 -53q-92 -29 -126 -55t-34 -72q0 -138 205 -138q108 0 262 52q41 14 54 -4l43 -66q17 -25 -3 -53q-30 -41 -136 -71t-232 -30q-116 0 -210.5 36t-155 113t-60.5 183q0 125 52 198.5t181 110.5l240 70q80 22 80 100q0 63 -42.5 98.5t-129.5 35.5
q-95 0 -238 -52q-45 -15 -53 4l-43 66q-21 32 0 53q38 38 136.5 69.5t219.5 31.5q182 0 282.5 -92t100.5 -238q0 -108 -53.5 -187t-163.5 -110z" />
    <glyph glyph-name="Uhorn" unicode="&#x1af;" horiz-adv-x="1302" 
d="M1200 1434v-201q49 0 77 60t28 151v51q0 21 20 21h129q21 0 21 -21v-80q0 -118 -79 -196t-196 -78v-617q0 -239 -155.5 -394t-397.5 -155q-234 0 -389.5 157t-155.5 392v910q0 22 9.5 31.5t31.5 9.5h176q22 0 31.5 -9.5t9.5 -31.5v-852q0 -181 77.5 -301.5t213.5 -120.5
q165 0 259 119t94 303v852q0 22 9 31.5t31 9.5h115q22 0 31.5 -9.5t9.5 -31.5z" />
    <glyph glyph-name="uhorn" unicode="&#x1b0;" horiz-adv-x="1097" 
d="M954 0h-102q-21 0 -28.5 9t-12.5 32l-20 84h-5q-35 -69 -112.5 -109.5t-159.5 -40.5q-177 0 -294.5 108t-117.5 294v647q0 41 39 41h168q39 0 39 -41v-578q0 -85 16.5 -149t60 -107t110.5 -43q215 0 215 320v557q0 22 9.5 31.5t31.5 9.5h163q22 0 31.5 -9.5t9.5 -31.5
v-131q49 0 77 48.5t28 121.5v51q0 14 4 17.5t16 3.5h88q14 0 17.5 -4.5t3.5 -16.5v-80q0 -99 -67.5 -166t-166.5 -67v-760q0 -22 -9.5 -31.5t-31.5 -9.5z" />
    <glyph glyph-name="uni01C3" unicode="&#x1c3;" horiz-adv-x="450" 
d="M143 246h164q22 0 31.5 -9.5t9.5 -31.5v-164q0 -22 -9.5 -31.5t-31.5 -9.5h-164q-22 0 -31.5 9.5t-9.5 31.5v164q0 22 9.5 31.5t31.5 9.5zM143 1516h164q22 0 31.5 -9.5t9.5 -31.5v-983q0 -22 -9.5 -31.5t-31.5 -9.5h-164q-22 0 -31.5 9.5t-9.5 31.5v983q0 22 9.5 31.5
t31.5 9.5z" />
    <glyph glyph-name="uni01C7" unicode="&#x1c7;" horiz-adv-x="1677" 
d="M907 143v-102q0 -22 -9.5 -31.5t-31.5 -9.5h-723q-22 0 -31.5 9.5t-9.5 31.5v1393q0 22 9.5 31.5t31.5 9.5h176q22 0 31.5 -9.5t9.5 -31.5v-1250h506q22 0 31.5 -9.5t9.5 -31.5zM969 45v98q0 22 9.5 31.5t31.5 9.5h26q157 0 229 86.5t72 302.5v861q0 22 9.5 31.5
t31.5 9.5h176q22 0 31.5 -9.5t9.5 -31.5v-904q-3 -255 -139.5 -392.5t-372.5 -137.5l-77 2q-20 1 -28.5 11t-8.5 32z" />
    <glyph glyph-name="uni01C8" unicode="&#x1c8;" horiz-adv-x="1398" 
d="M907 143v-102q0 -22 -9.5 -31.5t-31.5 -9.5h-723q-22 0 -31.5 9.5t-9.5 31.5v1393q0 22 9.5 31.5t31.5 9.5h176q22 0 31.5 -9.5t9.5 -31.5v-1250h506q22 0 31.5 -9.5t9.5 -31.5zM1255 1270h-163q-22 0 -31.5 9.5t-9.5 31.5v164q0 22 9.5 31.5t31.5 9.5h163
q22 0 31.5 -9.5t9.5 -31.5v-164q0 -22 -9.5 -31.5t-31.5 -9.5zM1014 -451h-35q-22 0 -31.5 9.5t-9.5 31.5v91q0 22 9.5 31t31.5 9h14q23 0 40.5 41t17.5 121v1141q0 22 9.5 31.5t31.5 9.5h163q22 0 31.5 -9.5t9.5 -31.5v-1155q0 -320 -282 -320z" />
    <glyph glyph-name="uni01C9" unicode="&#x1c9;" horiz-adv-x="913" 
d="M420 0h-35q-283 0 -283 319v1156q0 22 9.5 31.5t31.5 9.5h164q22 0 31.5 -9.5t9.5 -31.5v-1141q0 -80 17.5 -121t40.5 -41h14q22 0 31.5 -9.5t9.5 -31.5v-90q0 -22 -9.5 -31.5t-31.5 -9.5zM770 1270h-164q-22 0 -31.5 9.5t-9.5 31.5v164q0 22 9.5 31.5t31.5 9.5h164
q22 0 31.5 -9.5t9.5 -31.5v-164q0 -22 -9.5 -31.5t-31.5 -9.5zM528 -451h-34q-22 0 -31.5 9.5t-9.5 31.5v91q0 22 9.5 31t31.5 9h14q23 0 40 41t17 121v1141q0 22 9.5 31.5t31.5 9.5h164q22 0 31.5 -9.5t9.5 -31.5v-1155q0 -320 -283 -320z" />
    <glyph glyph-name="uni01CA" unicode="&#x1ca;" horiz-adv-x="2031" 
d="M1159 0h-143q-47 0 -68 33l-624 999h-5l21 -418v-573q0 -22 -9.5 -31.5t-31.5 -9.5h-156q-22 0 -31.5 9.5t-9.5 31.5v1393q0 22 9.5 31.5t31.5 9.5h144q46 0 67 -33l625 -1000h4l-20 418v574q0 22 9.5 31.5t31.5 9.5h155q22 0 31.5 -9.5t9.5 -31.5v-1393
q0 -22 -9.5 -31.5t-31.5 -9.5zM1323 45v98q0 22 9.5 31.5t31.5 9.5h27q157 0 229 86.5t72 302.5v861q0 22 9.5 31.5t31.5 9.5h176q22 0 31.5 -9.5t9.5 -31.5v-904q-3 -255 -139.5 -392.5t-372.5 -137.5l-78 2q-20 1 -28.5 11t-8.5 32z" />
    <glyph glyph-name="uni01CB" unicode="&#x1cb;" horiz-adv-x="1753" 
d="M1159 0h-143q-47 0 -68 33l-624 999h-5l21 -418v-573q0 -22 -9.5 -31.5t-31.5 -9.5h-156q-22 0 -31.5 9.5t-9.5 31.5v1393q0 22 9.5 31.5t31.5 9.5h144q46 0 67 -33l625 -1000h4l-20 418v574q0 22 9.5 31.5t31.5 9.5h155q22 0 31.5 -9.5t9.5 -31.5v-1393
q0 -22 -9.5 -31.5t-31.5 -9.5zM1610 1270h-164q-22 0 -31.5 9.5t-9.5 31.5v164q0 22 9.5 31.5t31.5 9.5h164q22 0 31.5 -9.5t9.5 -31.5v-164q0 -22 -9.5 -31.5t-31.5 -9.5zM1368 -451h-35q-22 0 -31.5 9.5t-9.5 31.5v91q0 22 9.5 31t31.5 9h15q23 0 40 41t17 121v1141
q0 22 9.5 31.5t31.5 9.5h164q22 0 31.5 -9.5t9.5 -31.5v-1155q0 -320 -283 -320z" />
    <glyph glyph-name="uni01CC" unicode="&#x1cc;" horiz-adv-x="1548" 
d="M956 0h-168q-38 0 -38 41v577q0 62 -9.5 114t-30.5 95t-58.5 67t-88.5 24q-215 0 -215 -320v-557q0 -22 -9.5 -31.5t-31.5 -9.5h-164q-22 0 -31.5 9.5t-9.5 31.5v983q0 22 9.5 31.5t31.5 9.5h103q21 0 28.5 -9t12.5 -32l20 -84h4q35 69 113 109.5t160 40.5
q177 0 294 -108t117 -294v-647q0 -41 -39 -41zM1405 1270h-164q-22 0 -31.5 9.5t-9.5 31.5v164q0 22 9.5 31.5t31.5 9.5h164q22 0 31.5 -9.5t9.5 -31.5v-164q0 -22 -9.5 -31.5t-31.5 -9.5zM1163 -451h-35q-22 0 -31.5 9.5t-9.5 31.5v91q0 22 9.5 31t31.5 9h15q23 0 40 41
t17 121v1141q0 22 9.5 31.5t31.5 9.5h164q22 0 31.5 -9.5t9.5 -31.5v-1155q0 -320 -283 -320z" />
    <glyph glyph-name="uni01CD" unicode="&#x1cd;" horiz-adv-x="1376" 
d="M1325 0h-195q-41 0 -55 39l-127 323h-581l-127 -323q-14 -39 -56 -39h-133q-42 0 -24 37l559 1401q15 37 57 37h90q43 0 58 -37l559 -1401q18 -37 -25 -37zM881 535l-183 530l-41 154l-39 -154l-184 -530h447zM561 1896l127 -127l127 127q29 29 70 29h69q22 0 25.5 -8
t-8.5 -25l-148 -204q-23 -33 -65 -33h-140q-42 0 -65 33l-147 204q-12 17 -8.5 25t24.5 8h70q40 0 69 -29z" />
    <glyph glyph-name="uni01CE" unicode="&#x1ce;" horiz-adv-x="1052" 
d="M930 0h-103q-21 0 -28.5 9t-12.5 32l-20 84h-4q-40 -73 -116 -111.5t-179 -38.5q-79 0 -147.5 23t-122 67.5t-84.5 116.5t-31 164q0 77 22.5 136t60.5 96t94 60.5t116.5 32.5t134.5 9h211q-3 30 -10.5 58.5t-24 63t-39.5 59.5t-61.5 42t-87.5 17q-67 0 -232 -52
q-41 -12 -53 4l-43 66q-19 29 2 53q34 37 136.5 69t217.5 32q103 0 182 -29.5t128 -78.5t80 -120.5t43 -148.5t12 -170v-504q0 -22 -9.5 -31.5t-31.5 -9.5zM725 449v59h-215q-82 0 -131 -41.5t-49 -114.5q0 -26 6 -53t20.5 -54.5t36 -49t55.5 -35t76 -13.5q96 0 148.5 74.5
t52.5 227.5zM399 1487l127 -127l127 127q29 29 70 29h70q21 0 24.5 -8t-8.5 -25l-147 -205q-23 -33 -66 -33h-139q-43 0 -66 33l-147 205q-12 17 -8.5 25t24.5 8h70q40 0 69 -29z" />
    <glyph glyph-name="uni01CF" unicode="&#x1cf;" horiz-adv-x="462" 
d="M319 0h-176q-22 0 -31.5 9.5t-9.5 31.5v1393q0 22 9.5 31.5t31.5 9.5h176q22 0 31.5 -9.5t9.5 -31.5v-1393q0 -22 -9.5 -31.5t-31.5 -9.5zM104 1896l127 -127l127 127q29 29 70 29h70q21 0 24.5 -8t-8.5 -25l-147 -204q-23 -33 -66 -33h-139q-43 0 -66 33l-147 204
q-12 17 -8.5 25t24.5 8h70q40 0 69 -29z" />
    <glyph glyph-name="uni01D0" unicode="&#x1d0;" horiz-adv-x="450" 
d="M307 0h-164q-22 0 -31.5 9.5t-9.5 31.5v983q0 22 9.5 31.5t31.5 9.5h164q22 0 31.5 -9.5t9.5 -31.5v-983q0 -22 -9.5 -31.5t-31.5 -9.5zM98 1487l127 -127l127 127q29 29 70 29h70q21 0 24.5 -8t-8.5 -25l-148 -205q-23 -33 -65 -33h-139q-43 0 -66 33l-147 205
q-12 17 -8.5 25t24.5 8h70q40 0 69 -29z" />
    <glyph glyph-name="uni01D1" unicode="&#x1d1;" horiz-adv-x="1609" 
d="M805 -25q-155 0 -285.5 48t-228.5 140.5t-153.5 239.5t-55.5 334t55 334t153 239.5t228.5 140.5t286.5 48t286.5 -48t228.5 -140.5t153 -239.5t55 -334t-55.5 -334t-153.5 -239.5t-228.5 -140.5t-285.5 -48zM805 170q76 0 141.5 18.5t123.5 61.5t99 107.5t64.5 161
t23.5 218.5t-23.5 218.5t-64 161.5t-98.5 107.5t-123.5 61.5t-142.5 19q-97 0 -176 -31t-142.5 -96t-99 -177.5t-35.5 -263.5t35.5 -263.5t99.5 -177t143 -95.5t175 -31zM678 1896l127 -127l127 127q29 29 69 29h70q21 0 24.5 -8t-8.5 -25l-147 -204q-23 -33 -66 -33h-139
q-42 0 -65 33l-148 204q-12 17 -8.5 25t25.5 8h69q41 0 70 -29z" />
    <glyph glyph-name="uni01D2" unicode="&#x1d2;" 
d="M578 -25q-115 0 -202.5 29t-142.5 78t-89.5 121.5t-48 151t-13.5 175.5t13.5 176.5t48 152.5t89.5 123.5t142.5 80t202.5 29.5t202.5 -29.5t142 -79.5t89 -123.5t48 -152.5t13.5 -175q0 -97 -13.5 -176t-48 -151.5t-89.5 -122t-142 -78.5t-202 -29zM578 160
q60 0 104.5 19.5t72 52t44 81.5t22.5 101t6 118q0 65 -6 117.5t-22.5 102t-44 82.5t-72 53t-104.5 20q-74 0 -125 -29t-77.5 -83.5t-37 -117t-10.5 -145.5q0 -66 6 -118t23 -101t44.5 -81.5t72 -52t104.5 -19.5zM451 1487l127 -127l127 127q29 29 69 29h70q21 0 24.5 -8
t-8.5 -25l-147 -205q-23 -33 -66 -33h-139q-43 0 -66 33l-147 205q-12 17 -8.5 25t24.5 8h70q41 0 70 -29z" />
    <glyph glyph-name="uni01D3" unicode="&#x1d3;" horiz-adv-x="1302" 
d="M1004 582v852q0 22 9 31.5t31 9.5h115q22 0 31.5 -9.5t9.5 -31.5v-910q0 -239 -155.5 -394t-397.5 -155q-234 0 -389.5 157t-155.5 392v910q0 22 9.5 31.5t31.5 9.5h176q22 0 31.5 -9.5t9.5 -31.5v-852q0 -181 77.5 -301.5t213.5 -120.5q165 0 259 119t94 303zM524 1896
l127 -127l127 127q29 29 70 29h70q21 0 24.5 -8t-8.5 -25l-148 -204q-23 -33 -65 -33h-139q-43 0 -66 33l-147 204q-12 17 -8.5 25t24.5 8h70q40 0 69 -29z" />
    <glyph glyph-name="uni01D4" unicode="&#x1d4;" horiz-adv-x="1097" 
d="M954 0h-102q-21 0 -28.5 9t-12.5 32l-20 84h-5q-35 -69 -112.5 -109.5t-159.5 -40.5q-177 0 -294.5 108t-117.5 294v647q0 41 39 41h168q39 0 39 -41v-578q0 -85 16.5 -149t60 -107t110.5 -43q215 0 215 320v557q0 22 9.5 31.5t31.5 9.5h163q22 0 31.5 -9.5t9.5 -31.5
v-983q0 -22 -9.5 -31.5t-31.5 -9.5zM422 1487l127 -127l127 127q29 29 69 29h70q21 0 24.5 -8t-8.5 -25l-147 -205q-23 -33 -66 -33h-139q-42 0 -65 33l-148 205q-12 17 -8.5 25t25.5 8h69q41 0 70 -29z" />
    <glyph glyph-name="uni01D5" unicode="&#x1d5;" horiz-adv-x="1302" 
d="M1004 582v852q0 22 9 31.5t31 9.5h115q22 0 31.5 -9.5t9.5 -31.5v-910q0 -239 -155.5 -394t-397.5 -155q-234 0 -389.5 157t-155.5 392v910q0 22 9.5 31.5t31.5 9.5h176q22 0 31.5 -9.5t9.5 -31.5v-852q0 -181 77.5 -301.5t213.5 -120.5q165 0 259 119t94 303zM528 1659
h-143q-22 0 -31.5 9.5t-9.5 31.5v143q0 22 9.5 31.5t31.5 9.5h143q22 0 31.5 -9.5t9.5 -31.5v-143q0 -22 -9.5 -31.5t-31.5 -9.5zM918 1659h-144q-22 0 -31.5 9.5t-9.5 31.5v143q0 22 9.5 31.5t31.5 9.5h144q22 0 31 -9.5t9 -31.5v-143q0 -22 -9 -31.5t-31 -9.5zM969 2007
h-635q-22 0 -31.5 9.5t-9.5 31.5v61q0 22 9.5 31.5t31.5 9.5h635q22 0 31.5 -9.5t9.5 -31.5v-61q0 -22 -9.5 -31.5t-31.5 -9.5z" />
    <glyph glyph-name="uni01D6" unicode="&#x1d6;" horiz-adv-x="1097" 
d="M954 0h-102q-21 0 -28.5 9t-12.5 32l-20 84h-5q-35 -69 -112.5 -109.5t-159.5 -40.5q-177 0 -294.5 108t-117.5 294v647q0 41 39 41h168q39 0 39 -41v-578q0 -85 16.5 -149t60 -107t110.5 -43q215 0 215 320v557q0 22 9.5 31.5t31.5 9.5h163q22 0 31.5 -9.5t9.5 -31.5
v-983q0 -22 -9.5 -31.5t-31.5 -9.5zM426 1249h-143q-22 0 -31.5 9.5t-9.5 31.5v144q0 22 9.5 31.5t31.5 9.5h143q22 0 31.5 -9.5t9.5 -31.5v-144q0 -22 -9.5 -31.5t-31.5 -9.5zM815 1249h-143q-22 0 -31.5 9.5t-9.5 31.5v144q0 22 9.5 31.5t31.5 9.5h143q22 0 31.5 -9.5
t9.5 -31.5v-144q0 -22 -9.5 -31.5t-31.5 -9.5zM866 1597h-635q-22 0 -31.5 9.5t-9.5 31.5v62q0 22 9.5 31.5t31.5 9.5h635q22 0 31.5 -9.5t9.5 -31.5v-62q0 -22 -9.5 -31.5t-31.5 -9.5z" />
    <glyph glyph-name="uni01D7" unicode="&#x1d7;" horiz-adv-x="1302" 
d="M1004 582v852q0 22 9 31.5t31 9.5h115q22 0 31.5 -9.5t9.5 -31.5v-910q0 -239 -155.5 -394t-397.5 -155q-234 0 -389.5 157t-155.5 392v910q0 22 9.5 31.5t31.5 9.5h176q22 0 31.5 -9.5t9.5 -31.5v-852q0 -181 77.5 -301.5t213.5 -120.5q165 0 259 119t94 303zM528 1659
h-143q-22 0 -31.5 9.5t-9.5 31.5v143q0 22 9.5 31.5t31.5 9.5h143q22 0 31.5 -9.5t9.5 -31.5v-143q0 -22 -9.5 -31.5t-31.5 -9.5zM918 1659h-144q-22 0 -31.5 9.5t-9.5 31.5v143q0 22 9.5 31.5t31.5 9.5h144q22 0 31 -9.5t9 -31.5v-143q0 -22 -9 -31.5t-31 -9.5zM598 1997
l123 201q22 34 63 34h187q42 0 10 -28l-227 -213q-33 -29 -72 -29h-64q-22 0 -26.5 8t6.5 27z" />
    <glyph glyph-name="uni01D8" unicode="&#x1d8;" horiz-adv-x="1097" 
d="M954 0h-102q-21 0 -28.5 9t-12.5 32l-20 84h-5q-35 -69 -112.5 -109.5t-159.5 -40.5q-177 0 -294.5 108t-117.5 294v647q0 41 39 41h168q39 0 39 -41v-578q0 -85 16.5 -149t60 -107t110.5 -43q215 0 215 320v557q0 22 9.5 31.5t31.5 9.5h163q22 0 31.5 -9.5t9.5 -31.5
v-983q0 -22 -9.5 -31.5t-31.5 -9.5zM426 1249h-143q-22 0 -31.5 9.5t-9.5 31.5v144q0 22 9.5 31.5t31.5 9.5h143q22 0 31.5 -9.5t9.5 -31.5v-144q0 -22 -9.5 -31.5t-31.5 -9.5zM815 1249h-143q-22 0 -31.5 9.5t-9.5 31.5v144q0 22 9.5 31.5t31.5 9.5h143q22 0 31.5 -9.5
t9.5 -31.5v-144q0 -22 -9.5 -31.5t-31.5 -9.5zM498 1587l123 201q22 35 63 35h186q44 0 11 -29l-228 -213q-33 -29 -71 -29h-64q-22 0 -26.5 8t6.5 27z" />
    <glyph glyph-name="uni01D9" unicode="&#x1d9;" horiz-adv-x="1302" 
d="M1004 582v852q0 22 9 31.5t31 9.5h115q22 0 31.5 -9.5t9.5 -31.5v-910q0 -239 -155.5 -394t-397.5 -155q-234 0 -389.5 157t-155.5 392v910q0 22 9.5 31.5t31.5 9.5h176q22 0 31.5 -9.5t9.5 -31.5v-852q0 -181 77.5 -301.5t213.5 -120.5q165 0 259 119t94 303zM528 1659
h-143q-22 0 -31.5 9.5t-9.5 31.5v143q0 22 9.5 31.5t31.5 9.5h143q22 0 31.5 -9.5t9.5 -31.5v-143q0 -22 -9.5 -31.5t-31.5 -9.5zM918 1659h-144q-22 0 -31.5 9.5t-9.5 31.5v143q0 22 9.5 31.5t31.5 9.5h144q22 0 31 -9.5t9 -31.5v-143q0 -22 -9 -31.5t-31 -9.5zM524 2204
l127 -127l127 127q28 28 70 28h70q21 0 24.5 -7.5t-8.5 -24.5l-148 -205q-23 -33 -65 -33h-139q-43 0 -66 33l-147 205q-12 17 -8.5 24.5t24.5 7.5h70q41 0 69 -28z" />
    <glyph glyph-name="uni01DA" unicode="&#x1da;" horiz-adv-x="1097" 
d="M954 0h-102q-21 0 -28.5 9t-12.5 32l-20 84h-5q-35 -69 -112.5 -109.5t-159.5 -40.5q-177 0 -294.5 108t-117.5 294v647q0 41 39 41h168q39 0 39 -41v-578q0 -85 16.5 -149t60 -107t110.5 -43q215 0 215 320v557q0 22 9.5 31.5t31.5 9.5h163q22 0 31.5 -9.5t9.5 -31.5
v-983q0 -22 -9.5 -31.5t-31.5 -9.5zM426 1249h-143q-22 0 -31.5 9.5t-9.5 31.5v144q0 22 9.5 31.5t31.5 9.5h143q22 0 31.5 -9.5t9.5 -31.5v-144q0 -22 -9.5 -31.5t-31.5 -9.5zM815 1249h-143q-22 0 -31.5 9.5t-9.5 31.5v144q0 22 9.5 31.5t31.5 9.5h143q22 0 31.5 -9.5
t9.5 -31.5v-144q0 -22 -9.5 -31.5t-31.5 -9.5zM422 1794l127 -127l127 127q29 29 69 29h70q21 0 24.5 -8t-8.5 -25l-147 -205q-23 -33 -66 -33h-139q-42 0 -65 33l-148 205q-12 17 -8.5 25t25.5 8h69q41 0 70 -29z" />
    <glyph glyph-name="uni01DB" unicode="&#x1db;" horiz-adv-x="1302" 
d="M1004 582v852q0 22 9 31.5t31 9.5h115q22 0 31.5 -9.5t9.5 -31.5v-910q0 -239 -155.5 -394t-397.5 -155q-234 0 -389.5 157t-155.5 392v910q0 22 9.5 31.5t31.5 9.5h176q22 0 31.5 -9.5t9.5 -31.5v-852q0 -181 77.5 -301.5t213.5 -120.5q165 0 259 119t94 303zM528 1659
h-143q-22 0 -31.5 9.5t-9.5 31.5v143q0 22 9.5 31.5t31.5 9.5h143q22 0 31.5 -9.5t9.5 -31.5v-143q0 -22 -9.5 -31.5t-31.5 -9.5zM918 1659h-144q-22 0 -31.5 9.5t-9.5 31.5v143q0 22 9.5 31.5t31.5 9.5h144q22 0 31 -9.5t9 -31.5v-143q0 -22 -9 -31.5t-31 -9.5zM582 2198
l123 -201q11 -19 6 -27t-27 -8h-63q-39 0 -72 29l-227 213q-32 28 10 28h186q42 0 64 -34z" />
    <glyph glyph-name="uni01DC" unicode="&#x1dc;" horiz-adv-x="1097" 
d="M954 0h-102q-21 0 -28.5 9t-12.5 32l-20 84h-5q-35 -69 -112.5 -109.5t-159.5 -40.5q-177 0 -294.5 108t-117.5 294v647q0 41 39 41h168q39 0 39 -41v-578q0 -85 16.5 -149t60 -107t110.5 -43q215 0 215 320v557q0 22 9.5 31.5t31.5 9.5h163q22 0 31.5 -9.5t9.5 -31.5
v-983q0 -22 -9.5 -31.5t-31.5 -9.5zM426 1249h-143q-22 0 -31.5 9.5t-9.5 31.5v144q0 22 9.5 31.5t31.5 9.5h143q22 0 31.5 -9.5t9.5 -31.5v-144q0 -22 -9.5 -31.5t-31.5 -9.5zM815 1249h-143q-22 0 -31.5 9.5t-9.5 31.5v144q0 22 9.5 31.5t31.5 9.5h143q22 0 31.5 -9.5
t9.5 -31.5v-144q0 -22 -9.5 -31.5t-31.5 -9.5zM481 1788l123 -201q11 -19 6.5 -27t-26.5 -8h-64q-38 0 -71 29l-228 213q-33 29 10 29h187q41 0 63 -35z" />
    <glyph glyph-name="uni01DD" unicode="&#x1dd;" horiz-adv-x="1056" 
d="M172 872l-43 66q-19 29 2 53q32 37 136.5 69t226.5 32q110 0 195 -30t138.5 -79.5t87 -121.5t47 -148.5t13.5 -167.5q0 -122 -25 -222.5t-77.5 -180t-142 -123.5t-210.5 -44q-94 0 -173 27.5t-138.5 81t-93 138.5t-33.5 194q0 118 47.5 161.5t175.5 43.5h420
q-6 68 -22 120t-45 93.5t-77 63.5t-114 22q-80 0 -242 -52q-41 -12 -53 4zM725 449h-315q-49 0 -64.5 -12.5t-15.5 -57.5q0 -94 50.5 -163t129.5 -69q193 0 215 302z" />
    <glyph glyph-name="uni01DE" unicode="&#x1de;" horiz-adv-x="1376" 
d="M1325 0h-195q-41 0 -55 39l-127 323h-581l-127 -323q-14 -39 -56 -39h-133q-42 0 -24 37l559 1401q15 37 57 37h90q43 0 58 -37l559 -1401q18 -37 -25 -37zM881 535l-183 530l-41 154l-39 -154l-184 -530h447zM565 1659h-143q-22 0 -31.5 9.5t-9.5 31.5v143
q0 22 9.5 31.5t31.5 9.5h143q22 0 31.5 -9.5t9.5 -31.5v-143q0 -22 -9.5 -31.5t-31.5 -9.5zM954 1659h-143q-22 0 -31.5 9.5t-9.5 31.5v143q0 22 9.5 31.5t31.5 9.5h143q22 0 31.5 -9.5t9.5 -31.5v-143q0 -22 -9.5 -31.5t-31.5 -9.5zM1006 2007h-635q-22 0 -31.5 9.5
t-9.5 31.5v61q0 22 9.5 31.5t31.5 9.5h635q22 0 31.5 -9.5t9.5 -31.5v-61q0 -22 -9.5 -31.5t-31.5 -9.5z" />
    <glyph glyph-name="uni01DF" unicode="&#x1df;" horiz-adv-x="1052" 
d="M930 0h-103q-21 0 -28.5 9t-12.5 32l-20 84h-4q-40 -73 -116 -111.5t-179 -38.5q-79 0 -147.5 23t-122 67.5t-84.5 116.5t-31 164q0 77 22.5 136t60.5 96t94 60.5t116.5 32.5t134.5 9h211q-3 30 -10.5 58.5t-24 63t-39.5 59.5t-61.5 42t-87.5 17q-67 0 -232 -52
q-41 -12 -53 4l-43 66q-19 29 2 53q34 37 136.5 69t217.5 32q103 0 182 -29.5t128 -78.5t80 -120.5t43 -148.5t12 -170v-504q0 -22 -9.5 -31.5t-31.5 -9.5zM725 449v59h-215q-82 0 -131 -41.5t-49 -114.5q0 -26 6 -53t20.5 -54.5t36 -49t55.5 -35t76 -13.5q96 0 148.5 74.5
t52.5 227.5zM403 1249h-143q-22 0 -31.5 9.5t-9.5 31.5v144q0 22 9.5 31.5t31.5 9.5h143q22 0 31.5 -9.5t9.5 -31.5v-144q0 -22 -9.5 -31.5t-31.5 -9.5zM793 1249h-144q-22 0 -31.5 9.5t-9.5 31.5v144q0 22 9.5 31.5t31.5 9.5h144q22 0 31.5 -9.5t9.5 -31.5v-144
q0 -22 -9.5 -31.5t-31.5 -9.5zM844 1597h-635q-22 0 -31.5 9.5t-9.5 31.5v62q0 22 9.5 31.5t31.5 9.5h635q22 0 31.5 -9.5t9.5 -31.5v-62q0 -22 -9.5 -31.5t-31.5 -9.5z" />
    <glyph glyph-name="uni01E0" unicode="&#x1e0;" horiz-adv-x="1376" 
d="M1325 0h-195q-41 0 -55 39l-127 323h-581l-127 -323q-14 -39 -56 -39h-133q-42 0 -24 37l559 1401q15 37 57 37h90q43 0 58 -37l559 -1401q18 -37 -25 -37zM881 535l-183 530l-41 154l-39 -154l-184 -530h447zM770 1679h-164q-22 0 -31.5 9.5t-9.5 31.5v164
q0 22 9.5 31.5t31.5 9.5h164q22 0 31.5 -9.5t9.5 -31.5v-164q0 -22 -9.5 -31.5t-31.5 -9.5zM1006 2007h-635q-22 0 -31.5 9.5t-9.5 31.5v61q0 22 9.5 31.5t31.5 9.5h635q22 0 31.5 -9.5t9.5 -31.5v-61q0 -22 -9.5 -31.5t-31.5 -9.5z" />
    <glyph glyph-name="uni01E1" unicode="&#x1e1;" horiz-adv-x="1052" 
d="M930 0h-103q-21 0 -28.5 9t-12.5 32l-20 84h-4q-40 -73 -116 -111.5t-179 -38.5q-79 0 -147.5 23t-122 67.5t-84.5 116.5t-31 164q0 77 22.5 136t60.5 96t94 60.5t116.5 32.5t134.5 9h211q-3 30 -10.5 58.5t-24 63t-39.5 59.5t-61.5 42t-87.5 17q-67 0 -232 -52
q-41 -12 -53 4l-43 66q-19 29 2 53q34 37 136.5 69t217.5 32q103 0 182 -29.5t128 -78.5t80 -120.5t43 -148.5t12 -170v-504q0 -22 -9.5 -31.5t-31.5 -9.5zM725 449v59h-215q-82 0 -131 -41.5t-49 -114.5q0 -26 6 -53t20.5 -54.5t36 -49t55.5 -35t76 -13.5q96 0 148.5 74.5
t52.5 227.5zM608 1270h-164q-22 0 -31.5 9.5t-9.5 31.5v164q0 22 9.5 31.5t31.5 9.5h164q22 0 31.5 -9.5t9.5 -31.5v-164q0 -22 -9.5 -31.5t-31.5 -9.5zM844 1597h-635q-22 0 -31.5 9.5t-9.5 31.5v62q0 22 9.5 31.5t31.5 9.5h635q22 0 31.5 -9.5t9.5 -31.5v-62
q0 -22 -9.5 -31.5t-31.5 -9.5z" />
    <glyph glyph-name="uni01E2" unicode="&#x1e2;" horiz-adv-x="1468" 
d="M1346 0h-621q-22 0 -31.5 9.5t-9.5 31.5v321h-317l-127 -323q-14 -39 -56 -39h-133q-39 0 -24 37l559 1401q15 37 57 37h703q22 0 31 -9.5t9 -31.5v-103q0 -22 -9 -31.5t-31 -9.5h-404v-452h301q22 0 31.5 -9.5t9.5 -31.5v-103q0 -22 -9.5 -31.5t-31.5 -9.5h-301v-469
h404q22 0 31 -9.5t9 -31.5v-102q0 -22 -9 -31.5t-31 -9.5zM618 1065l-184 -530h250v684h-27zM1051 1700h-635q-22 0 -31.5 9.5t-9.5 31.5v61q0 22 9.5 31.5t31.5 9.5h635q22 0 31.5 -9.5t9.5 -31.5v-61q0 -22 -9.5 -31.5t-31.5 -9.5z" />
    <glyph glyph-name="uni01E3" unicode="&#x1e3;" horiz-adv-x="1691" 
d="M1198 -25q-246 0 -367 144q-121 -144 -364 -144q-79 0 -147.5 23t-122 67.5t-84.5 116.5t-31 164q0 77 22.5 136t60.5 96t94 60.5t116.5 32.5t134.5 9h211q-3 30 -10.5 58.5t-24 63t-39.5 59.5t-61.5 42t-87.5 17q-67 0 -232 -52q-41 -12 -53 4l-43 66q-19 29 2 53
q34 37 136.5 69t217.5 32q212 0 326 -127q114 127 319 127q195 0 317 -113.5t122 -327.5q0 -118 -48 -161.5t-176 -43.5h-419q6 -68 22 -120t45 -93.5t77 -63.5t114 -22q37 0 82 8.5t74 17t85 26.5q42 12 54 -4l43 -66q19 -29 -2 -53q-32 -37 -136.5 -69t-226.5 -32z
M725 449v59h-215q-82 0 -131 -41.5t-49 -114.5q0 -26 6 -53t20.5 -54.5t36 -49t55.5 -35t76 -13.5q96 0 148.5 74.5t52.5 227.5zM967 618h315q49 0 64.5 12.5t15.5 57.5q0 94 -50.5 163t-129.5 69q-193 0 -215 -302zM1163 1290h-635q-22 0 -31.5 9.5t-9.5 31.5v62
q0 22 9.5 31.5t31.5 9.5h635q22 0 31.5 -9.5t9.5 -31.5v-62q0 -22 -9.5 -31.5t-31.5 -9.5z" />
    <glyph glyph-name="uni01E4" unicode="&#x1e4;" horiz-adv-x="1435" 
d="M1362 369h-137v-265q2 -17 -11 -28q-46 -33 -167 -67t-242 -34q-155 0 -285.5 48t-228.5 140.5t-153.5 239.5t-55.5 334t55 334t153 239.5t228.5 140.5t286.5 48q122 0 242.5 -33.5t166.5 -66.5q11 -9 11.5 -19.5t-8.5 -33.5l-33 -76q-12 -17 -54 -4q-193 49 -325 49
q-97 0 -176 -31.5t-142.5 -97.5t-99 -180.5t-35.5 -268.5q0 -124 23.5 -222.5t64.5 -164t99.5 -109t124 -62.5t141.5 -19q85 0 162 12v197h-240q-22 0 -31.5 9.5t-9.5 31.5v61q0 22 9.5 31.5t31.5 9.5h240v141h-181q-22 0 -31.5 9.5t-9.5 31.5v103q0 22 9.5 31.5t31.5 9.5
h398q22 0 31.5 -9.5t9.5 -31.5v-285h137q22 0 31.5 -9.5t9.5 -31.5v-61q0 -22 -9.5 -31.5t-31.5 -9.5z" />
    <glyph glyph-name="uni01E5" unicode="&#x1e5;" horiz-adv-x="1189" 
d="M1192 -225h-170q-62 -116 -172 -180t-252 -64q-121 0 -255 34t-175 66q-10 9 -10.5 20t8.5 34l33 86q7 18 53 4q57 -15 161.5 -32t182.5 -17q79 0 141 49h-180q-22 0 -31.5 9.5t-9.5 31.5v61q0 22 9.5 31.5t31.5 9.5h268q17 63 17 121v86h-4q-98 -150 -316 -150
q-74 0 -137.5 17t-120 58.5t-96.5 104.5t-63 160.5t-23 221.5q0 123 23 219.5t62.5 158.5t95.5 102.5t118 57.5t135 17q241 0 363 -154h4l20 86q5 23 12.5 32t28.5 9h103q22 0 31 -9.5t9 -31.5v-963q0 -64 -14 -143h119q22 0 31.5 -9.5t9.5 -31.5v-61q0 -22 -9.5 -31.5
t-31.5 -9.5zM557 147q140 0 212.5 93.5t72.5 296.5q0 199 -71.5 291t-211.5 92q-59 0 -99.5 -16.5t-71.5 -58.5t-45.5 -118t-14.5 -190q0 -94 10.5 -163t29 -112.5t48 -69t63 -35.5t78.5 -10z" />
    <glyph glyph-name="Gcaron" unicode="&#x1e6;" horiz-adv-x="1329" 
d="M967 172v481h-181q-22 0 -31.5 9.5t-9.5 31.5v103q0 22 9.5 31.5t31.5 9.5h398q22 0 31.5 -9.5t9.5 -31.5v-693q2 -17 -11 -28q-46 -33 -167 -67t-242 -34q-155 0 -285.5 48t-228.5 140.5t-153.5 239.5t-55.5 334t55 334t153 239.5t228.5 140.5t286.5 48
q122 0 242.5 -33.5t166.5 -66.5q11 -9 11.5 -19.5t-8.5 -33.5l-33 -76q-12 -17 -54 -4q-193 49 -325 49q-97 0 -176 -31.5t-142.5 -97.5t-99 -180.5t-35.5 -268.5q0 -124 23.5 -222.5t64.5 -164t99.5 -109t124 -62.5t141.5 -19q85 0 162 12zM643 1896l127 -127l127 127
q29 29 70 29h69q22 0 25.5 -8t-8.5 -25l-148 -204q-23 -33 -65 -33h-140q-42 0 -65 33l-148 204q-12 17 -8.5 25t25.5 8h69q41 0 70 -29z" />
    <glyph glyph-name="gcaron" unicode="&#x1e7;" horiz-adv-x="1189" 
d="M842 39v86h-4q-98 -150 -316 -150q-74 0 -137.5 17t-120 58.5t-96.5 104.5t-63 160.5t-23 221.5q0 123 23 219.5t62.5 158.5t95.5 102.5t118 57.5t135 17q241 0 363 -154h4l20 86q5 23 12.5 32t28.5 9h103q22 0 31 -9.5t9 -31.5v-963q0 -241 -135 -385.5t-354 -144.5
q-121 0 -255 34t-175 66q-10 9 -10.5 20t8.5 34l33 86q7 18 53 4q57 -15 161.5 -32t182.5 -17q110 0 178 86.5t68 226.5zM557 147q140 0 212.5 93.5t72.5 296.5q0 199 -71.5 291t-211.5 92q-59 0 -99.5 -16.5t-71.5 -58.5t-45.5 -118t-14.5 -190q0 -94 10.5 -163t29 -112.5
t48 -69t63 -35.5t78.5 -10zM438 1487l127 -127l127 127q29 29 70 29h69q22 0 25.5 -8t-8.5 -25l-148 -205q-23 -33 -65 -33h-139q-43 0 -66 33l-147 205q-12 17 -8.5 25t24.5 8h70q40 0 69 -29z" />
    <glyph glyph-name="uni01E8" unicode="&#x1e8;" horiz-adv-x="1304" 
d="M1161 0h-241q-43 0 -66 33l-494 637v-629q0 -22 -9.5 -31.5t-31.5 -9.5h-176q-22 0 -31.5 9.5t-9.5 31.5v1393q0 22 9.5 31.5t31.5 9.5h176q22 0 31.5 -9.5t9.5 -31.5v-631l508 639q23 33 66 33h211q21 0 24.5 -8t-8.5 -25l-571 -686l588 -723q12 -17 8.5 -25t-25.5 -8z
M481 1896l127 -127l127 127q29 29 70 29h69q22 0 25.5 -8t-8.5 -25l-148 -204q-23 -33 -65 -33h-139q-43 0 -66 33l-147 204q-12 17 -8.5 25t24.5 8h70q40 0 69 -29z" />
    <glyph glyph-name="uni01E9" unicode="&#x1e9;" horiz-adv-x="997" 
d="M948 0h-200q-43 0 -66 33l-336 432v-424q0 -22 -9.5 -31.5t-31.5 -9.5h-162q-22 0 -31.5 9.5t-9.5 31.5v1434q0 22 9.5 31.5t31.5 9.5h162q22 0 31.5 -9.5t9.5 -31.5v-877l344 434q23 33 66 33h170q22 0 26 -9t-10 -24l-407 -481l430 -518q14 -15 9.5 -24t-26.5 -9z
M371 1896l127 -127l127 127q29 29 69 29h70q21 0 24.5 -8t-8.5 -25l-147 -204q-23 -33 -66 -33h-139q-43 0 -66 33l-147 204q-12 17 -8.5 25t24.5 8h70q41 0 70 -29z" />
    <glyph glyph-name="uni01EA" unicode="&#x1ea;" horiz-adv-x="1609" 
d="M805 -25q-155 0 -285.5 48t-228.5 140.5t-153.5 239.5t-55.5 334t55 334t153 239.5t228.5 140.5t286.5 48t286.5 -48t228.5 -140.5t153 -239.5t55 -334q0 -157 -39 -286t-110.5 -219.5t-167.5 -149.5t-214 -86l-71 -115q-31 -50 -31 -88q0 -43 41 -43q7 0 19.5 7t13.5 7
q31 29 49 -22q3 -6 8 -20.5t8 -20.5q2 -7 2.5 -12.5t0 -8.5t-3.5 -7t-5 -5.5t-9 -7t-11 -8.5q-62 -48 -138 -53q-159 6 -159 145q0 95 59 174l41 57h-6zM805 170q76 0 141.5 18.5t123.5 61.5t99 107.5t64.5 161t23.5 218.5t-23.5 218.5t-64 161.5t-98.5 107.5t-123.5 61.5
t-142.5 19q-97 0 -176 -31t-142.5 -96t-99 -177.5t-35.5 -263.5t35.5 -263.5t99.5 -177t143 -95.5t175 -31z" />
    <glyph glyph-name="uni01EB" unicode="&#x1eb;" 
d="M1073 532q0 -99 -15 -180t-49 -152.5t-96 -123t-149 -76.5l-76 -119q-31 -50 -31 -88q0 -43 41 -43q7 0 19.5 7t13.5 7q31 29 49 -22q3 -6 8.5 -20.5t8.5 -20.5q2 -9 3 -14t-2 -10t-5 -7t-10.5 -8.5t-12.5 -9.5q-62 -48 -137 -53q-160 6 -160 145q0 95 59 174l41 57
q-114 1 -200.5 30t-141 78t-88.5 121t-47.5 151t-13.5 175q0 97 13.5 176.5t48 152.5t89.5 123.5t142.5 80t202.5 29.5t202.5 -29.5t142 -79.5t89 -123.5t48 -152.5t13.5 -175zM578 160q60 0 104.5 19.5t72 52t44 81.5t22.5 101t6 118q0 65 -6 117.5t-22.5 102t-44 82.5
t-72 53t-104.5 20q-74 0 -125 -29t-77.5 -83.5t-37 -117t-10.5 -145.5q0 -66 6 -118t23 -101t44.5 -81.5t72 -52t104.5 -19.5z" />
    <glyph glyph-name="uni01EC" unicode="&#x1ec;" horiz-adv-x="1609" 
d="M805 -25q-155 0 -285.5 48t-228.5 140.5t-153.5 239.5t-55.5 334t55 334t153 239.5t228.5 140.5t286.5 48t286.5 -48t228.5 -140.5t153 -239.5t55 -334q0 -157 -39 -286t-110.5 -219.5t-167.5 -149.5t-214 -86l-71 -115q-31 -50 -31 -88q0 -43 41 -43q7 0 19.5 7t13.5 7
q31 29 49 -22q3 -6 8 -20.5t8 -20.5q2 -7 2.5 -12.5t0 -8.5t-3.5 -7t-5 -5.5t-9 -7t-11 -8.5q-62 -48 -138 -53q-159 6 -159 145q0 95 59 174l41 57h-6zM805 170q76 0 141.5 18.5t123.5 61.5t99 107.5t64.5 161t23.5 218.5t-23.5 218.5t-64 161.5t-98.5 107.5t-123.5 61.5
t-142.5 19q-97 0 -176 -31t-142.5 -96t-99 -177.5t-35.5 -263.5t35.5 -263.5t99.5 -177t143 -95.5t175 -31zM1122 1700h-635q-22 0 -31.5 9.5t-9.5 31.5v61q0 22 9.5 31.5t31.5 9.5h635q22 0 31.5 -9.5t9.5 -31.5v-61q0 -22 -9.5 -31.5t-31.5 -9.5z" />
    <glyph glyph-name="uni01ED" unicode="&#x1ed;" 
d="M1073 532q0 -99 -15 -180t-49 -152.5t-96 -123t-149 -76.5l-76 -119q-31 -50 -31 -88q0 -43 41 -43q7 0 19.5 7t13.5 7q31 29 49 -22q3 -6 8.5 -20.5t8.5 -20.5q2 -9 3 -14t-2 -10t-5 -7t-10.5 -8.5t-12.5 -9.5q-62 -48 -137 -53q-160 6 -160 145q0 95 59 174l41 57
q-114 1 -200.5 30t-141 78t-88.5 121t-47.5 151t-13.5 175q0 97 13.5 176.5t48 152.5t89.5 123.5t142.5 80t202.5 29.5t202.5 -29.5t142 -79.5t89 -123.5t48 -152.5t13.5 -175zM578 160q60 0 104.5 19.5t72 52t44 81.5t22.5 101t6 118q0 65 -6 117.5t-22.5 102t-44 82.5
t-72 53t-104.5 20q-74 0 -125 -29t-77.5 -83.5t-37 -117t-10.5 -145.5q0 -66 6 -118t23 -101t44.5 -81.5t72 -52t104.5 -19.5zM895 1290h-635q-22 0 -31.5 9.5t-9.5 31.5v62q0 22 9.5 31.5t31.5 9.5h635q22 0 31.5 -9.5t9.5 -31.5v-62q0 -22 -9.5 -31.5t-31.5 -9.5z" />
    <glyph glyph-name="uni01F0" unicode="&#x1f0;" horiz-adv-x="450" 
d="M66 -451h-35q-22 0 -31.5 9.5t-9.5 31.5v91q0 22 9.5 31t31.5 9h14q23 0 40 41t17 121v1141q0 22 9.5 31.5t31.5 9.5h164q22 0 31.5 -9.5t9.5 -31.5v-1155q0 -320 -282 -320zM98 1487l127 -127l127 127q29 29 70 29h70q21 0 24.5 -8t-8.5 -25l-148 -205q-23 -33 -65 -33
h-139q-43 0 -66 33l-147 205q-12 17 -8.5 25t24.5 8h70q40 0 69 -29z" />
    <glyph glyph-name="uni01F1" unicode="&#x1f1;" horiz-adv-x="2316" 
d="M565 0h-422q-22 0 -31.5 9.5t-9.5 31.5v1393q0 22 9.5 31.5t31.5 9.5h471q124 0 238.5 -55t199.5 -150.5t136 -233t51 -293.5q0 -209 -90.5 -379t-244.5 -266t-339 -98zM360 184h203q116 0 209.5 74t145.5 204.5t51 291.5q-1 116 -34.5 217t-90.5 170.5t-134 109
t-163 39.5h-187v-1106zM2255 0h-873q-22 0 -31.5 9.5t-9.5 31.5v74q0 37 21 78l620 1097h-587q-22 0 -31.5 9.5t-9.5 31.5v103q0 22 9.5 31.5t31.5 9.5h843q22 0 31.5 -9.5t9.5 -31.5v-74q0 -39 -20 -78l-619 -1098h615q22 0 31.5 -9.5t9.5 -31.5v-102q0 -22 -9.5 -31.5
t-31.5 -9.5z" />
    <glyph glyph-name="uni01F2" unicode="&#x1f2;" horiz-adv-x="2193" 
d="M565 0h-422q-22 0 -31.5 9.5t-9.5 31.5v1393q0 22 9.5 31.5t31.5 9.5h471q124 0 238.5 -55t199.5 -150.5t136 -233t51 -293.5q0 -209 -90.5 -379t-244.5 -266t-339 -98zM360 184h203q116 0 209.5 74t145.5 204.5t51 291.5q-1 116 -34.5 217t-90.5 170.5t-134 109
t-163 39.5h-187v-1106zM2091 0h-668q-22 0 -31.5 9.5t-9.5 31.5v74q0 37 21 78l430 710h-397q-22 0 -31.5 9.5t-9.5 31.5v80q0 22 9.5 31.5t31.5 9.5h639q22 0 31.5 -9.5t9.5 -31.5v-74q0 -38 -21 -78l-428 -710h424q22 0 31.5 -9.5t9.5 -31.5v-80q0 -22 -9.5 -31.5
t-31.5 -9.5z" />
    <glyph glyph-name="uni01F3" unicode="&#x1f3;" horiz-adv-x="2062" 
d="M1047 0h-103q-21 0 -28.5 9t-12.5 32l-20 86h-4q-122 -154 -363 -154q-73 0 -135 17t-118 57.5t-95.5 102.5t-62.5 158.5t-23 219.5q0 124 23 221.5t63 160.5t96.5 104.5t120 58.5t137.5 17q218 0 316 -150h4v535q0 22 9.5 31.5t31.5 9.5h164q22 0 31 -9.5t9 -31.5v-1434
q0 -22 -9 -31.5t-31 -9.5zM559 145q140 0 211.5 92t71.5 291q0 203 -72.5 296.5t-212.5 93.5q-45 0 -78.5 -10t-63 -35.5t-48 -69t-29 -112.5t-10.5 -163q0 -114 14.5 -190t45.5 -118t71.5 -58.5t99.5 -16.5zM1960 0h-668q-22 0 -31.5 9.5t-9.5 31.5v74q0 37 21 78l430 710
h-397q-22 0 -31.5 9.5t-9.5 31.5v80q0 22 9.5 31.5t31.5 9.5h639q22 0 31.5 -9.5t9.5 -31.5v-74q0 -38 -21 -78l-428 -710h424q22 0 31.5 -9.5t9.5 -31.5v-80q0 -22 -9.5 -31.5t-31.5 -9.5z" />
    <glyph glyph-name="uni01F4" unicode="&#x1f4;" horiz-adv-x="1329" 
d="M967 172v481h-181q-22 0 -31.5 9.5t-9.5 31.5v103q0 22 9.5 31.5t31.5 9.5h398q22 0 31.5 -9.5t9.5 -31.5v-693q2 -17 -11 -28q-46 -33 -167 -67t-242 -34q-155 0 -285.5 48t-228.5 140.5t-153.5 239.5t-55.5 334t55 334t153 239.5t228.5 140.5t286.5 48
q122 0 242.5 -33.5t166.5 -66.5q11 -9 11.5 -19.5t-8.5 -33.5l-33 -76q-12 -17 -54 -4q-193 49 -325 49q-97 0 -176 -31.5t-142.5 -97.5t-99 -180.5t-35.5 -268.5q0 -124 23.5 -222.5t64.5 -164t99.5 -109t124 -62.5t141.5 -19q85 0 162 12zM672 1690l123 200q22 35 63 35
h186q44 0 11 -29l-228 -213q-32 -28 -71 -28h-64q-22 0 -26.5 8t6.5 27z" />
    <glyph glyph-name="uni01F5" unicode="&#x1f5;" horiz-adv-x="1189" 
d="M842 39v86h-4q-98 -150 -316 -150q-74 0 -137.5 17t-120 58.5t-96.5 104.5t-63 160.5t-23 221.5q0 123 23 219.5t62.5 158.5t95.5 102.5t118 57.5t135 17q241 0 363 -154h4l20 86q5 23 12.5 32t28.5 9h103q22 0 31 -9.5t9 -31.5v-963q0 -241 -135 -385.5t-354 -144.5
q-121 0 -255 34t-175 66q-10 9 -10.5 20t8.5 34l33 86q7 18 53 4q57 -15 161.5 -32t182.5 -17q110 0 178 86.5t68 226.5zM557 147q140 0 212.5 93.5t72.5 296.5q0 199 -71.5 291t-211.5 92q-59 0 -99.5 -16.5t-71.5 -58.5t-45.5 -118t-14.5 -190q0 -94 10.5 -163t29 -112.5
t48 -69t63 -35.5t78.5 -10zM489 1280l123 201q22 35 64 35h186q43 0 10 -29l-227 -213q-33 -29 -72 -29h-63q-22 0 -27 8t6 27z" />
    <glyph glyph-name="uni01F8" unicode="&#x1f8;" horiz-adv-x="1302" 
d="M1159 0h-143q-47 0 -68 33l-624 999h-5l21 -418v-573q0 -22 -9.5 -31.5t-31.5 -9.5h-156q-22 0 -31.5 9.5t-9.5 31.5v1393q0 22 9.5 31.5t31.5 9.5h144q46 0 67 -33l625 -1000h4l-20 418v574q0 22 9.5 31.5t31.5 9.5h155q22 0 31.5 -9.5t9.5 -31.5v-1393
q0 -22 -9.5 -31.5t-31.5 -9.5zM618 1890l123 -200q11 -19 6.5 -27t-26.5 -8h-64q-39 0 -71 28l-228 213q-33 29 11 29h186q41 0 63 -35z" />
    <glyph glyph-name="uni01F9" unicode="&#x1f9;" horiz-adv-x="1097" 
d="M956 0h-168q-38 0 -38 41v577q0 62 -9.5 114t-30.5 95t-58.5 67t-88.5 24q-215 0 -215 -320v-557q0 -22 -9.5 -31.5t-31.5 -9.5h-164q-22 0 -31.5 9.5t-9.5 31.5v983q0 22 9.5 31.5t31.5 9.5h103q21 0 28.5 -9t12.5 -32l20 -84h4q35 69 113 109.5t160 40.5
q177 0 294 -108t117 -294v-647q0 -41 -39 -41zM528 1481l123 -201q11 -19 6.5 -27t-26.5 -8h-64q-38 0 -71 29l-228 213q-33 29 11 29h186q41 0 63 -35z" />
    <glyph glyph-name="Aringacute" unicode="&#x1fa;" horiz-adv-x="1376" 
d="M1325 0h-195q-41 0 -55 39l-127 323h-581l-127 -323q-14 -39 -56 -39h-133q-42 0 -24 37l559 1401q15 37 57 37h90q43 0 58 -37l559 -1401q18 -37 -25 -37zM881 535l-183 530l-41 154l-39 -154l-184 -530h447zM498 1778q0 79 56.5 134.5t133.5 55.5q82 0 136.5 -54
t54.5 -136q0 -78 -56 -134.5t-135 -56.5q-76 0 -133 57t-57 134zM584 1778q0 -41 31.5 -73t72.5 -32q42 0 73.5 30t31.5 75t-29 74.5t-76 29.5q-46 0 -75 -31t-29 -73zM631 2099l123 201q22 35 63 35h187q43 0 10 -29l-228 -213q-33 -29 -71 -29h-64q-22 0 -26.5 8t6.5 27z
" />
    <glyph glyph-name="aringacute" unicode="&#x1fb;" horiz-adv-x="1052" 
d="M930 0h-103q-21 0 -28.5 9t-12.5 32l-20 84h-4q-40 -73 -116 -111.5t-179 -38.5q-79 0 -147.5 23t-122 67.5t-84.5 116.5t-31 164q0 77 22.5 136t60.5 96t94 60.5t116.5 32.5t134.5 9h211q-3 30 -10.5 58.5t-24 63t-39.5 59.5t-61.5 42t-87.5 17q-67 0 -232 -52
q-41 -12 -53 4l-43 66q-19 29 2 53q34 37 136.5 69t217.5 32q103 0 182 -29.5t128 -78.5t80 -120.5t43 -148.5t12 -170v-504q0 -22 -9.5 -31.5t-31.5 -9.5zM725 449v59h-215q-82 0 -131 -41.5t-49 -114.5q0 -26 6 -53t20.5 -54.5t36 -49t55.5 -35t76 -13.5q96 0 148.5 74.5
t52.5 227.5zM336 1368q0 79 56.5 135t133.5 56q82 0 136.5 -54.5t54.5 -136.5q0 -78 -56 -134t-135 -56q-76 0 -133 56.5t-57 133.5zM422 1368q0 -41 31.5 -72.5t72.5 -31.5q42 0 73.5 29.5t31.5 74.5t-29 75t-76 30q-45 0 -74.5 -31.5t-29.5 -73.5zM483 1690l123 200
q22 35 64 35h186q43 0 10 -29l-227 -213q-32 -28 -72 -28h-63q-22 0 -27 8t6 27z" />
    <glyph glyph-name="AEacute" unicode="&#x1fc;" horiz-adv-x="1468" 
d="M1346 0h-621q-22 0 -31.5 9.5t-9.5 31.5v321h-317l-127 -323q-14 -39 -56 -39h-133q-39 0 -24 37l559 1401q15 37 57 37h703q22 0 31 -9.5t9 -31.5v-103q0 -22 -9 -31.5t-31 -9.5h-404v-452h301q22 0 31.5 -9.5t9.5 -31.5v-103q0 -22 -9.5 -31.5t-31.5 -9.5h-301v-469
h404q22 0 31 -9.5t9 -31.5v-102q0 -22 -9 -31.5t-31 -9.5zM618 1065l-184 -530h250v684h-27zM780 1690l123 200q22 35 64 35h186q43 0 10 -29l-227 -213q-32 -28 -72 -28h-63q-22 0 -26.5 8t5.5 27z" />
    <glyph glyph-name="aeacute" unicode="&#x1fd;" horiz-adv-x="1691" 
d="M1198 -25q-246 0 -367 144q-121 -144 -364 -144q-79 0 -147.5 23t-122 67.5t-84.5 116.5t-31 164q0 77 22.5 136t60.5 96t94 60.5t116.5 32.5t134.5 9h211q-3 30 -10.5 58.5t-24 63t-39.5 59.5t-61.5 42t-87.5 17q-67 0 -232 -52q-41 -12 -53 4l-43 66q-19 29 2 53
q34 37 136.5 69t217.5 32q212 0 326 -127q114 127 319 127q195 0 317 -113.5t122 -327.5q0 -118 -48 -161.5t-176 -43.5h-419q6 -68 22 -120t45 -93.5t77 -63.5t114 -22q37 0 82 8.5t74 17t85 26.5q42 12 54 -4l43 -66q19 -29 -2 -53q-32 -37 -136.5 -69t-226.5 -32z
M725 449v59h-215q-82 0 -131 -41.5t-49 -114.5q0 -26 6 -53t20.5 -54.5t36 -49t55.5 -35t76 -13.5q96 0 148.5 74.5t52.5 227.5zM967 618h315q49 0 64.5 12.5t15.5 57.5q0 94 -50.5 163t-129.5 69q-193 0 -215 -302zM772 1280l123 201q22 35 63 35h187q43 0 10 -29
l-227 -213q-33 -29 -72 -29h-63q-22 0 -26.5 8t5.5 27z" />
    <glyph glyph-name="Oslashacute" unicode="&#x1fe;" horiz-adv-x="1609" 
d="M262 20l-78 66q-33 26 -4 59l62 72q-160 200 -160 520q0 187 55 334t153 239.5t228.5 140.5t286.5 48q249 0 426 -119l57 68q26 33 60 6l77 -65q34 -27 5 -60l-62 -74q160 -200 160 -518q0 -187 -55.5 -334t-153.5 -239.5t-228.5 -140.5t-285.5 -48q-249 0 -426 119
l-57 -67q-26 -33 -60 -7zM352 737q0 -192 58 -321l677 794q-112 95 -282 95q-97 0 -176 -31t-142.5 -96t-99 -177.5t-35.5 -263.5zM805 170q76 0 141.5 18.5t123.5 61.5t99 107.5t64.5 161t23.5 218.5q0 193 -57 322l-678 -797q109 -92 283 -92zM705 1690l122 200
q22 35 64 35h186q43 0 10 -29l-227 -213q-32 -28 -72 -28h-63q-22 0 -26.5 8t6.5 27z" />
    <glyph glyph-name="oslashacute" unicode="&#x1ff;" 
d="M156 -33l-78 66q-33 26 -4 59l78 92q-70 132 -70 346q0 97 13.5 176.5t48 152.5t89.5 123.5t142.5 80t202.5 29.5q169 0 282 -66l60 70q25 32 59 6l78 -66q33 -26 4 -59l-70 -82q82 -136 82 -363q0 -97 -13.5 -176t-48 -151.5t-89.5 -122t-142 -78.5t-202 -29
q-186 0 -299 74l-64 -76q-25 -32 -59 -6zM578 160q60 0 104.5 19.5t72 52t44 81.5t22.5 101t6 118q0 84 -12 154l-397 -471q58 -55 160 -55zM328 532q0 -76 8 -131l387 461q-54 45 -145 45q-74 0 -125 -29t-77.5 -83.5t-37 -117t-10.5 -145.5zM502 1280l123 201q22 35 63 35
h186q44 0 11 -29l-228 -213q-33 -29 -71 -29h-64q-22 0 -26.5 8t6.5 27z" />
    <glyph glyph-name="uni0200" unicode="&#x200;" horiz-adv-x="1376" 
d="M1325 0h-195q-41 0 -55 39l-127 323h-581l-127 -323q-14 -39 -56 -39h-133q-42 0 -24 37l559 1401q15 37 57 37h90q43 0 58 -37l559 -1401q18 -37 -25 -37zM881 535l-183 530l-41 154l-39 -154l-184 -530h447zM883 1890l123 -200q10 -19 5.5 -27t-26.5 -8h-63
q-40 0 -72 28l-227 213q-33 29 10 29h186q42 0 64 -35zM475 1890l123 -200q11 -19 6.5 -27t-26.5 -8h-64q-40 0 -72 28l-227 213q-33 29 10 29h187q41 0 63 -35z" />
    <glyph glyph-name="uni0201" unicode="&#x201;" horiz-adv-x="1052" 
d="M930 0h-103q-21 0 -28.5 9t-12.5 32l-20 84h-4q-40 -73 -116 -111.5t-179 -38.5q-79 0 -147.5 23t-122 67.5t-84.5 116.5t-31 164q0 77 22.5 136t60.5 96t94 60.5t116.5 32.5t134.5 9h211q-3 30 -10.5 58.5t-24 63t-39.5 59.5t-61.5 42t-87.5 17q-67 0 -232 -52
q-41 -12 -53 4l-43 66q-19 29 2 53q34 37 136.5 69t217.5 32q103 0 182 -29.5t128 -78.5t80 -120.5t43 -148.5t12 -170v-504q0 -22 -9.5 -31.5t-31.5 -9.5zM725 449v59h-215q-82 0 -131 -41.5t-49 -114.5q0 -26 6 -53t20.5 -54.5t36 -49t55.5 -35t76 -13.5q96 0 148.5 74.5
t52.5 227.5zM731 1481l123 -201q11 -19 6.5 -27t-26.5 -8h-64q-39 0 -72 29l-227 213q-33 29 10 29h187q41 0 63 -35zM324 1481l122 -201q11 -19 6.5 -27t-26.5 -8h-64q-38 0 -71 29l-228 213q-33 29 11 29h186q42 0 64 -35z" />
    <glyph glyph-name="uni0202" unicode="&#x202;" horiz-adv-x="1376" 
d="M1325 0h-195q-41 0 -55 39l-127 323h-581l-127 -323q-14 -39 -56 -39h-133q-42 0 -24 37l559 1401q15 37 57 37h90q43 0 58 -37l559 -1401q18 -37 -25 -37zM881 535l-183 530l-41 154l-39 -154l-184 -530h447zM524 1653h-88q-14 0 -23.5 10t-6.5 23q7 112 91.5 175.5
t192.5 63.5q118 0 199 -65.5t84 -173.5q0 -12 -9.5 -22.5t-21.5 -10.5h-86q-9 0 -18.5 6.5t-10.5 13.5q-26 88 -137 88t-139 -88q-3 -7 -11.5 -13.5t-15.5 -6.5z" />
    <glyph glyph-name="uni0203" unicode="&#x203;" horiz-adv-x="1052" 
d="M930 0h-103q-21 0 -28.5 9t-12.5 32l-20 84h-4q-40 -73 -116 -111.5t-179 -38.5q-79 0 -147.5 23t-122 67.5t-84.5 116.5t-31 164q0 77 22.5 136t60.5 96t94 60.5t116.5 32.5t134.5 9h211q-3 30 -10.5 58.5t-24 63t-39.5 59.5t-61.5 42t-87.5 17q-67 0 -232 -52
q-41 -12 -53 4l-43 66q-19 29 2 53q34 37 136.5 69t217.5 32q103 0 182 -29.5t128 -78.5t80 -120.5t43 -148.5t12 -170v-504q0 -22 -9.5 -31.5t-31.5 -9.5zM725 449v59h-215q-82 0 -131 -41.5t-49 -114.5q0 -26 6 -53t20.5 -54.5t36 -49t55.5 -35t76 -13.5q96 0 148.5 74.5
t52.5 227.5zM362 1243h-88q-14 0 -23.5 10t-6.5 23q7 112 91.5 176t192.5 64q118 0 199 -66t84 -174q0 -12 -9.5 -22.5t-21.5 -10.5h-86q-9 0 -17.5 6.5t-10.5 14.5q-26 88 -138 88q-111 0 -139 -88q-11 -21 -27 -21z" />
    <glyph glyph-name="uni0204" unicode="&#x204;" horiz-adv-x="989" 
d="M866 0h-723q-22 0 -31.5 9.5t-9.5 31.5v1393q0 22 9.5 31.5t31.5 9.5h723q22 0 31.5 -9.5t9.5 -31.5v-103q0 -22 -9.5 -31.5t-31.5 -9.5h-506v-452h404q22 0 31.5 -9.5t9.5 -31.5v-103q0 -22 -9.5 -31.5t-31.5 -9.5h-404v-469h506q22 0 31.5 -9.5t9.5 -31.5v-102
q0 -22 -9.5 -31.5t-31.5 -9.5zM694 1890l123 -200q11 -19 6.5 -27t-26.5 -8h-64q-39 0 -71 28l-228 213q-33 29 10 29h187q41 0 63 -35zM287 1890l123 -200q10 -19 5.5 -27t-26.5 -8h-63q-40 0 -72 28l-227 213q-33 29 10 29h186q42 0 64 -35z" />
    <glyph glyph-name="uni0205" unicode="&#x205;" horiz-adv-x="1056" 
d="M885 195l43 -66q19 -29 -2 -53q-32 -37 -136.5 -69t-226.5 -32q-110 0 -195 30t-138.5 79.5t-87 121.5t-47 148.5t-13.5 167.5q0 122 25 222.5t77.5 180t142 123.5t210.5 44q94 0 173 -27.5t138.5 -81t93 -138.5t33.5 -194q0 -118 -47.5 -161.5t-175.5 -43.5h-420
q6 -68 22 -120t45 -93.5t77 -63.5t114 -22q37 0 82 8.5t74 17t85 26.5q42 12 54 -4zM332 618h315q49 0 64.5 12.5t15.5 57.5q0 94 -50.5 163t-129.5 69q-193 0 -215 -302zM786 1481l123 -201q11 -19 6.5 -27t-26.5 -8h-64q-38 0 -71 29l-228 213q-33 29 11 29h186
q41 0 63 -35zM379 1481l123 -201q10 -19 5.5 -27t-26.5 -8h-63q-39 0 -72 29l-227 213q-33 29 10 29h186q42 0 64 -35z" />
    <glyph glyph-name="uni0206" unicode="&#x206;" horiz-adv-x="989" 
d="M866 0h-723q-22 0 -31.5 9.5t-9.5 31.5v1393q0 22 9.5 31.5t31.5 9.5h723q22 0 31.5 -9.5t9.5 -31.5v-103q0 -22 -9.5 -31.5t-31.5 -9.5h-506v-452h404q22 0 31.5 -9.5t9.5 -31.5v-103q0 -22 -9.5 -31.5t-31.5 -9.5h-404v-469h506q22 0 31.5 -9.5t9.5 -31.5v-102
q0 -22 -9.5 -31.5t-31.5 -9.5zM332 1653h-88q-14 0 -24 10t-7 23q7 112 92 175.5t193 63.5q118 0 198.5 -65.5t83.5 -173.5q0 -12 -9 -22.5t-21 -10.5h-86q-9 0 -18.5 6.5t-10.5 13.5q-26 88 -137 88q-112 0 -140 -88q-10 -20 -26 -20z" />
    <glyph glyph-name="uni0207" unicode="&#x207;" horiz-adv-x="1056" 
d="M885 195l43 -66q19 -29 -2 -53q-32 -37 -136.5 -69t-226.5 -32q-110 0 -195 30t-138.5 79.5t-87 121.5t-47 148.5t-13.5 167.5q0 122 25 222.5t77.5 180t142 123.5t210.5 44q94 0 173 -27.5t138.5 -81t93 -138.5t33.5 -194q0 -118 -47.5 -161.5t-175.5 -43.5h-420
q6 -68 22 -120t45 -93.5t77 -63.5t114 -22q37 0 82 8.5t74 17t85 26.5q42 12 54 -4zM332 618h315q49 0 64.5 12.5t15.5 57.5q0 94 -50.5 163t-129.5 69q-193 0 -215 -302zM365 1243h-89q-14 0 -23.5 10t-6.5 23q7 112 91.5 176t192.5 64q118 0 199 -66t84 -174
q0 -12 -9.5 -22.5t-21.5 -10.5h-86q-9 0 -17.5 6.5t-10.5 14.5q-26 88 -138 88q-111 0 -139 -88q-11 -21 -26 -21z" />
    <glyph glyph-name="uni0208" unicode="&#x208;" horiz-adv-x="462" 
d="M319 0h-176q-22 0 -31.5 9.5t-9.5 31.5v1393q0 22 9.5 31.5t31.5 9.5h176q22 0 31.5 -9.5t9.5 -31.5v-1393q0 -22 -9.5 -31.5t-31.5 -9.5zM451 1890l122 -200q11 -19 6.5 -27t-26.5 -8h-64q-39 0 -71 28l-228 213q-33 29 11 29h186q42 0 64 -35zM43 1890l123 -200
q10 -19 5.5 -27t-26.5 -8h-63q-40 0 -72 28l-227 213q-33 29 10 29h187q41 0 63 -35z" />
    <glyph glyph-name="uni0209" unicode="&#x209;" horiz-adv-x="450" 
d="M307 0h-164q-22 0 -31.5 9.5t-9.5 31.5v983q0 22 9.5 31.5t31.5 9.5h164q22 0 31.5 -9.5t9.5 -31.5v-983q0 -22 -9.5 -31.5t-31.5 -9.5zM461 1481l123 -201q10 -19 5.5 -27t-26.5 -8h-63q-39 0 -72 29l-227 213q-33 29 10 29h186q42 0 64 -35zM53 1481l123 -201
q11 -19 6.5 -27t-26.5 -8h-64q-39 0 -72 29l-227 213q-33 29 10 29h187q41 0 63 -35z" />
    <glyph glyph-name="uni020A" unicode="&#x20a;" horiz-adv-x="462" 
d="M319 0h-176q-22 0 -31.5 9.5t-9.5 31.5v1393q0 22 9.5 31.5t31.5 9.5h176q22 0 31.5 -9.5t9.5 -31.5v-1393q0 -22 -9.5 -31.5t-31.5 -9.5zM70 1653h-88q-14 0 -24 10t-7 23q7 112 92 175.5t193 63.5q118 0 198.5 -65.5t83.5 -173.5q0 -12 -9.5 -22.5t-21.5 -10.5h-86
q-9 0 -18 6.5t-10 13.5q-26 88 -137 88q-112 0 -140 -88q-10 -20 -26 -20z" />
    <glyph glyph-name="uni020B" unicode="&#x20b;" horiz-adv-x="450" 
d="M307 0h-164q-22 0 -31.5 9.5t-9.5 31.5v983q0 22 9.5 31.5t31.5 9.5h164q22 0 31.5 -9.5t9.5 -31.5v-983q0 -22 -9.5 -31.5t-31.5 -9.5zM63 1243h-88q-14 0 -23.5 10t-6.5 23q7 112 91.5 176t192.5 64q118 0 199 -66t84 -174q0 -12 -9.5 -22.5t-21.5 -10.5h-86
q-9 0 -17.5 6.5t-10.5 14.5q-26 88 -138 88q-111 0 -139 -88q-3 -7 -11.5 -14t-15.5 -7z" />
    <glyph glyph-name="uni020C" unicode="&#x20c;" horiz-adv-x="1609" 
d="M805 -25q-155 0 -285.5 48t-228.5 140.5t-153.5 239.5t-55.5 334t55 334t153 239.5t228.5 140.5t286.5 48t286.5 -48t228.5 -140.5t153 -239.5t55 -334t-55.5 -334t-153.5 -239.5t-228.5 -140.5t-285.5 -48zM805 170q76 0 141.5 18.5t123.5 61.5t99 107.5t64.5 161
t23.5 218.5t-23.5 218.5t-64 161.5t-98.5 107.5t-123.5 61.5t-142.5 19q-97 0 -176 -31t-142.5 -96t-99 -177.5t-35.5 -263.5t35.5 -263.5t99.5 -177t143 -95.5t175 -31zM1014 1890l123 -200q11 -19 6 -27t-27 -8h-63q-40 0 -72 28l-227 213q-33 29 10 29h186q42 0 64 -35z
M606 1890l123 -200q11 -19 6.5 -27t-26.5 -8h-64q-40 0 -72 28l-227 213q-33 29 10 29h187q41 0 63 -35z" />
    <glyph glyph-name="uni020D" unicode="&#x20d;" 
d="M578 -25q-115 0 -202.5 29t-142.5 78t-89.5 121.5t-48 151t-13.5 175.5t13.5 176.5t48 152.5t89.5 123.5t142.5 80t202.5 29.5t202.5 -29.5t142 -79.5t89 -123.5t48 -152.5t13.5 -175q0 -97 -13.5 -176t-48 -151.5t-89.5 -122t-142 -78.5t-202 -29zM578 160
q60 0 104.5 19.5t72 52t44 81.5t22.5 101t6 118q0 65 -6 117.5t-22.5 102t-44 82.5t-72 53t-104.5 20q-74 0 -125 -29t-77.5 -83.5t-37 -117t-10.5 -145.5q0 -66 6 -118t23 -101t44.5 -81.5t72 -52t104.5 -19.5zM778 1481l123 -201q11 -19 6.5 -27t-26.5 -8h-64
q-39 0 -72 29l-227 213q-33 29 10 29h187q41 0 63 -35zM371 1481l123 -201q10 -19 5.5 -27t-26.5 -8h-63q-39 0 -72 29l-227 213q-33 29 10 29h186q42 0 64 -35z" />
    <glyph glyph-name="uni020E" unicode="&#x20e;" horiz-adv-x="1609" 
d="M805 -25q-155 0 -285.5 48t-228.5 140.5t-153.5 239.5t-55.5 334t55 334t153 239.5t228.5 140.5t286.5 48t286.5 -48t228.5 -140.5t153 -239.5t55 -334t-55.5 -334t-153.5 -239.5t-228.5 -140.5t-285.5 -48zM805 170q76 0 141.5 18.5t123.5 61.5t99 107.5t64.5 161
t23.5 218.5t-23.5 218.5t-64 161.5t-98.5 107.5t-123.5 61.5t-142.5 19q-97 0 -176 -31t-142.5 -96t-99 -177.5t-35.5 -263.5t35.5 -263.5t99.5 -177t143 -95.5t175 -31zM641 1653h-88q-14 0 -24 10t-7 23q7 112 92 175.5t193 63.5q118 0 199 -65.5t84 -173.5
q0 -12 -9.5 -22.5t-21.5 -10.5h-86q-9 0 -18.5 6.5t-10.5 13.5q-26 88 -137 88t-139 -88q-3 -7 -11.5 -13.5t-15.5 -6.5z" />
    <glyph glyph-name="uni020F" unicode="&#x20f;" 
d="M578 -25q-115 0 -202.5 29t-142.5 78t-89.5 121.5t-48 151t-13.5 175.5t13.5 176.5t48 152.5t89.5 123.5t142.5 80t202.5 29.5t202.5 -29.5t142 -79.5t89 -123.5t48 -152.5t13.5 -175q0 -97 -13.5 -176t-48 -151.5t-89.5 -122t-142 -78.5t-202 -29zM578 160
q60 0 104.5 19.5t72 52t44 81.5t22.5 101t6 118q0 65 -6 117.5t-22.5 102t-44 82.5t-72 53t-104.5 20q-74 0 -125 -29t-77.5 -83.5t-37 -117t-10.5 -145.5q0 -66 6 -118t23 -101t44.5 -81.5t72 -52t104.5 -19.5zM414 1243h-88q-14 0 -24 10t-7 23q7 112 92 176t193 64
q118 0 198.5 -66t83.5 -174q0 -12 -9.5 -22.5t-21.5 -10.5h-86q-9 0 -17.5 6.5t-10.5 14.5q-26 88 -137 88q-112 0 -140 -88q-4 -7 -11.5 -14t-14.5 -7z" />
    <glyph glyph-name="uni0210" unicode="&#x210;" horiz-adv-x="1161" 
d="M1067 0h-225q-42 0 -62 35l-260 414h-160v-408q0 -22 -9.5 -31.5t-31.5 -9.5h-176q-22 0 -31.5 9.5t-9.5 31.5v1393q0 22 9.5 31.5t31.5 9.5h389q151 0 272.5 -68.5t188 -186t66.5 -259.5q0 -150 -78.5 -274t-212.5 -187l315 -467q13 -17 10.5 -25t-26.5 -8zM360 631h132
q152 0 230.5 82.5t78.5 247.5q0 328 -309 331h-132v-661zM692 1890l123 -200q11 -19 6.5 -27t-26.5 -8h-64q-40 0 -72 28l-227 213q-33 29 10 29h187q41 0 63 -35zM285 1890l123 -200q10 -19 5.5 -27t-26.5 -8h-63q-40 0 -72 28l-227 213q-33 29 10 29h186q42 0 64 -35z" />
    <glyph glyph-name="uni0211" unicode="&#x211;" horiz-adv-x="647" 
d="M307 0h-164q-22 0 -31.5 9.5t-9.5 31.5v983q0 22 9.5 31.5t31.5 9.5h103q9 0 14 -1t9.5 -6t6 -7.5t5.5 -12.5t6 -14l20 -78h4q25 39 55.5 65.5t53.5 39.5t60.5 20t53.5 8t56 2q23 0 30 -4.5t7 -25.5v-154q0 -19 -8.5 -27t-18 -8.5t-29 2t-28.5 2.5q-95 0 -145 -50.5
t-50 -147.5v-627q0 -22 -9.5 -31.5t-31.5 -9.5zM600 1481l123 -201q11 -19 6 -27t-27 -8h-63q-39 0 -72 29l-227 213q-33 29 10 29h187q41 0 63 -35zM193 1481l122 -201q11 -19 6.5 -27t-26.5 -8h-64q-38 0 -71 29l-228 213q-33 29 11 29h186q42 0 64 -35z" />
    <glyph glyph-name="uni0212" unicode="&#x212;" horiz-adv-x="1161" 
d="M1067 0h-225q-42 0 -62 35l-260 414h-160v-408q0 -22 -9.5 -31.5t-31.5 -9.5h-176q-22 0 -31.5 9.5t-9.5 31.5v1393q0 22 9.5 31.5t31.5 9.5h389q151 0 272.5 -68.5t188 -186t66.5 -259.5q0 -150 -78.5 -274t-212.5 -187l315 -467q13 -17 10.5 -25t-26.5 -8zM360 631h132
q152 0 230.5 82.5t78.5 247.5q0 328 -309 331h-132v-661zM354 1653h-88q-14 0 -23.5 10t-6.5 23q7 112 91.5 175.5t192.5 63.5q118 0 199 -65.5t84 -173.5q0 -12 -9.5 -22.5t-21.5 -10.5h-86q-9 0 -18.5 6.5t-10.5 13.5q-26 88 -137 88t-139 -88q-3 -7 -11.5 -13.5
t-15.5 -6.5z" />
    <glyph glyph-name="uni0213" unicode="&#x213;" horiz-adv-x="647" 
d="M307 0h-164q-22 0 -31.5 9.5t-9.5 31.5v983q0 22 9.5 31.5t31.5 9.5h103q9 0 14 -1t9.5 -6t6 -7.5t5.5 -12.5t6 -14l20 -78h4q25 39 55.5 65.5t53.5 39.5t60.5 20t53.5 8t56 2q23 0 30 -4.5t7 -25.5v-154q0 -19 -8.5 -27t-18 -8.5t-29 2t-28.5 2.5q-95 0 -145 -50.5
t-50 -147.5v-627q0 -22 -9.5 -31.5t-31.5 -9.5zM162 1243h-88q-14 0 -24 10t-7 23q7 112 92 176t193 64q118 0 198.5 -66t83.5 -174q0 -12 -9 -22.5t-21 -10.5h-86q-9 0 -18 6.5t-11 14.5q-26 88 -137 88q-112 0 -140 -88q-4 -7 -11.5 -14t-14.5 -7z" />
    <glyph glyph-name="uni0214" unicode="&#x214;" horiz-adv-x="1302" 
d="M1004 582v852q0 22 9 31.5t31 9.5h115q22 0 31.5 -9.5t9.5 -31.5v-910q0 -239 -155.5 -394t-397.5 -155q-234 0 -389.5 157t-155.5 392v910q0 22 9.5 31.5t31.5 9.5h176q22 0 31.5 -9.5t9.5 -31.5v-852q0 -181 77.5 -301.5t213.5 -120.5q165 0 259 119t94 303zM858 1890
l123 -200q11 -19 6.5 -27t-26.5 -8h-64q-40 0 -72 28l-227 213q-33 29 10 29h187q41 0 63 -35zM451 1890l122 -200q11 -19 6.5 -27t-26.5 -8h-64q-39 0 -71 28l-228 213q-33 29 11 29h186q42 0 64 -35z" />
    <glyph glyph-name="uni0215" unicode="&#x215;" horiz-adv-x="1097" 
d="M954 0h-102q-21 0 -28.5 9t-12.5 32l-20 84h-5q-35 -69 -112.5 -109.5t-159.5 -40.5q-177 0 -294.5 108t-117.5 294v647q0 41 39 41h168q39 0 39 -41v-578q0 -85 16.5 -149t60 -107t110.5 -43q215 0 215 320v557q0 22 9.5 31.5t31.5 9.5h163q22 0 31.5 -9.5t9.5 -31.5
v-983q0 -22 -9.5 -31.5t-31.5 -9.5zM766 1481l123 -201q11 -19 6 -27t-27 -8h-63q-39 0 -72 29l-227 213q-33 29 10 29h186q42 0 64 -35zM358 1481l123 -201q11 -19 6.5 -27t-26.5 -8h-64q-38 0 -71 29l-228 213q-33 29 11 29h186q41 0 63 -35z" />
    <glyph glyph-name="uni0216" unicode="&#x216;" horiz-adv-x="1302" 
d="M1004 582v852q0 22 9 31.5t31 9.5h115q22 0 31.5 -9.5t9.5 -31.5v-910q0 -239 -155.5 -394t-397.5 -155q-234 0 -389.5 157t-155.5 392v910q0 22 9.5 31.5t31.5 9.5h176q22 0 31.5 -9.5t9.5 -31.5v-852q0 -181 77.5 -301.5t213.5 -120.5q165 0 259 119t94 303zM487 1653
h-88q-14 0 -23.5 10t-6.5 23q7 112 91.5 175.5t192.5 63.5q118 0 199 -65.5t84 -173.5q0 -12 -9.5 -22.5t-21.5 -10.5h-86q-9 0 -18 6.5t-10 13.5q-26 88 -138 88q-111 0 -139 -88q-3 -7 -11.5 -13.5t-15.5 -6.5z" />
    <glyph glyph-name="uni0217" unicode="&#x217;" horiz-adv-x="1097" 
d="M954 0h-102q-21 0 -28.5 9t-12.5 32l-20 84h-5q-35 -69 -112.5 -109.5t-159.5 -40.5q-177 0 -294.5 108t-117.5 294v647q0 41 39 41h168q39 0 39 -41v-578q0 -85 16.5 -149t60 -107t110.5 -43q215 0 215 320v557q0 22 9.5 31.5t31.5 9.5h163q22 0 31.5 -9.5t9.5 -31.5
v-983q0 -22 -9.5 -31.5t-31.5 -9.5zM385 1243h-88q-14 0 -24 10t-7 23q7 112 92 176t193 64q118 0 199 -66t84 -174q0 -12 -9.5 -22.5t-21.5 -10.5h-86q-9 0 -18 6.5t-11 14.5q-26 88 -137 88t-139 -88q-3 -7 -11.5 -14t-15.5 -7z" />
    <glyph glyph-name="uni0218" unicode="&#x218;" horiz-adv-x="1136" 
d="M627 575l-199 78q-336 132 -336 416q0 130 68 229.5t180.5 150t249.5 50.5q122 0 254 -35.5t168 -64.5q10 -7 10.5 -17.5t-8.5 -35.5l-33 -86q-7 -19 -53 -5q-189 50 -326 50q-78 0 -134.5 -20t-84.5 -53t-40.5 -67t-12.5 -71q0 -61 39 -108.5t137 -84.5l196 -74
q172 -64 262.5 -183t90.5 -261q0 -186 -147 -297t-384 -111q-120 0 -254.5 34.5t-175.5 66.5q-10 9 -10.5 19.5t8.5 33.5l33 86q7 18 53 4q57 -15 161.5 -32t182.5 -17q133 0 214 52.5t81 137.5q0 69 -53.5 125.5t-136.5 89.5zM539 -510h-74q-22 0 -31.5 9.5t-9.5 31.5v205
q0 22 9.5 31.5t31.5 9.5h205q22 0 31.5 -9.5t9.5 -31.5v-236q0 -93 -33.5 -181t-67.5 -126q-20 -24 -53 -2l-65 43q-18 13 -5 53q3 7 14 35t18 49t13.5 54.5t6.5 64.5z" />
    <glyph glyph-name="uni0219" unicode="&#x219;" horiz-adv-x="970" 
d="M496 412l-177 53q-111 34 -164 112t-53 185q0 146 100.5 238t282.5 92q121 0 220 -31.5t137 -69.5q21 -21 0 -53l-43 -66q-9 -19 -54 -4q-143 52 -237 52q-87 0 -129.5 -35.5t-42.5 -98.5q0 -78 80 -100l239 -70q129 -37 181.5 -110.5t52.5 -198.5q0 -106 -60.5 -183
t-155 -113t-210.5 -36q-126 0 -232.5 30t-136.5 71q-19 27 -2 53l43 66q13 17 53 4q154 -52 263 -52q204 0 204 138q0 46 -34 72.5t-125 54.5zM457 -510h-74q-22 0 -31.5 9.5t-9.5 31.5v205q0 22 9.5 31.5t31.5 9.5h205q22 0 31.5 -9.5t9.5 -31.5v-236q0 -93 -33.5 -181
t-67.5 -126q-20 -24 -53 -2l-65 43q-18 12 -4 53q2 7 13 35.5t18 48.5t13.5 54t6.5 65z" />
    <glyph glyph-name="uni021A" unicode="&#x21a;" horiz-adv-x="983" 
d="M580 0h-177q-22 0 -31.5 9.5t-9.5 31.5v1249h-301q-22 0 -31.5 9.5t-9.5 31.5v103q0 22 9.5 31.5t31.5 9.5h861q22 0 31.5 -9.5t9.5 -31.5v-103q0 -22 -9.5 -31.5t-31.5 -9.5h-301v-1249q0 -22 -9.5 -31.5t-31.5 -9.5zM463 -510h-74q-22 0 -31.5 9.5t-9.5 31.5v205
q0 22 9.5 31.5t31.5 9.5h205q22 0 31.5 -9.5t9.5 -31.5v-236q0 -93 -33 -181t-67 -126q-21 -24 -54 -2l-65 43q-18 12 -4 53q2 7 13 35.5t18 48.5t13.5 54t6.5 65z" />
    </font>
</defs>
</svg>
